<svg version="1.1" xmlns="http://www.w3.org/2000/svg" xmlns:xlink="http://www.w3.org/1999/xlink" width="117.17183" height="115.18415" viewBox="-0.01817,0,117.17183,115.18415"><g transform="translate(-184.06352,-125.03943)"><g data-paper-data="{&quot;isPaintingLayer&quot;:true}" fill-rule="nonzero" stroke-width="0.90231" stroke-miterlimit="10" stroke-dasharray="" stroke-dashoffset="0" style="mix-blend-mode: normal"><g><path d="M236.10607,215.32508v0v0v0v0v0v0c2.11071,3.92113 -2.1897,9.7808 -2.54652,10.29598c-0.61585,0.60088 0,0 -0.01036,0.01468c0,0 -3.0904,3.33676 -5.13451,2.20515c-0.87056,-0.48044 -1.26376,-1.33238 -1.28372,-2.44844c-0.38197,-0.12208 -0.91029,-0.38091 -1.14677,-0.94024c-0.39406,-0.92987 1.59026,-1.64842 1.59026,-1.64842v0.01382c0.09098,-0.28744 0.18887,-0.58265 0.30749,-0.88918c0.67046,-1.73498 2.323,-5.12721 2.323,-5.12721c0,0 3.76345,-5.44757 5.90113,-1.47615z" fill="#9a8479" stroke="#000000" stroke-linecap="round" stroke-linejoin="round"/><path d="M259.93286,221.11805v0v0v0v0v0v0c0,0 1.98441,0.72037 1.58767,1.64938c-0.23475,0.56364 -0.7648,0.82162 -1.14504,0.94542c-0.01996,1.11078 -0.4123,1.96618 -1.28363,2.44671c-1.33036,0.73505 -3.00037,-0.35059 -4.00856,-1.2008c-0.47458,-0.31949 -1.00732,-0.66672 -1.47931,-0.93851c-1.19101,-0.68658 -4.0242,-5.34027 -3.48283,-7.9558c0.54138,-2.61553 6.26918,0 6.26918,0c1.33296,1.28142 2.77426,2.97744 3.23589,4.17488c0.11699,0.3073 0.21661,0.6052 0.30663,0.89609v-0.01737z" fill="#9a8479" stroke="#000000" stroke-linecap="round" stroke-linejoin="round"/><path d="M238.39789,225.25483v0v0v0v0v0v0c3.74349,1.42595 5.22107,2.20256 4.69361,5.18518c-0.39579,2.23634 1.51319,7.14714 1.51319,7.14714c0,0 0.9268,0.26575 0.60885,1.01299c-0.31786,0.75578 -2.61658,1.258 -5.59613,1.09955c-2.97868,-0.15759 -5.31906,-0.12294 -5.65679,-0.83812c-0.33869,-0.71163 0.28235,-1.04322 0.28235,-1.04322c0,0 0.11517,-1.68748 0.11862,-3.50125c0,-1.81387 -0.2884,-6.77659 -0.2884,-6.77659c0,0 0.58121,-3.71162 4.32469,-2.28567z" fill="#9a8479" stroke="#000000" stroke-linecap="butt" stroke-linejoin="miter"/><path d="M248.0641,225.91713v0v0v0v0v0v0c2.81496,-1.28478 4.52643,-1.49784 5.24794,0.00173c0,0 1.41098,2.63549 2.12117,5.38087c0.70856,2.74375 1.21606,5.8995 1.21606,5.8995c0,0 0.94072,0.50049 0.93371,0.99398c-0.00518,0.49349 -0.81499,1.45887 -5.08508,1.57922c-4.26845,0.11507 -5.78932,-0.58533 -5.921,-1.23123c-0.13513,-0.64503 0.36546,-0.70213 0.36546,-0.70213c0,0 0.05893,-0.7004 0,-2.39479c-0.05797,-1.69429 -0.76135,-4.81463 -0.76135,-4.81463c0,0 -0.93198,-3.42764 1.88307,-4.71252z" fill="#9a8479" stroke="#000000" stroke-linecap="butt" stroke-linejoin="miter"/><path d="M241.63464,211.85156v0v0v0v0v0v0c7.77978,-0.60174 10.75146,3.9099 10.74973,3.90904c0.63322,1.16529 1.41962,2.80949 1.74621,4.31078c0.09002,0.4147 0.14549,0.88131 0.15931,1.38181c0,0 -0.04587,1.73844 -0.21479,2.26916c-0.70847,2.22338 -1.86224,4.65714 -4.62173,5.75756c-4.33247,1.73498 -8.94383,1.52202 -13.73543,-0.7576c-1.61703,-0.7671 -2.57503,-2.07444 -3.09212,-3.56267c-0.36901,-1.07105 -0.5266,-2.46754 -0.5266,-2.46754c-0.22697,-2.32291 0.17928,-4.59044 0.39579,-5.57655c0,0 1.36079,-4.66232 9.13961,-5.26397z" fill="#9a8479" stroke="#000000" stroke-linecap="butt" stroke-linejoin="miter"/><g stroke-linejoin="miter"><path d="M201.37868,198.60924v0v0v0v0v0v0c-0.04587,-0.07966 -1.38584,-2.31763 -1.38584,-2.31859c-3.71661,-5.9661 -4.54034,-19.45939 -4.2173,-23.67065l0.0286,-0.20173c1.05588,-17.84994 9.35699,-27.37709 14.25943,-32.41946c11.12738,-11.45263 27.9939,-11.91848 27.9939,-11.91848l0.59762,11.5869c0,0 -0.03205,-3.33244 6.75336,-9.15833c6.78369,-5.82589 16.81536,-4.97481 16.81536,-4.97481l-5.32328,14.52009c0,0 3.138,-4.52288 5.70967,-6.17571c4.55934,-2.92542 8.41454,-1.66828 8.41454,-1.66828l-1.0627,9.00592c0,0 6.78542,8.79642 11.97875,17.0621c1.11136,1.76358 2.3993,3.54885 3.21602,5.60247c2.97005,7.46144 3.39875,20.75991 0.06929,27.34685c-0.57506,1.16539 -1.20128,2.297 -1.85092,3.4095c-0.16891,0.28571 -0.33869,0.56969 -0.51105,0.85022c-0.59503,0.97834 -1.21606,1.93758 -1.86915,2.86745c-0.08829,0.1238 -0.16891,0.25538 -0.25721,0.37928c-0.74062,1.03458 -1.52183,2.03106 -2.33433,2.99989c-0.19396,0.23379 -0.39838,0.45971 -0.59675,0.69177c-0.69637,0.80002 -1.41789,1.57749 -2.15841,2.3255c-0.17064,0.17496 -0.33696,0.35241 -0.50932,0.52122c-0.89129,0.87104 -1.81973,1.7013 -2.77599,2.49431c-0.21306,0.17409 -0.4313,0.34032 -0.64618,0.51086c-0.8029,0.64071 -1.63268,1.25282 -2.48145,1.83633c-0.24511,0.16622 -0.48418,0.34108 -0.73102,0.50385c-1.03679,0.6814 -2.09872,1.32125 -3.19529,1.91253c-0.19569,0.10653 -0.40356,0.20001 -0.60194,0.30308c-0.93717,0.48744 -1.89602,0.93592 -2.87561,1.35148c-4.14369,1.75667 -8.64324,2.90037 -13.47467,3.24846c-5.52166,0.39742 -10.52027,0.23024 -15.03546,-0.35846c-1.11644,-0.14549 -2.20256,-0.31949 -3.26017,-0.51431c-0.20097,-0.04069 -0.40107,-0.07966 -0.60021,-0.11862c-1.0723,-0.21123 -2.12473,-0.43802 -3.13464,-0.69695c-0.00605,-0.00173 -0.01382,-0.00345 -0.02073,-0.00518c-1.01174,-0.25625 -1.98441,-0.54368 -2.93454,-0.84849c-0.16632,-0.05278 -0.33696,-0.10557 -0.50241,-0.15931c-0.91289,-0.29867 -1.80245,-0.61816 -2.65987,-0.95665c-0.15077,-0.0571 -0.29627,-0.12208 -0.44608,-0.18091c-0.84628,-0.34118 -1.67164,-0.69618 -2.46331,-1.07191c-0.03033,-0.01727 -0.06411,-0.0286 -0.09357,-0.04415c-0.81068,-0.38782 -1.58507,-0.79302 -2.33769,-1.20781c-0.14041,-0.07783 -0.27985,-0.15404 -0.41661,-0.23196c-0.72411,-0.41124 -1.42576,-0.83121 -2.0944,-1.26405c-0.10221,-0.06497 -0.19924,-0.13254 -0.30058,-0.19828c-0.63486,-0.41901 -1.24898,-0.84676 -1.83623,-1.28315c-0.06056,-0.04156 -0.12726,-0.0857 -0.18532,-0.13158c-0.6124,-0.45971 -1.19092,-0.92987 -1.74871,-1.4034c-0.10835,-0.09098 -0.21488,-0.18273 -0.31882,-0.27362c-0.54387,-0.47362 -1.06702,-0.94801 -1.55907,-1.43373c-0.05624,-0.05288 -0.10739,-0.10912 -0.16277,-0.16277c-0.46345,-0.46153 -0.90339,-0.92642 -1.31914,-1.3914c-0.05806,-0.06747 -0.1239,-0.13331 -0.18283,-0.19905c-0.42612,-0.48917 -1.34687,-1.64938 -1.41789,-1.74199c-0.37064,-0.49003 -0.72411,-0.9792 -1.0437,-1.46578c-0.01987,-0.03033 -0.03896,-0.06065 -0.0571,-0.09089c-0.30663,-0.46844 -0.58553,-0.92987 -0.84628,-1.38968z" fill="#9a8479" stroke="#000000" stroke-linecap="butt"/><path d="M266.88287,172.56809v0v0v0v0v0v0c0,0 10.0906,11.40762 6.97247,23.24127c-3.1164,11.83009 -21.74026,16.84214 -36.04989,15.94259c-18.91667,-1.19044 -27.6865,-12.45612 -24.57355,-23.20748c3.11727,-10.75137 28.16108,-15.77723 28.16108,-15.77723l-4.1125,7.7245c0,0 3.23944,-0.5004 5.85602,-1.99651c2.61581,-1.49342 5.48452,-3.48561 5.48452,-3.48561l-5.99202,8.48902c0,0 7.91395,-0.08484 14.76693,-2.82762c6.85298,-2.73933 9.48693,-8.10292 9.48693,-8.10292z" fill="#e6e7e8" stroke="#000000" stroke-linecap="butt"/><g stroke="#000000"><path d="M279.79457,166.40015c0,0 16.24193,-9.12282 19.95422,-1.3653c3.71239,7.75742 -2.9284,16.84828 -16.78676,25.07328c0,0 0.30577,-13.50548 -3.16746,-23.70798v0v0v0v0v0v0zM279.79457,166.40015c-0.29022,-1.19389 -1.24908,-3.47697 -1.24908,-3.47697M282.60175,192.21107l0.17409,-2.18432" fill="#9a8479" stroke-linecap="round"/><path d="M282.77585,190.02588c0.09002,-2.50132 0.08657,-6.61986 -0.47727,-11.76262c-0.32487,-2.99308 -0.95281,-6.0805 -1.59717,-8.74709l0.00173,0.00345c9.51371,-2.42166 17.98123,6.3713 17.98123,6.3713h0.00345c-4.75513,7.89341 -15.83577,13.91672 -15.83577,13.91672l-0.0762,0.21824v0v0v0v0v0v0z" fill="#ee4036" stroke-linecap="butt"/></g><g stroke="#000000"><path d="M203.56569,196.05782c-13.49022,-5.36791 -20.76931,-12.62666 -18.73039,-20.25174c2.03979,-7.62584 17.76904,-1.80427 17.76904,-1.80427c-1.44217,9.81286 0.96135,22.05601 0.96135,22.05601v0v0v0v0v0v0zM203.15426,170.64778c0,0 -0.48332,2.22243 -0.54906,3.35403M203.71646,195.95389l0.49886,1.96186" fill="#9a8479" stroke-linecap="round"/><path d="M203.61512,195.7678c0,0 -10.69954,-3.78955 -16.13031,-10.24492l0.00259,-0.00086c0,0 6.05872,-9.29336 14.81031,-8.54276l0.00086,-0.00259c-0.14549,2.52378 -0.2096,5.42933 -0.02169,8.20168c0.317,4.76616 0.9649,8.51416 1.43958,10.77555l-0.10135,-0.18609v0v0v0v0v0v0z" fill="#ee4036" stroke-linecap="butt"/></g><path d="M255.86115,191.18427c-0.62795,0 -1.1771,-0.45452 -1.28104,-1.09437c-0.11353,-0.70818 0.36892,-1.3749 1.07748,-1.48824c0.64436,-0.10135 6.35575,-0.99226 8.46051,-0.73073c0.71202,0.09002 1.21779,0.73937 1.13209,1.44755c-0.09012,0.71346 -0.74925,1.20867 -1.44995,1.13161c-1.32432,-0.16104 -5.44027,0.35155 -7.73295,0.71518c-0.06929,0.01382 -0.13858,0.019 -0.20615,0.019v0v0v0v0v0v0v0z" fill="#231f20" stroke="none" stroke-linecap="butt"/><path d="M234.80767,191.46134c-0.08138,0 -0.16373,-0.00864 -0.24857,-0.02342c-2.99951,-0.58006 -8.27433,0.01046 -8.32625,0.01564c-0.70079,0.07793 -1.35474,-0.42775 -1.43785,-1.14111c-0.08138,-0.71173 0.42957,-1.35589 1.14332,-1.43728c0.23388,-0.02332 5.72089,-0.63889 9.11447,0.01564c0.70328,0.13503 1.16587,0.81643 1.02901,1.52375c-0.12044,0.61556 -0.66518,1.04677 -1.27413,1.04677v0v0v0v0v0v0v0z" fill="#231f20" stroke="none" stroke-linecap="butt"/><path d="M256.73335,197.25863c0,0 -3.50528,4.72634 -11.35436,4.72634c-7.84725,0 -9.94856,-3.10642 -9.94856,-3.10642" fill="none" stroke="#231f20" stroke-linecap="round"/></g></g></g></g></svg>