<svg version="1.1" xmlns="http://www.w3.org/2000/svg" xmlns:xlink="http://www.w3.org/1999/xlink" width="72.20863" height="155.81856" viewBox="0,0,72.20863,155.81856"><g transform="translate(-201.06167,-119.43345)"><g data-paper-data="{&quot;isPaintingLayer&quot;:true}" fill-rule="nonzero" stroke-linecap="butt" stroke-linejoin="miter" stroke-miterlimit="10" stroke-dasharray="" stroke-dashoffset="0" style="mix-blend-mode: normal"><path d="M249.47077,260.81965c-0.22491,0.48635 1.31342,0.80766 1.69387,0.85279c1.00767,0.11442 2.50629,-0.24121 3.48046,-0.24588c0.86524,-0.00696 1.83164,0.13072 2.59261,0.46145c0.48864,0.21164 1.37952,1.2076 1.50639,1.72737c0.02801,0.11516 0.01245,0.34081 -0.01556,0.45441c-0.81471,0.31746 -1.51106,0.92511 -2.29538,1.33832c-1.08778,0.57342 -2.26581,1.00219 -3.50298,1.25429c-1.29475,0.26611 -1.21538,0.49405 -2.54593,0.55785c-1.13217,0.05373 -3.68662,0.13072 -4.75809,-0.07625c-2.27744,-0.43262 -4.16355,-0.49249 -6.26907,-1.54997c-0.65753,-0.07855 -4.34022,-1.49706 -3.17307,-1.76783c1.02004,-0.23654 3.9379,-0.26685 4.98915,-0.21164c1.55463,0.08092 3.15907,-0.5454 4.62107,-1.14691c0.69488,-0.28552 1.25666,-0.54229 1.91026,-0.88703c0.58668,-0.30886 1.02627,-0.43803 1.4457,-0.91889" fill="#eaa06d" stroke="none" stroke-width="0.95"></path><path d="M258.8935,264.02933c0.19993,0.74771 0.24039,1.52269 0.26529,2.3374c0.01089,0.39912 -0.08788,0.69717 -0.13613,1.03716c-0.0498,0.37275 0.08715,0.72912 0.03579,1.10105c-0.82871,0.3268 -1.55078,0.82634 -2.41521,1.1103c-0.93298,0.30739 -1.90248,0.54393 -2.84316,0.83879c-2.20979,0.69562 -4.71296,0.5626 -6.94372,0.04513c-0.88785,-0.20542 -1.72819,-0.52362 -2.57009,-0.86442c-0.81233,-0.32991 -1.41531,-0.77031 -2.3179,-0.84583c-0.91971,-0.07937 -1.80756,0.19223 -2.73734,0.12687c-0.8668,-0.05914 -1.85342,-0.11909 -2.66035,-0.42795c-1.71877,-0.65982 -0.52984,-3.25555 -0.57808,-4.51533c0.34621,0.20624 1.02627,0.57817 1.36707,0.81626c0.73534,0.50576 1.3407,0.61699 2.19349,0.85902c0.90955,0.25988 1.64489,0.57964 2.55133,0.82707c1.96006,0.53615 4.00408,0.726 6.04662,0.83879c1.96547,0.10893 3.85698,-0.00311 5.67772,-0.70258c1.01464,-0.38905 1.98881,-0.88547 2.95291,-1.38894c0.5898,-0.30813 1.40598,-1.28148 2.05884,-1.29082" fill="#bc7240" stroke="none" stroke-width="0.95"></path><path d="M258.56048,263.79819v0c-0.8808,-2.72407 -3.36448,-2.4813 -5.70966,-2.16933c-0.71511,0.09575 -1.44185,0.19067 -2.1631,0.08797c-0.79521,-0.1136 -1.17959,-0.48791 -1.71885,-1.0551c-0.10893,-0.11516 0.28167,-0.08715 0.36259,-0.00238c0.554,0.58357 1.03175,0.88629 1.86432,0.89252c0.47079,0.00541 0.94616,-0.06774 1.41458,-0.12761c0.89252,-0.11516 1.78421,-0.24432 2.68836,-0.22802c1.78962,0.03039 3.09756,0.9392 3.65238,2.65257c0.04202,0.12916 -0.34859,0.07543 -0.3906,-0.05062zM259.07164,263.84881v0c0.263,1.58338 0.17896,3.18241 0.21246,4.78217c0.00467,0.15636 -0.38749,0.06921 -0.3906,-0.05135c-0.03194,-1.59747 0.0498,-3.19642 -0.21246,-4.78217c-0.02334,-0.14628 0.37037,-0.07707 0.3906,0.05135zM250.7896,270.97068v0c-2.26893,0.05062 -4.33088,-0.2544 -6.43092,-1.12898c-0.65671,-0.27471 -1.27452,-0.6038 -1.95613,-0.81626c-0.89637,-0.27545 -1.68929,-0.04431 -2.5841,0.0249c-1.43088,0.11205 -2.78165,-0.24662 -4.1348,-0.67768c-0.05365,-0.01556 -0.15636,-0.0475 -0.17274,-0.11598c-0.28241,-1.462 0.34318,-2.84545 0.2856,-4.30827c-0.00622,-0.15488 0.38438,-0.07158 0.3906,0.04898c0.04202,1.09171 -1.05198,4.01497 0.2521,4.41262c1.16247,0.35326 2.33429,0.5649 3.54574,0.37734c0.60773,-0.09411 1.19286,-0.17274 1.80362,-0.09493c1.34381,0.17118 2.56853,0.97811 3.82667,1.43014c1.61844,0.58128 3.31469,0.67539 5.01871,0.6373c0.14006,-0.00311 0.42173,0.2046 0.15562,0.21082zM259.24749,268.69553v0c-2.74045,1.23562 -5.45134,2.15614 -8.45634,2.27753c-0.14079,0.00541 -0.4178,-0.20075 -0.15406,-0.2109c2.94431,-0.11983 5.61555,-1.03642 8.29916,-2.2487c0.10738,-0.05054 0.46768,0.11131 0.31124,0.18207zM258.93781,263.89935v0c-2.91941,2.52103 -7.03627,3.64075 -10.82019,3.55671c-2.14287,-0.05062 -4.26396,-0.46301 -6.33836,-0.98122c-0.97729,-0.24506 -1.9359,-0.54622 -2.88436,-0.88703c-1.11112,-0.39683 -1.88922,-1.10645 -2.93653,-1.60206c-0.24514,-0.11516 -0.01794,-0.22802 0.15013,-0.1471c0.60691,0.28634 1.1135,0.69717 1.67217,1.06443c0.94534,0.61863 2.25648,0.89096 3.32943,1.19442c2.10946,0.59913 4.28575,1.00292 6.47531,1.12824c3.79948,0.21394 8.05566,-0.95083 10.98597,-3.47809c0.10345,-0.08403 0.46604,0.06692 0.36644,0.15169z" fill="#000000" stroke="none" stroke-width="0.95"></path><path d="M230.59336,269.06901c0.00622,0.5649 -0.37971,1.65816 -0.81774,1.94294c-0.59291,0.382 -1.66979,0.79284 -2.35452,0.93216c-2.99878,0.61388 -7.30943,0.63804 -10.29576,-0.1136c-0.68399,-0.172 -1.35389,-0.54 -1.52744,-1.08622c-0.09026,-0.28871 -0.30264,-1.46904 -0.25988,-1.73204c0.07625,-0.48635 1.1189,-1.10645 1.42703,-1.53989c0.33073,-0.46448 1.02168,-0.83879 1.48149,-1.20834c0.92675,-0.74935 2.3514,-0.97655 3.51781,-1.15084c1.33284,-0.20075 2.51243,-0.01867 3.88892,0.37349c1.06755,0.30813 1.93508,0.79054 2.88829,1.33521c0.45908,0.26455 0.87687,0.47079 1.15314,0.96099c0.22876,0.40305 0.47153,1.04338 0.89866,1.28615" fill="#eaa06d" stroke="none" stroke-width="0.95"></path><path d="M230.67977,270.17006c0.30968,0.80996 -0.15021,2.30005 -0.37742,3.16062c-0.11049,0.41706 -0.8582,0.54074 -1.22702,0.77416c-0.53459,0.3354 -1.17181,0.35563 -1.7811,0.50265c-1.20056,0.29027 -2.46034,0.47079 -3.7084,0.47079c-1.1352,0 -1.96776,-0.10353 -3.10616,-0.15177c-0.93994,-0.0389 -1.91485,-0.2521 -2.83227,-0.44351c-0.76016,-0.16029 -1.58265,-0.28167 -2.10241,-0.89014c-0.62477,-0.73059 -0.95624,-1.56004 -1.08622,-2.44707c-0.09722,-0.65982 -0.28323,-1.7811 0.42566,-2.07129c0.69635,-0.28323 0.5898,1.11653 0.71274,1.6643c0.19993,0.88547 1.65341,1.10956 2.52103,1.33521c2.27204,0.59291 4.17911,0.6871 6.38579,0.38831c1.24651,-0.16807 2.54904,-0.20779 3.69595,-0.6871c0.33925,-0.14161 0.94387,-0.23572 1.23095,-0.49405c0.28716,-0.25988 0.48168,-0.40543 0.67309,-0.67465c0.06765,0.01712 0.17503,-0.46063 0.21238,-0.42328" fill="#bc7240" stroke="none" stroke-width="0.95"></path><path d="M230.37549,269.05034v0c-0.15095,-0.92438 -2.27515,-1.88143 -3.00812,-2.24403c-1.28074,-0.63099 -2.66027,-0.78506 -4.06862,-0.73837c-1.48542,0.04742 -3.05406,0.13924 -4.46086,0.64189c-1.33128,0.47546 -2.42995,1.42162 -3.38005,2.44011c-0.091,0.09575 -0.46374,-0.04587 -0.36644,-0.14784c1.12824,-1.21145 2.39342,-2.16155 3.9877,-2.66109c1.50172,-0.46915 3.31469,-0.50576 4.87948,-0.49716c1.34373,0.01089 2.69139,0.33925 3.88114,0.97106c0.76171,0.40535 2.76298,1.28541 2.92564,2.28604c0.02408,0.14702 -0.36964,0.07625 -0.38987,-0.05062zM215.53099,269.16943v0c0.04669,0.65122 0.02572,1.30171 0.35096,1.88922c0.37504,0.67227 1.62311,0.84346 2.3039,0.96795c1.43563,0.26611 2.90156,0.40461 4.35971,0.40223c1.62622,-0.00074 3.2594,-0.21631 4.84671,-0.57497c0.78358,-0.17741 1.53834,-0.45752 2.19112,-0.93216c0.65516,-0.47857 0.60151,-1.19753 0.79054,-1.897c0.0335,-0.12687 0.37275,-0.03112 0.3906,0.08092c0.20001,1.22235 0.10975,2.46967 -0.17503,3.67261c-0.10975,0.46219 -0.00704,0.57964 -0.40854,0.88777c-0.37734,0.28634 -0.8419,0.50732 -1.28697,0.66605c-2.52955,0.89718 -5.48942,1.04576 -8.14584,0.83567c-2.00208,-0.15947 -4.74564,-0.33065 -5.89796,-2.25099c-0.5789,-0.96254 -1.23562,-3.91226 0.46448,-4.17993c0.11753,-0.01556 0.46063,0.17192 0.24277,0.20615c-1.66201,0.26144 -0.72985,3.32869 -0.21787,4.17837c0.66449,1.10571 2.09308,1.35159 3.25866,1.57798c1.13373,0.22024 2.29694,0.29183 3.45163,0.31279c2.22617,0.04128 4.58069,-0.17503 6.69318,-0.92438c0.31206,-0.11278 0.60618,-0.29019 0.8917,-0.45596c0.59602,-0.34703 0.49413,-0.645 0.62952,-1.21538c0.25751,-1.09163 0.29797,-2.26188 0.1136,-3.36522c0.13072,0.02719 0.25988,0.05135 0.3906,0.08092c-0.21164,0.79128 -0.15955,1.36863 -0.81626,1.94057c-0.5649,0.49405 -1.34062,0.72437 -2.04246,0.922c-1.91338,0.53459 -3.98311,0.68243 -5.96021,0.64738c-1.57175,-0.02564 -3.22991,-0.22876 -4.74949,-0.63411c-0.55867,-0.14473 -1.08548,-0.38282 -1.51729,-0.76565c-0.56416,-0.50265 -0.48709,-1.44341 -0.53533,-2.12109c-0.01556,-0.15718 0.3766,-0.07781 0.38356,0.04824z" fill="#000000" stroke="none" stroke-width="0.95"></path><path d="M250.86741,261.38847c-0.01474,0.02334 0.0584,0.06921 0.1471,0.10115c-0.49258,0.43573 -1.68306,-0.817 -2.25263,-0.59446c-0.98892,0.29101 -0.83879,0.74926 -1.82148,1.15002c-1.12668,0.4567 -2.58098,1.28148 -3.77843,1.3873c-2.21446,0.19452 -3.48357,0.20157 -5.60155,0.18289c-2.25877,0 -1.66357,1.00063 -1.5951,1.31809c-1.634,1.02086 -3.56679,-0.2879 -3.98925,-1.31809c-0.79448,1.0107 -1.31809,0.57342 -0.97884,1.63474c0.64893,2.03238 0.0303,2.83538 -0.5735,2.90467c-0.3657,0.0412 -1.92656,-1.53989 -2.59106,-1.79044c-1.36945,-0.87532 -1.71025,-0.87843 -3.3481,-1.11808c-1.71648,-0.24899 -2.96692,-0.30034 -4.90044,0.22254c-1.73597,0.15873 -2.61751,2.04017 -3.75353,2.86339c-0.04284,-0.04669 -0.2381,-0.12761 -0.29183,-0.13072c-1.81526,-0.02416 -0.9306,-0.91742 -1.72966,-1.63793c-0.91348,-0.82011 -1.71574,-1.7585 -2.38097,-2.79181c-0.38282,-0.59676 -0.74542,-1.11268 -0.46997,-1.84482c0.15095,-0.40543 0.33925,-0.78825 0.60069,-1.13528c0.56719,-0.75475 1.24569,-1.41687 1.74678,-2.22453c0.00082,-0.01794 -0.00311,-0.02883 -0.0163,-0.04046c-0.64582,-0.50658 -1.26289,-0.83494 -0.46374,-1.46904c0.50027,-0.39527 0.30731,-0.49569 0.20853,-1.00219c-0.47931,-2.44871 0.49176,-5.00471 1.08696,-7.35538c1.31269,-5.19456 2.39342,-10.52992 2.7226,-15.88559c0,-0.00156 -0.00238,-0.00229 -0.00238,-0.00311c0.79054,-8.38394 1.5842,-16.7718 2.37475,-25.15344c0.12531,0.03964 0.01712,-0.17978 0.01712,-0.17978l0.91348,-10.52837c13.08216,-2.18882 23.87819,-2.09152 23.87819,-2.09152l0.94387,12.72497c-0.00311,0.00311 -0.01556,0.00311 -0.01556,0.00696c0.00622,6.39906 0.43573,12.78648 0.27151,19.18783c0,0.00467 0.00934,0.0086 0.01089,0.01327c-0.00074,0.00229 -0.00778,0.00229 -0.00696,0.00541c0.46063,2.16155 0.34859,4.25151 0.54229,6.42707c0.18052,2.05343 0.52214,4.10367 0.82945,6.13917c0.3105,2.05417 0.58906,4.07804 0.66376,6.15473c0.04046,1.18352 0.06692,2.6533 0.97024,3.53566c-0.27078,-0.05758 -0.5454,-0.09493 -0.82241,-0.10033c-0.19297,-0.00393 0.17118,0.15947 0.25366,0.15873c0.52288,0.01089 1.14691,0.19526 1.64563,0.5205c0.05373,0.03735 0.11131,0.07707 0.16651,0.11671c0.4739,0.36652 0.78981,0.87695 0.68399,1.52122c-0.09263,0.5649 -0.34236,1.04494 -0.55245,1.57093c-0.39609,0.99907 -0.43885,1.86432 0.52673,2.47123c1.094,0.69095 2.24403,1.15158 2.00282,2.70155c-0.18126,1.17263 -0.60225,2.38957 -1.27141,3.37464z" fill="#3d6767" stroke="none" stroke-width="0.95"></path><path d="M252.48585,257.10428c0.42722,1.31654 -0.50494,3.32787 -1.22783,4.39386c-0.01401,0.02023 -0.04669,0.02261 -0.07855,0.02416c-0.04513,0.11901 -0.49258,0.19837 -0.49258,0.19837l-0.01163,-0.03735c-0.56801,-0.08248 -1.15469,-1.08229 -1.55545,-0.80922c-1.27919,0.86991 -2.65642,1.5842 -4.10441,2.12813c-1.55775,0.58668 -3.11238,0.76253 -4.76194,0.75238c-1.80133,-0.01163 -3.68432,-0.16569 -5.36656,0.60536c-0.105,0.05135 -0.41624,-0.11049 -0.368,-0.13146c1.32972,-0.60929 2.76691,-0.65671 4.20483,-0.64975c1.95998,0.01016 3.76287,-0.00074 5.64815,-0.61314c0.92905,-0.3019 1.81452,-0.72518 2.67354,-1.18344c0.59913,-0.32058 1.30335,-1.01308 1.94368,-1.1936c0.16266,-0.04906 0.32213,-0.02416 0.47775,0.04824c0.27782,0.13383 0.82634,0.91889 1.06681,0.89948c0.02179,-0.00156 0.06069,0.00696 0.10582,0.02179l-0.00238,-0.00704l0.23032,-0.16029c0.66998,-0.98507 1.09089,-2.20201 1.27141,-3.37456c0.24121,-1.55078 -0.90882,-2.0106 -2.00282,-2.70155c-0.96558,-0.60691 -0.92282,-1.47216 -0.52673,-2.47123c0.21009,-0.52599 0.45981,-1.00612 0.55245,-1.57102c0.10582,-0.64426 -0.21009,-1.15469 -0.68399,-1.52114c-0.05291,-0.04046 -0.10893,-0.07937 -0.16651,-0.11671c-0.49798,-0.32524 -1.12275,-0.50969 -1.64563,-0.52059c-0.08248,0.00082 -0.44663,-0.16258 -0.25366,-0.15873c0.27774,0.00549 0.55163,0.04284 0.82241,0.10042c-0.90333,-0.88236 -0.92978,-2.35222 -0.97024,-3.53566c-0.0747,-2.07678 -0.35407,-4.09982 -0.66376,-6.15473c-0.30657,-2.03632 -0.64893,-4.08582 -0.82945,-6.13917c-0.1937,-2.17555 -0.08166,-4.26634 -0.54229,-6.42707c-0.00082,-0.00311 0.00622,-0.00311 0.00696,-0.00549c-0.00156,-0.00467 -0.01089,-0.00852 -0.01089,-0.01319c0.16422,-6.40061 -0.26529,-12.78804 -0.27151,-19.18783c0,-0.00393 0.01245,-0.00393 0.01556,-0.00704l-0.94387,-12.72497c0,0 -10.79685,-0.09648 -23.87819,2.09152l-0.91348,10.52845c0,0 0.1082,0.21942 -0.01712,0.1797c-0.79054,8.38164 -1.5842,16.76951 -2.37475,25.15353c0,0.00074 0.00238,0.00156 0.00238,0.00311c-0.32918,5.35559 -1.40991,10.69103 -2.7226,15.88559c-0.58202,2.29767 -1.51417,4.79225 -1.10801,7.19189c2.0853,0.63493 3.98622,2.06195 6.21936,2.07833c2.10708,0.0163 4.15888,-1.04887 6.15236,-1.59665c0.09419,-0.02572 0.43885,0.12056 0.32451,0.15251c-2.14287,0.58824 -4.32858,1.7585 -6.57957,1.60206c-2.20512,-0.15251 -4.03365,-1.45971 -6.09953,-2.09693c0.00156,0.00778 0.00156,0.01556 0.00311,0.02408c0.09886,0.50658 0.29183,0.60691 -0.20853,1.00219c-0.79906,0.63493 -0.18207,0.96328 0.46374,1.46904c0.01245,0.01171 0.01712,0.02334 0.01638,0.04046c-0.50036,0.80766 -1.17959,1.46904 -1.74686,2.22462c-0.26062,0.34703 -0.44974,0.72985 -0.60069,1.1352c-0.27545,0.73223 0.08797,1.24806 0.46997,1.8449c0.66605,1.03331 1.46749,1.97169 2.38097,2.79181c0.79988,0.7197 -0.08559,1.61377 1.72975,1.63785l0.47538,-0.1883c2.80426,-4.61795 10.96885,-3.636 14.22047,0.07003c0.60536,-0.37504 1.12201,-0.69406 0.95861,-1.52818c-0.14939,-0.76016 -0.4264,-1.18967 -0.36489,-1.91256c-1.03175,0.21402 -2.20283,-0.02334 -3.2182,-0.18748c-1.67602,-0.26848 -3.28512,-0.74779 -4.9993,-0.70029c-0.08092,0.00156 -0.44663,-0.15644 -0.2521,-0.16266c2.64241,-0.06765 5.15722,0.95706 7.79963,0.96566c0.03972,-0.18756 0.08092,-0.37586 0.11983,-0.5649c-0.25906,-0.1634 -0.53533,-0.29027 -0.82634,-0.38127c-0.4427,-0.15406 -0.87302,-0.31673 -1.32432,-0.45523c-0.69635,-0.21082 -1.40835,-0.368 -2.1156,-0.5291c-1.62548,-0.37267 -3.26415,-0.69324 -4.92149,-0.8808c-0.0996,-0.01089 -0.42328,-0.18748 -0.16725,-0.15873c2.08374,0.2358 4.1402,0.66998 6.17726,1.16174c1.15936,0.28011 3.01745,0.59291 3.86017,1.59821c1.65579,-1.36945 2.64552,-3.87958 1.93353,-5.97348c-0.30346,-0.89014 -1.32743,-1.08 -1.81141,-1.80207c-0.32598,-0.48471 -0.06225,-0.82396 0.24358,-1.26051c0.40461,-0.56875 0.16651,-1.23791 0.08559,-1.87906c0,-0.00156 -0.00238,-0.00238 -0.00238,-0.00311c0,-0.00549 0,-0.01245 0,-0.01949c-0.00311,-0.02801 -0.00852,-0.05602 -0.01089,-0.08403c0,-0.00229 0.00778,-0.00156 0.0086,-0.00385c-0.00082,-0.03039 -0.00238,-0.05995 -0.00238,-0.09026c-0.00778,-0.01016 -0.0163,-0.01949 -0.02408,-0.02957c-0.02179,-0.02727 -0.00778,-0.04128 0.02179,-0.04824c-0.13694,-6.7329 -0.71511,-13.50773 0.37815,-20.19706c0.00385,-0.01786 0.03112,-0.02564 0.0638,-0.02875c0.99596,-3.61503 1.5702,-7.31721 2.02378,-11.03421c0.22565,-1.85654 0.48791,-3.7193 0.60462,-5.5859c0.1136,-1.75538 0.08248,-3.38783 0.82634,-5.02576c0.03964,-0.09182 0.42017,0.04046 0.38823,0.1082c-0.68857,1.52114 -0.7446,3.05636 -0.80922,4.69503c-0.07158,1.84794 -0.36022,3.70218 -0.57579,5.53537c-0.46063,3.92316 -1.0551,7.83386 -2.12338,11.64342c-0.00311,0.01089 -0.02334,0.01089 -0.03579,0.0163c-1.04814,6.63175 -0.48168,13.349 -0.34703,20.02506c1.25896,1.58265 2.97388,3.48587 5.179,3.25866c0.08477,-0.01089 0.45048,0.14088 0.2544,0.16111c-2.23313,0.2295 -4.02275,-1.34922 -5.39294,-2.96766c0.091,0.57735 0.22172,1.11186 -0.11598,1.65652c-0.14161,0.22876 -0.28634,0.41706 -0.39838,0.66449c-0.21475,0.48791 0.55171,0.9252 0.84739,1.13839c0.66449,0.47693 1.0691,0.90259 1.24806,1.72188c0.35866,1.61844 -0.21009,3.39487 -1.252,4.6974c0.00238,0.00229 0.00934,0.00311 0.01089,0.00622c0.34162,0.48086 0.70495,0.91504 1.19982,1.24495c0.74623,0.49716 1.67061,0.23498 2.43233,-0.04824c0.08715,-0.03268 0.43729,0.10967 0.31984,0.15251c-1.72663,0.63493 -3.0494,0.19297 -4.13095,-1.16018c-0.23728,0.27233 -0.4902,0.52599 -0.76638,0.7423c-0.14243,0.94928 0.36726,1.60214 0.41002,2.52185c0.02883,0.62092 -0.79595,0.97106 -1.21538,1.23717c-0.08166,0.0498 -0.30419,-0.01089 -0.36177,-0.08092c-3.06725,-3.79481 -11.1859,-4.67635 -13.79489,0.07699c-0.0552,0.08952 -0.3657,-0.02646 -0.38438,-0.091c-0.04587,0.0163 -0.091,0.03186 -0.13383,0.04587c0.03506,0.01712 0.06462,0.03506 0.07863,0.0498c0.01712,0.01867 0.01089,0.03112 -0.03817,0.03194c-0.00229,0 -0.00229,0.00074 -0.00541,0.00074c-0.03194,-0.00074 -0.06307,-0.00311 -0.09493,-0.00385c-0.49724,-0.01401 -0.96795,-0.09182 -1.33832,-0.34318c-0.00549,-0.00311 -0.01016,-0.00778 -0.01482,-0.01089c-0.20542,-0.14235 -0.38127,-0.33614 -0.50887,-0.60921c-0.29101,-0.62796 -0.46841,-0.92364 -0.98892,-1.43636c-0.68554,-0.67776 -1.26756,-1.45348 -1.79978,-2.25418c-0.22638,-0.33843 -0.43262,-0.68939 -0.63878,-1.03872c-0.1245,-0.20935 0.17659,-0.88236 0.25677,-1.09015c0.23883,-0.64033 0.72518,-1.18426 1.16321,-1.69625c0.27626,-0.32213 0.55327,-0.64115 0.80766,-0.98269c0.38594,-0.51821 -0.13146,-0.68006 -0.46997,-0.99367c-0.263,-0.24432 -0.23572,-0.50961 0,-0.74853c0.31279,-0.31435 0.82404,-0.47693 0.58668,-1.01619c-0.32442,-0.73682 -0.25522,-1.60517 -0.17814,-2.4012c0.20927,-2.25492 1.00292,-4.47094 1.5344,-6.6605c1.13758,-4.70043 2.05262,-9.53396 2.34829,-14.36831c0,-0.00074 -0.00156,-0.00156 -0.00156,-0.00229c0.36104,-3.82282 0.72207,-7.64483 1.08311,-11.46757c0.0638,-0.67621 0.12761,-1.35159 0.19141,-2.02698c0.37349,-3.94806 0.74615,-7.89611 1.1189,-11.84261l0.96402,-10.81241c0,0 14.63835,-2.43233 24.6073,-2.09152l0.92978,13.22844c0.00704,6.3975 0.43655,12.78255 0.27233,19.18078c0.35407,1.66594 0.46612,3.30306 0.47464,5.00086c0.01016,2.16384 0.449,4.30672 0.74075,6.44418c0.28871,2.10626 0.70029,4.20638 0.79448,6.33599c0.06225,1.40213 -0.13154,3.32402 0.95083,4.40246c0.03964,0.03972 0.06765,0.08559 0.11123,0.12294c0.01867,0.00622 0.03817,0.01482 0.05684,0.02179c0.51895,0.18363 1.00292,0.45752 1.3982,0.8559c1.09015,1.09482 -0.21238,2.64012 -0.41083,3.80955c-0.2793,1.65734 2.28916,1.80133 2.75446,3.22991z" fill="#000000" stroke="none" stroke-width="0.95"></path><path d="M233.18679,151.64748c-3.45089,0.17274 -5.41792,-1.94213 -6.06374,-2.78869l0.17118,-2.24091l0.05684,-0.75557c0.04898,0.02646 0.09722,0.05373 0.14702,0.07781c1.89388,0.92282 4.29975,1.94524 6.4364,1.98726c0.0335,0.00082 0.05684,-0.00229 0.07314,-0.00622c0.00082,0 0.00156,0 0.00156,0c0.53066,-0.12523 1.03798,-0.36333 1.51884,-0.65589c0.01712,1.78724 1.56168,1.54374 1.9196,1.46282c-0.15406,0.85042 -0.87302,2.74979 -4.26085,2.91941z" fill="#a86c35" stroke="none" stroke-width="0.95"></path><path d="M227.29505,146.61787l-0.17822,2.33502l-0.15947,-0.2295l-0.0996,-0.14317l0.19452,-2.25418l0.12138,-0.72985l0.19452,0.04906l-0.01638,0.21631l-0.05676,0.75631" fill="#000000" stroke="none" stroke-width="0.95"></path><path d="M237.52389,148.70939c0,0 -1.97562,0.57808 -1.99504,-1.44496c-0.00082,-0.07937 -0.00467,-0.15406 0.00074,-0.24121h0.19452c0,0 -0.21082,1.8807 1.78339,1.50795l0.01401,0.14939l0.00238,0.02883z" fill="#000000" stroke="none" stroke-width="0.95"></path><path d="M218.89318,206.7553c0,-0.00082 -0.00082,-0.00082 -0.00082,-0.00238c0.02801,-2.33895 0.49331,-4.64056 0.67072,-6.96625c0.08092,-0.42173 0.12376,-0.82871 0.15021,-1.33603c-0.02416,-0.25988 0.02564,0.10197 0.24743,-0.15636c0.17659,-0.20542 0.28011,0.24588 0.58357,0.34081c0.4404,0.14079 1.24028,0.36415 1.68609,0.46997c0.98974,0.23965 2.3849,0.55007 3.41273,0.55007c2.3849,0 4.57291,-0.02646 6.94217,-0.31279c2.75683,-0.33302 4.64294,-1.10408 7.25652,-1.99889c2.07366,-0.71118 4.16363,-2.25648 6.24114,-2.96299c0.23883,0.64893 0.22483,1.41687 0.28085,2.09774c0.07158,0.88392 0.22647,1.7639 0.34629,2.64241c0.25988,1.90945 0.54311,3.808 0.99752,5.67854c-0.02801,0.02801 -0.03661,0.06536 0.0249,0.1136c0.00074,0.00074 0.00074,0.00074 0.00074,0.00156c0.00549,0.01941 0.00934,0.03964 0.01401,0.05914c0.00934,0.03809 0.0498,0.06454 0.09648,0.08322c0.02727,0.05602 0.03661,0.11753 0.03039,0.18207c-0.00156,0.02179 -0.00704,0.04513 -0.00934,0.06774c-0.24203,0.97336 -3.64386,2.63774 -3.90293,2.73496c-2.42848,0.92905 -4.98374,1.33366 -7.55842,1.60443c-0.55949,-0.50806 -0.27856,-2.20823 -0.25915,-2.84701c0.05062,-1.60288 -0.23965,-3.18945 -0.50732,-4.76194c-0.01786,-0.09886 -0.27545,-0.17667 -0.29486,-0.05135c-0.19452,1.28148 -0.56883,2.53037 -0.75557,3.822c-0.10271,0.7088 -0.22327,1.41376 -0.31353,2.12338c-0.08174,0.64271 -0.29961,1.252 -0.37586,1.88848c-0.00156,0.00696 0.00778,0.01245 0.0086,0.01941c-3.13572,0.12916 -6.23566,-0.2544 -9.32781,-0.73297c-0.55794,-0.08559 -1.25044,-0.14473 -1.96162,-0.24743c-0.66761,-0.11434 -1.36011,-0.26218 -1.98103,-0.47693c-0.80684,-0.31673 -1.46667,-0.80922 -1.74211,-1.62622z" fill="#c0e1e1" stroke="none" stroke-width="0.95"></path><path d="M248.0204,204.90105c0.71503,0.84501 -1.77488,2.27515 -2.32184,2.59106c-2.77239,1.61999 -6.22476,2.04721 -9.35893,2.36934c-0.10115,0.01163 -0.22335,-0.09575 -0.18912,-0.15718c-0.48316,-0.51436 -0.33843,-1.65038 -0.32598,-2.2573c0.03112,-1.5258 -0.11286,-2.99485 -0.33614,-4.48412c-0.00311,-0.01556 -0.00549,-0.03194 -0.00778,-0.04824c-0.00311,0.01474 -0.00549,0.02957 -0.0086,0.04513c-0.19608,0.97262 -0.44425,1.93901 -0.59446,2.92793c-0.10582,0.70889 -0.22172,1.41384 -0.31279,2.12346c-0.08092,0.63804 -0.29723,1.2434 -0.37267,1.87677c0.07232,0.05602 0.10582,0.13694 -0.02416,0.14317c-3.61347,0.17118 -7.12735,-0.40772 -10.69332,-0.89252c-1.69707,-0.23105 -4.23284,-0.50494 -4.8771,-2.40431c0,-0.00229 -0.00238,-0.00311 -0.00238,-0.00467c0.00393,-0.31353 0.01867,-0.62633 0.03661,-0.93912c0.07077,-1.24962 0.23654,-2.49146 0.3929,-3.73412c0.17118,-1.36085 0.32524,-2.72333 0.3105,-4.09974c-0.00156,-0.14243 0.29641,-0.09026 0.29797,0.02801c0.00622,0.60298 -0.0249,1.20367 -0.07077,1.80281c-0.17741,2.32577 -0.64271,4.62737 -0.67072,6.96633c0.00074,0.00074 0.00156,0.00074 0.00156,0.00156c0.27463,0.817 0.93527,1.30949 1.74211,1.62622c0.61003,0.23883 1.30253,0.37971 1.98103,0.47693c0.71118,0.10197 1.40368,0.16184 1.96162,0.24743c3.09215,0.47857 6.19282,0.86213 9.32781,0.73297c-0.00082,-0.00622 -0.00934,-0.01163 -0.0086,-0.01941c0.07552,-0.6373 0.29412,-1.24577 0.37586,-1.88848c0.09026,-0.70962 0.21082,-1.41458 0.31353,-2.12338c0.18756,-1.29164 0.56105,-2.54052 0.75557,-3.822c0.01941,-0.12605 0.27774,-0.0475 0.29486,0.05135c0.26693,1.57249 0.55712,3.15825 0.50732,4.76194c-0.01941,0.63878 -0.30034,2.33895 0.25915,2.84701c2.57468,-0.27078 5.12994,-0.67612 7.55842,-1.60443c0.25906,-0.09722 3.6609,-1.76161 3.90293,-2.73496c0.00541,-0.02334 0.00696,-0.04595 0.00934,-0.06774c0.00622,-0.06454 -0.00311,-0.12605 -0.03039,-0.18207c-0.04669,-0.01867 -0.08715,-0.04431 -0.09648,-0.08322c-0.00467,-0.01949 -0.00852,-0.03972 -0.01401,-0.05914c0,-0.00082 0,-0.00082 -0.00074,-0.00156c-0.06151,-0.04906 -0.05291,-0.08641 -0.0249,-0.1136c-0.45441,-1.87054 -0.73763,-3.76909 -0.99752,-5.67854c-0.11983,-0.87769 -0.27389,-1.75776 -0.34629,-2.64241c-0.05602,-0.68087 -0.0412,-1.44881 -0.28085,-2.09774c-0.00549,-0.01482 -0.00778,-0.03039 -0.01327,-0.04513c-0.05987,-0.14939 0.23343,-0.13228 0.27626,-0.02261c0.47071,1.20449 0.382,2.81908 0.55785,4.09278c0.29805,2.17949 0.59135,4.35733 1.11661,6.49554z" fill="#000000" stroke="none" stroke-width="0.95"></path><path d="M264.85445,165.76131c3.07503,4.21343 -5.62325,8.71622 -6.59825,9.60563c-0.4069,0.3657 -1.47756,0.93216 -2.01838,1.25585c-0.88154,0.52673 -0.88154,0.52673 -1.43948,0.51043c-1.06755,0.29412 -0.30886,0.36644 -1.06755,0.29412c-0.99285,-0.09337 -1.01308,-0.21246 -1.96154,-0.47546c-0.90882,-0.25128 -1.77799,-1.04887 -2.5397,-1.56315c-1.34226,-0.90882 -1.63867,-2.43233 -2.05188,-2.6479c-0.96173,-0.50027 -2.11716,-4.97121 -2.60973,-4.96425c0.02883,0.32058 -0.2435,4.12784 -0.14939,4.46397c0.1331,0.47308 0.91742,4.27641 1.06132,4.7798c0.2716,0.95165 1.78266,4.62967 2.05417,5.337c0.26144,0.68857 0.62248,1.60673 0.95632,2.26114c0.27307,0.53607 0.63959,1.56708 0.69717,2.14517c0.1299,1.30098 -0.23498,1.74916 -0.84116,2.8276c-0.26996,0.48168 -0.75393,0.82478 -0.98892,1.26445c-0.24203,0.45203 0.28945,0.72437 0.37267,1.19515c0.06069,0.33687 0.22647,1.23406 0.00311,1.52114c-0.19526,0.24899 -0.90644,0.35792 -1.2185,0.55171c-1.1936,0.7337 -2.33273,1.39435 -3.61192,1.97325c-1.2737,0.57653 -2.86413,1.32972 -4.2095,1.73515c-1.41302,0.42951 -2.60973,0.63959 -4.00252,1.11579c-1.45733,0.49872 -3.20649,0.50576 -4.74867,0.50576c-2.48368,0 -4.56824,0.6201 -6.88229,-0.10975c-0.85124,-0.26996 -2.07047,-0.18207 -3.096,-1.04805c-0.46612,-0.3906 -1.70714,-0.53066 -1.48076,-1.0551c0.14006,-0.32762 0.0389,-1.28312 0,-2.17637c-0.2186,-0.36259 0.70495,-1.35233 0.3603,-1.64719c0.09493,-0.04906 0.25595,-0.12376 0.44663,-0.21164l0.17814,-4.71608l-0.20853,-0.55556c-0.13301,0.44818 -0.2933,0.88703 -0.48782,1.31113c-0.78899,1.71099 -2.33584,4.12857 -4.54563,3.82274c-0.02261,-0.00311 -0.02646,0.00393 -0.04357,0.00393c-3.52322,-0.12761 -5.5144,-4.6725 -7.00523,-7.29002c-1.02627,-1.80592 -2.05884,-3.62666 -3.29052,-5.30661c-1.06443,-1.44955 -1.94679,-2.99329 -2.39342,-4.74949c-0.00082,-0.00074 0,-0.00074 0,-0.00074c-0.27389,-1.37338 1.05428,-2.99493 1.73278,-4.07878c0.98507,-1.56946 1.69936,-3.31313 2.64946,-4.91289c1.22702,-2.06744 2.39883,-4.1737 3.66016,-6.22247c1.20678,-1.95613 2.47123,-3.87721 3.56368,-5.90263c0,-0.00074 -0.00082,-0.00156 -0.00082,-0.00156c2.05966,-4.23046 6.53838,-3.75894 10.40395,-4.92764c0.09411,0.00385 0.2132,-0.06225 0.2132,-0.06225l2.94898,-0.84272c0.12916,0.12998 1.9771,3.37226 6.48383,3.14506c4.50599,-0.2272 4.60403,-3.33958 4.60403,-3.33958l2.77624,0.37193c0.41239,0.09419 0.82085,0.20697 1.22235,0.34236c1.47216,0.50421 2.886,1.21383 4.14962,2.12731c1.78651,1.28934 3.3318,2.91712 4.47716,4.80707c0.73215,1.21538 1.26207,2.53659 2.03001,3.73101c0.7034,1.09007 1.4706,2.13509 2.08611,3.27652c-2.37245,-0.88547 -4.62344,0.19297 -5.69877,2.47123c-0.04669,0.09886 0.33458,0.22647 0.39134,0.10582c0.97106,-2.05646 3.01516,-3.30142 5.26852,-2.40505c0.04046,0.01556 0.08477,0.02097 0.12523,0.02023c-0.00934,0.0163 -0.01712,0.03268 -0.02646,0.04898c-2.26114,-0.38045 -4.33162,2.04565 -4.62262,4.1239c-0.01638,0.13072 0.3766,0.21787 0.39134,0.10508c0.24743,-1.77561 2.09856,-4.33637 4.13791,-4.06477c-0.43885,0.75164 -0.99047,1.40368 -1.90633,1.58027c-0.2132,0.04284 0.13621,0.21402 0.24277,0.19379c2.67124,-0.51354 2.45182,-4.27641 4.98063,-5.09652l-0.0389,-0.18207c0.02801,-0.00393 0.05209,-0.00311 0.07855,-0.00704c-0.07388,0.14784 0.09182,0.10426 0.09182,0.10426c0.26693,-0.12138 2.26114,-0.41313 4.10916,1.65349c0.36726,0.41083 0.66834,0.79595 0.93756,1.16247c-0.76171,-0.69488 -2.61669,-2.08374 -4.79069,-1.57953c-0.03735,0.08166 -0.08248,0.15873 -0.14399,0.22172c-1.27296,1.29631 -2.23002,2.60121 -1.56471,4.06944c0.49176,1.08393 2.04017,2.44871 2.98633,2.69303c5.40227,1.40753 4.58216,-3.82905 5.41161,-2.69303zM219.60436,184.80834l0.28552,-0.8419c-0.0303,-0.18207 -0.06765,-0.35874 -0.13301,-0.51125c-0.0475,-0.11671 -0.435,-0.16029 -0.38831,-0.05758c0.1471,0.34392 0.18134,0.97811 0.23343,1.37567c0.00156,0.01171 0.00082,0.02334 0.00238,0.03506zM213.62081,175.35604c-0.04128,0.01556 -0.04128,0.0389 -0.02105,0.06765c0.10664,-0.09878 0.30116,-0.17036 0.02105,-0.06765zM218.20141,180.57002c0.50036,0.09337 1.02553,0.34162 1.05043,0.36259c0.26144,0.27078 0.63026,0.48791 0.51666,0.2109c-0.0996,-0.24203 0.16266,-0.63026 0,-0.85902c-0.08248,-0.18519 0.06847,-0.69799 -0.00467,-0.88547c-0.02097,-0.65516 0.08715,-0.3603 0.08715,-0.81004c0,-0.3431 -0.1136,-0.9329 -0.1136,-0.93601c-0.02252,-0.44663 0.01482,-0.22098 -0.07937,-0.65982c0.01949,-0.14939 -0.09648,-0.63108 -0.10115,-0.78514c0.04128,-0.38905 -0.10738,-0.36726 -0.10271,-0.76016c0.00311,-0.12761 -0.07158,-0.46219 -0.15947,-0.47931c0.00622,-0.36882 -0.20075,-0.55482 -0.21787,-0.91193c-0.0335,-0.62796 -0.37275,-0.96721 -0.56023,-1.5702c-0.62796,-2.03632 -0.85746,-0.81004 -0.89407,-1.38501c-0.01474,-0.11286 -0.0412,0.2272 -0.12761,0.20075c-0.01556,-0.25677 0,0 -0.07077,0.25988c-0.06929,0.11901 -0.09804,0.22794 -0.15177,0.35014c-0.04046,0.06921 0,0 -0.04046,0.07003c-0.0163,0.0303 0.02572,0.24817 0.02179,0.27618c-0.08166,0.17044 -0.13694,0.15406 -0.20542,0.32991c-0.0303,0.06536 -0.25677,0.21869 -0.28167,0.28871c0,0 -0.15251,0.24506 -0.15636,0.26062c-0.11442,0.39454 -0.1634,0.01245 -0.2716,0.40543c-0.00778,0.03112 -0.48471,0.56875 -0.49249,0.59987c-0.28405,0.42255 -0.34236,0.31361 -0.62248,0.52059c-0.97573,0.48086 -0.53459,0.27078 -0.53533,0.27307c-0.10975,0.1245 0.05447,0.6038 0,0.75868c-0.04669,0.05987 -0.04439,0.15562 -0.09026,0.21787c-0.0086,0.01245 -0.04202,0.00622 -0.08485,-0.0086c-0.00074,-0.01786 -0.01941,-0.03964 -0.01786,-0.02719c-0.00704,0.00541 -0.08174,-0.02261 -0.17274,-0.05684c-0.20624,-0.10271 -0.47079,-0.25055 -0.63181,-0.31591c0.08715,0.06151 0.20697,0.12998 0.277,0.18986c-0.25988,0.03661 -0.16422,0.11827 0.12212,0.11753c0.0475,0 0.05602,0.12368 0.08797,0.10345c0.06921,0.05135 0.07855,0.15251 0.14784,0.20001c-0.02416,0.21238 -0.12605,0.14784 0.04742,0.27307c0.0833,0.06225 0.22958,0.38282 0.31746,0.435c0.0747,0.27307 0.17741,0.57735 0.33696,0.79439c0.04202,0.05529 0.20771,0.4653 0.26218,0.47619c0.27233,0.39609 0.24203,0.10582 0.32451,0.49642c0.02801,0.13228 0.21705,0.46219 0.32131,0.44589c0.08174,0.11278 0.0973,0.14546 0.19452,0.24817c0.38364,0.41165 -0.25055,0.05217 0.25448,0.30501c0.35014,0.17274 -0.04513,0.37897 0.33458,0.34941c0.21705,0.0163 0.1136,0.19608 0.33376,0.19452c0.18052,0.04202 0.21009,0.24973 0.37275,0.3517c0.04275,0.02408 0.73059,0.0887 0.77572,0.08477z" fill="#302d63" stroke="none" stroke-width="0.95"></path><path d="M260.72202,166.44996c1.26518,0.48627 2.58172,0.21238 3.61266,-0.56801c-0.30346,1.1601 -0.95779,2.26114 -2.17318,2.63381c-0.30739,0.09493 -0.62403,0.14243 -0.9415,0.15562c-0.36341,0.01482 -0.72912,-0.01867 -1.08778,-0.09722c-0.65286,-0.14317 -1.28001,-0.42566 -1.81607,-0.80766c-0.21713,-0.15488 -0.42951,-0.32836 -0.63181,-0.51747c-0.01712,-0.0163 -0.03506,-0.03424 -0.05291,-0.05054c-0.61781,-0.59446 -1.10801,-1.34455 -1.18893,-2.20357c-0.13383,-1.4294 0.78194,-2.5257 1.87677,-3.32017c0,0 2.77387,-0.37037 5.25444,2.27982l-0.00622,-0.01319c0.43729,0.7034 0.66998,1.22783 0.77031,1.47756c-1.15158,1.08778 -2.77854,1.45504 -4.20401,0.55327c-1.09245,-0.68939 -2.10168,-1.92656 -1.48772,-3.26571c0.04513,-0.0996 -0.33696,-0.22638 -0.3906,-0.10345c-0.80455,1.75383 0.99596,3.28045 2.46656,3.8469z" fill="#c0e1e1" stroke="none" stroke-width="0.95"></path><path d="M264.77123,165.559c1.45659,1.0777 0.94068,2.88673 0.09804,4.21343c-1.30253,2.04713 -3.24621,3.70996 -5.41481,4.78529c-0.00311,0.00156 -0.00778,0.00074 -0.01089,0.00156c-0.39757,0.35948 -0.80299,0.70962 -1.22702,1.03716c-1.4403,1.11505 -3.11942,1.69707 -4.91134,1.92427c-0.01401,0.00156 -0.03424,-0.00082 -0.05529,-0.00467c-0.02646,0 -0.04898,0.00385 -0.08559,-0.00622c-2.08841,-0.58595 -3.87647,-1.6037 -5.22413,-3.32558c-1.37641,-1.75931 -2.23469,-3.90686 -3.2291,-5.90812c-0.29256,2.89607 -0.00622,5.61629 0.84657,8.43537c0.96795,3.1933 2.60433,6.13057 3.63993,9.29119c0.70029,2.13665 -0.51043,3.51077 -1.82386,4.87088c0.31902,0.65516 1.25666,2.59188 0.38209,3.10927c-0.04906,0.02883 -0.14317,0.01089 -0.22491,-0.01941c-1.26985,0.30264 -2.28138,0.93994 -3.39872,1.62384c-1.18737,0.7283 -2.54282,1.16559 -3.82823,1.68617c-2.81277,1.13987 -5.4832,1.95302 -8.5131,2.19578c-2.9023,0.23187 -5.83727,0.48471 -8.72245,-0.03506c-1.50566,-0.27078 -3.20264,-0.8084 -4.42351,-1.79273c-0.12679,0.00238 -0.30886,-0.0747 -0.2793,-0.15169c0.22638,-0.60225 -0.0584,-1.43481 -0.07863,-2.05884c-0.02179,-0.80144 0.06307,-1.60992 0.72985,-2.13976l0.35792,-4.4865c-0.16102,0.40772 -0.33614,0.8084 -0.53451,1.1936c-0.84427,1.64096 -2.34518,3.41428 -4.34259,3.27578c-0.01401,0.00229 -0.02564,0.00467 -0.04513,0.00467c-0.09255,-0.00082 -0.1797,-0.01327 -0.26996,-0.01949c-0.00622,0 -0.01245,-0.00074 -0.01867,-0.00074c-1.1275,-0.07625 -2.08996,-0.52755 -2.92334,-1.19827c-1.41458,-1.13839 -2.4673,-2.88755 -3.36137,-4.42892c-0.10033,-0.17274 -0.19837,-0.34318 -0.29486,-0.50969c-0.38438,-0.66212 -0.76409,-1.32661 -1.14536,-1.99037c-0.5789,-1.00686 -1.16952,-2.00593 -1.79273,-2.98551c-0.24121,-0.37815 -0.48168,-0.75631 -0.73534,-1.12668c-1.16788,-1.70558 -2.28604,-3.29994 -2.80737,-5.34478c-0.00074,-0.00229 -0.00467,-0.00311 -0.00467,-0.00467c-0.24588,-1.24028 0.78432,-2.61907 1.40368,-3.60799c0.97033,-1.55463 1.7087,-3.23221 2.62062,-4.82501c1.25666,-2.18874 2.53192,-4.37674 3.83994,-6.536c1.24806,-2.0658 2.59335,-4.07173 3.74419,-6.19593c0,-0.00082 -0.00082,-0.00156 -0.00082,-0.00156c0.95239,-1.95769 2.51325,-3.1435 4.57446,-3.76754c1.91567,-0.57972 3.94257,-0.65598 5.86135,-1.22161c0.08641,-0.02572 0.17356,-0.04669 0.25915,-0.07396l3.31075,-0.97418l0.17044,0.04824c0,0 0.08166,0.13465 0.24195,0.34474c0.64508,0.84657 2.61211,2.96143 6.06292,2.78869c3.38783,-0.16962 4.10679,-2.069 4.26085,-2.91941c0.04202,-0.23032 0.04439,-0.38831 0.04439,-0.40854c0,0 2.52881,0.2272 3.14506,0.38905l-0.03268,0.07314c0.31124,0.05684 0.62248,0.13694 0.93216,0.2272c1.60673,0.46768 3.16996,1.33759 4.49117,2.24091c1.4706,1.0053 2.73496,2.27286 3.80407,3.69055c0.14088,0.18674 0.27471,0.37889 0.40928,0.57112c0.11049,0.15873 0.23269,0.31042 0.33851,0.47226c0.6038,0.9252 1.06288,1.92812 1.57716,2.90156c0.19223,0.36489 0.39216,0.72674 0.61085,1.07762c0.01556,0.02572 0.03186,0.05062 0.04824,0.07552c0.64271,1.02242 1.35544,1.99348 1.94753,3.04546c0.16029,-0.31361 0.31206,-0.62952 0.47079,-0.92282c0.32524,-0.59995 0.71658,-1.10956 1.20678,-1.49239c0.17044,-0.1331 0.35096,-0.2521 0.54704,-0.35096c0.27307,-0.13768 0.57268,-0.24195 0.90488,-0.30501c0,0 1.86202,-0.72748 4.34259,1.60681c2.25648,2.1242 1.84949,2.89992 2.35681,3.6998c0.12687,0.02416 0.26537,0.10115 0.20779,0.16029c-0.01712,0.01712 -0.03579,0.03194 -0.05373,0.04824c0.00778,0.01089 0.01482,0.02023 0.02416,0.03112zM264.33861,165.41894c-0.10042,-0.25055 -0.33302,-0.77416 -0.76876,-1.47682l0.00622,0.01327c-2.48057,-2.65101 -5.25452,-2.27982 -5.25452,-2.27982c-1.09474,0.79439 -2.0106,1.89077 -1.87677,3.32009c0.08018,0.85902 0.57112,1.6091 1.18893,2.20357c0.01712,0.01712 0.03579,0.03424 0.05291,0.05062c0.20157,0.18904 0.41477,0.36259 0.63181,0.51739c0.53615,0.38209 1.16329,0.66449 1.81607,0.80766c0.35792,0.07781 0.72363,0.11205 1.08778,0.0973c0.31746,-0.01327 0.63419,-0.06069 0.9415,-0.15562c1.2162,-0.37275 1.8698,-1.47371 2.17326,-2.63389c-1.03257,0.77965 -2.34911,1.05354 -3.61429,0.56727c-1.4706,-0.56572 -3.27111,-2.09308 -2.46656,-3.8469c0.05373,-0.12294 0.43573,0.00385 0.3906,0.10345c-0.61388,1.33832 0.39527,2.5755 1.48772,3.26571c1.42547,0.90177 3.05251,0.53377 4.20409,-0.55327zM264.07168,170.26574c0.89874,-1.19515 1.87677,-3.16529 0.68317,-4.40795c-0.32991,1.37412 -1.11423,2.53192 -2.55371,2.90696c-1.21694,0.31673 -2.54355,-0.04046 -3.62666,-0.60921c-1.1189,-0.58824 -2.09308,-1.58191 -2.44559,-2.81286c-0.4513,-1.57642 0.61863,-2.9412 1.8223,-3.81652c0.01867,-0.01245 0.0498,-0.01171 0.07863,-0.01245c0.00074,-0.00311 0,-0.01245 0,-0.01327c0,-0.00074 0,-0.00467 0,-0.00467c2.23231,-0.5952 4.14725,0.8419 4.92534,1.55152c-0.26922,-0.36726 -0.57038,-0.75238 -0.93765,-1.16247c-1.52507,-1.70558 -3.14662,-1.80436 -3.81807,-1.71877c-0.00549,0.0163 -0.02023,0.02957 -0.06307,0.03809c-0.05054,0.00934 -0.09337,0.02801 -0.14161,0.03972c-2.77158,0.66294 -2.45018,4.64056 -5.19923,5.16966c-0.10656,0.02023 -0.45596,-0.15095 -0.24277,-0.19379c0.91586,-0.17585 1.46749,-0.82863 1.90633,-1.58027c-2.03935,-0.27078 -3.89048,2.28916 -4.13791,4.06477c-0.01474,0.11205 -0.40772,0.02564 -0.39134,-0.10508c0.29101,-2.07825 2.36148,-4.50435 4.62262,-4.1239c0.00934,-0.0163 0.01712,-0.03268 0.02646,-0.04898c-0.04046,0.00156 -0.08477,-0.00393 -0.12523,-0.02023c-2.25263,-0.89637 -4.29746,0.34859 -5.26852,2.40505c-0.05676,0.12065 -0.43885,-0.00696 -0.39134,-0.10582c1.07533,-2.27826 3.32632,-3.35744 5.69877,-2.47123c-0.61551,-1.14142 -1.38345,-2.18645 -2.08611,-3.27652c-0.76794,-1.19442 -1.29786,-2.51562 -2.03001,-3.73101c-1.14536,-1.88995 -2.69065,-3.51773 -4.47716,-4.80707c-1.26363,-0.91266 -2.67747,-1.62311 -4.14962,-2.12731c-0.40068,-0.13457 -0.80996,-0.24817 -1.22235,-0.34236l-2.77624,-0.37193c0,0 -0.09804,3.11238 -4.60403,3.33958c-4.50591,0.22647 -6.35393,-3.01508 -6.48383,-3.14506l-2.94898,0.84272c0,0 -0.11909,0.0661 -0.2132,0.06225c-3.86558,1.1687 -8.34511,0.69717 -10.40395,4.92764c0,0.00082 0.00082,0.00156 0.00082,0.00156c-1.09245,2.02542 -2.35689,3.9465 -3.56368,5.90263c-1.26133,2.04877 -2.43314,4.15503 -3.66016,6.22247c-0.94928,1.59894 -1.66357,3.3427 -2.64946,4.91289c-0.67924,1.08311 -2.00749,2.70466 -1.73278,4.07878c0,0.00074 0,0.00074 0,0.00074c0.44736,1.75694 1.32972,3.30068 2.39342,4.74949c1.23168,1.67995 2.26499,3.50069 3.29052,5.30661c1.49083,2.61751 3.48202,7.16159 7.00523,7.29002c0.01712,0 0.02097,-0.00704 0.04357,-0.00393c2.20979,0.30583 3.75664,-2.11175 4.54563,-3.82274c0.42091,-0.9166 0.69562,-1.90093 0.83174,-2.89918c0.0724,-0.52132 0.07085,-1.05125 0.00082,-1.57257c-0.05291,-0.39757 -0.08715,-1.03249 -0.23343,-1.37567c-0.04669,-0.10271 0.33999,-0.05914 0.38823,0.05758c0.08797,0.20697 0.1331,0.4513 0.16578,0.70266c0.03735,0.29101 0.05602,0.59053 0.09026,0.85435c0.0638,0.47619 0.02875,0.96402 -0.02023,1.4371c-0.03112,0.28011 -0.07937,0.55712 -0.14161,0.83182c0.37815,-0.74001 0.94305,-2.20201 0.97573,-4.43359c0,0 0.01163,-0.04128 0.03112,-0.08797c-0.06536,-0.01867 -0.12605,-0.04513 -0.14473,-0.08403c-0.54082,-1.10719 -1.45119,-1.83164 -2.67509,-2.04557c-0.34162,-0.05995 -1.49165,-0.18986 -1.71263,0.22794c-0.06454,0.11983 -0.4404,-0.01474 -0.39216,-0.10656c0.16651,-0.31361 0.65204,-0.39454 1.14224,-0.3906c-0.63493,-0.45752 -1.13053,-1.05903 -1.5842,-1.69625c-0.6536,-0.9143 -0.90259,-2.1079 -1.66275,-2.92564c-0.32369,-0.25915 -0.59217,-0.61085 -0.90103,-0.87302c-0.5237,-0.44818 -1.19286,-0.68006 -1.84646,-0.85902c-0.23105,-0.06225 -0.18674,-0.23187 0.04595,-0.16807c0.61936,0.16962 1.24258,0.37578 1.77479,0.74075c0.29961,0.20386 0.55949,0.4318 0.81004,0.69013c0.15636,0.16111 0.82478,0.8256 0.77965,0.22647c-0.05758,-0.76024 -1.00145,-1.55619 -1.49083,-2.08218c-0.10271,-0.11049 0.28478,-0.07552 0.36022,0.00622c0.32606,0.34621 0.64426,0.69717 0.93765,1.0714c0.0747,0.09648 0.16807,0.2132 0.25751,0.34081c2.1328,-0.89014 2.87822,-3.82274 3.69055,-5.7688c0.43573,-1.04887 0.86287,-2.09774 1.40909,-3.096c0.37349,-0.68243 0.85672,-1.48927 1.62155,-1.7671c0.10115,-0.03579 0.45834,0.1245 0.31206,0.17822c-1.02397,0.37422 -1.57413,1.70321 -2.01297,2.60818c-0.4513,0.93445 -0.83019,1.90633 -1.22783,2.86339c-0.11049,0.2684 -0.22327,0.55474 -0.33769,0.84657c1.46519,-0.62248 2.27908,-2.33895 2.92334,-3.69055c0.05602,-0.12138 0.43647,0.00467 0.3906,0.10508c-0.7011,1.47216 -1.5928,3.36293 -3.27816,3.88188c-0.0163,0.00467 -0.03809,0.00393 -0.06225,0.00156c0.76876,1.33914 1.23562,3.00427 1.63949,4.4842c0.50961,1.85654 0.32524,3.8881 0.31509,5.79132c0.48324,0.38364 0.87851,0.87851 1.16403,1.46126c0,0 0.24825,3.0494 -1.47527,5.51358l-0.12056,2.56698l3.54811,2.00044c2.68132,1.60599 5.51981,3.09682 8.67265,3.43451c3.01901,0.32213 5.92286,-0.79833 8.51703,-2.23231c0.09878,-0.05291 0.46063,0.09648 0.31435,0.17741c-2.73038,1.50713 -5.62334,2.5062 -8.77225,2.24476c-3.2291,-0.26685 -6.2427,-1.89544 -8.96914,-3.53173l-3.32247,-1.85342l-0.11205,2.38638c-0.75549,0.59602 -0.74615,1.5702 -0.68079,2.44789c0.03653,0.48553 0.20615,1.1049 0.07388,1.59903c0.02957,0.00934 0.05602,0.01941 0.07158,0.03268c1.64801,1.39435 4.06477,1.81992 6.13688,1.97636c2.79721,0.21164 5.71818,-0.05529 8.49754,-0.38209c2.79959,-0.32909 5.4646,-1.59821 8.0541,-2.63774c2.04246,-0.81929 3.79162,-2.32962 5.97266,-2.76298c0.48782,-0.5291 -0.03194,-1.84564 -0.3766,-2.58721c-0.3517,0.36259 -0.70266,0.72756 -1.01775,1.10883c-0.07552,0.09411 -0.44818,-0.04202 -0.36415,-0.14628c0.38749,-0.46997 0.81774,-0.89874 1.24806,-1.32899c0.00622,-0.00311 0.00311,-0.01016 0.01245,-0.01171c0.37349,-0.37504 0.74771,-0.75164 1.08851,-1.15781c1.09482,-1.30638 1.0528,-2.76298 0.47931,-4.30049c-1.12824,-3.02368 -2.57779,-5.89641 -3.51699,-8.99404c-0.80766,-2.66027 -1.05354,-5.28556 -0.76171,-8.04002c0.02334,-0.21557 0.04742,-0.43033 0.07158,-0.64508c-0.00311,-0.00541 -0.00622,-0.01163 -0.00934,-0.01712c-0.00393,-0.00852 0.01007,-0.01089 0.01319,-0.01786c0.30346,-2.71482 0.67154,-5.37664 0.46923,-8.13036c-0.01089,-0.14006 0.38045,-0.05758 0.38905,0.05602c0.20304,2.75839 -0.12761,5.45215 -0.46301,8.18482c1.00997,1.91641 1.8449,3.9379 3.01123,5.76487c1.27067,1.99348 3.10231,3.21976 5.3533,3.86713c1.93123,-0.25751 3.59169,-0.95313 5.11364,-2.17711c1.40835,-1.13364 2.62611,-2.49375 3.98778,-3.68113c0.09566,-0.08485 0.45826,0.06454 0.3657,0.14317c-0.75246,0.65827 -1.46593,1.3624 -2.18956,2.05573c1.40753,-0.9003 2.65404,-2.05573 3.65778,-3.38938zM214.70621,175.06421c0.13383,0.23425 0.22335,0.48553 0.16111,0.712c-0.06069,0.21082 -0.27004,0.24973 -0.47931,0.22098c0.38045,0.51272 0.58824,1.10178 0.8582,1.69625c0.44433,0.97958 1.30098,2.08603 2.2129,2.68517c0.28167,0.02416 0.53844,0.06307 0.69644,0.09108c0.51043,0.08944 0.97802,0.27078 1.39508,0.52673c0.01482,-1.86276 0.1222,-3.75271 -0.31591,-5.57739c-0.20771,-0.85746 -0.53533,-1.6838 -0.85042,-2.50391c-0.21402,-0.5649 -0.35637,-1.094 -0.61003,-1.62622c-0.63337,1.55775 -1.44496,3.18241 -3.0159,3.76991c-0.01401,0.00541 -0.03194,0.00622 -0.05217,0.00541z" fill="#000000" stroke="none" stroke-width="0.95"></path><path d="M236.36142,147.8729c0.11745,-0.15251 -0.25366,-0.3019 -0.36104,-0.16962c-0.03112,0.03972 -0.0584,0.08248 -0.0887,0.12294c0.00156,-0.02646 0.00156,-0.105 0.00156,-0.07855c0.00311,0.55556 -0.48324,-0.59528 -0.06847,-0.7618l0.01401,-0.00852c0.02334,0.01867 0.04275,0.03964 0.08322,0.0498c1.40762,0.36489 3.02605,0.86991 4.18304,1.80436c-1.0714,2.35378 -2.34747,4.71141 -3.14039,7.18026c-0.65827,-0.70102 -1.30794,-1.4122 -1.96236,-2.11798c-0.33614,-0.36104 -0.67146,-0.72207 -1.01537,-1.07533c-0.49642,-0.51199 -0.71667,-0.73763 -0.14939,-1.32121c0.43803,-0.44892 0.78899,-0.96173 1.1189,-1.49083c0.06069,-0.09722 0.12212,-0.1937 0.18126,-0.29174c0.38127,-0.62796 0.74779,-1.26756 1.20375,-1.84179z" fill="#c0e1e1" stroke="none" stroke-width="0.95"></path><path d="M228.02646,154.76297c-0.0638,-0.09182 -0.1331,-0.17429 -0.25915,-0.23498c-0.00696,-0.00393 -0.01245,-0.0086 -0.01941,-0.01171c-0.57579,-0.50109 -1.13135,-1.01775 -1.60443,-1.59198c-0.29961,-0.3657 -2.82375,-3.38701 -2.35378,-3.75353c0.01171,-0.00778 0.02334,-0.01401 0.03112,-0.02564c0.7618,-1.10334 2.05499,-1.80756 3.19797,-2.48294c0.00549,0.00704 0.01089,0.01401 0.01638,0.02105c0.18126,0.25055 0.37349,0.49331 0.57423,0.72903c0.28708,0.33696 0.58742,0.66376 0.90644,0.97344c0.07396,0.07158 0.15095,0.1385 0.22565,0.20853c0.95321,0.89243 2.01215,1.68298 3.06881,2.41439c0.56178,0.39142 1.21538,0.60462 0.7672,1.35004c-0.32213,0.53222 -0.64426,1.06673 -0.94928,1.61066c-0.48938,0.87458 -0.79521,1.84564 -1.33439,2.68983c-0.72518,-0.64344 -1.51188,-1.25585 -2.26737,-1.89618z" fill="#c0e1e1" stroke="none" stroke-width="0.95"></path><path d="M240.5429,148.85878c-0.00156,0.00622 0.00541,0.01089 0.00385,0.0163c-1.11808,2.46116 -2.47197,4.92461 -3.26096,7.5164c-0.00622,0.02105 -0.02416,0.03735 -0.05062,0.04906c-0.08322,0.06454 -0.24588,0.03579 -0.31353,-0.04824c-0.83649,-0.8754 -1.64645,-1.77406 -2.46967,-2.66346c-0.3743,-0.40305 -1.15551,-0.91037 -1.33832,-1.49394c-0.49642,0.80922 -0.99989,1.61844 -1.42473,2.46582c-0.38978,0.77416 -0.63411,1.58576 -1.13676,2.30316c-0.07863,0.11205 -0.26693,0.03735 -0.34081,-0.03194c-1.64882,-1.50869 -3.51781,-2.82055 -4.90044,-4.58765c-0.32836,-0.41706 -2.38875,-2.78009 -1.85891,-3.38545c0.00393,-0.00778 0.00311,-0.01556 0.0086,-0.02416c0.82085,-1.18811 2.23231,-1.92034 3.44385,-2.64241c0.1136,-0.06765 0.26922,-0.01319 0.33843,0.0887c0.00156,0.00238 0.00311,0.00467 0.00467,0.00704c1.52662,2.22453 3.82438,3.6337 5.93998,5.21864c0.13621,-0.19141 0.35563,-0.36333 0.48086,-0.48938c0.31828,-0.32762 0.56883,-0.73067 0.81856,-1.11038c0.40543,-0.62403 0.76491,-1.27837 1.18737,-1.89151c0.07707,-0.11205 0.15799,-0.22098 0.23892,-0.32991c0.02957,-0.04046 0.05676,-0.0833 0.0887,-0.12294c0.10656,-0.13228 0.47693,0.01712 0.36022,0.16962c-0.45596,0.57497 -0.82241,1.21383 -1.20367,1.84171c-0.05914,0.0973 -0.12065,0.19452 -0.18134,0.29183c-0.32991,0.5291 -0.68079,1.04183 -1.1189,1.49083c-0.56719,0.58357 -0.34777,0.80922 0.14939,1.32121c0.34474,0.35326 0.67932,0.71429 1.01546,1.07533c0.65434,0.70569 1.30327,1.41769 1.96236,2.11798c0.7921,-2.46967 2.06891,-4.82657 3.14039,-7.18026c-1.15707,-0.93453 -2.77551,-1.43874 -4.18304,-1.80444c-0.03972,-0.01007 -0.05995,-0.03112 -0.0833,-0.0498c-0.11827,-0.09255 -0.04898,-0.2544 0.15333,-0.20304c0.24662,0.0638 0.50027,0.13457 0.75631,0.20853c0.06454,0.01867 0.1299,0.03809 0.19526,0.05758c1.25118,0.37349 2.5483,0.88236 3.51388,1.69854c0.00467,0.00393 0.00549,0.00704 0.00934,0.01089c0.02179,0.01482 0.0335,0.02957 0.04357,0.04906c0.01245,0.02252 0.01482,0.04275 0.01171,0.06069zM226.14347,152.92274c0.47308,0.57423 1.02782,1.09089 1.60443,1.59125c0.09411,0.08166 0.18363,0.16651 0.27856,0.24743c0.75549,0.64033 1.54218,1.25273 2.26737,1.89618c0.53918,-0.84419 0.84501,-1.81526 1.33439,-2.68983c0.30501,-0.54393 0.62714,-1.0777 0.94928,-1.61066c0.44818,-0.74542 -0.2046,-0.95861 -0.7672,-1.35004c-1.05665,-0.73215 -2.11486,-1.52269 -3.06881,-2.41439c-0.0747,-0.07003 -0.15169,-0.13694 -0.22565,-0.20853c-0.31902,-0.30968 -0.61936,-0.63648 -0.90644,-0.97344c-0.20157,-0.23572 -0.39298,-0.47849 -0.57423,-0.72903c-0.00549,-0.00704 -0.01089,-0.01401 -0.01638,-0.02105c-1.14298,0.67539 -2.43618,1.38034 -3.19797,2.48294c-0.00778,0.01163 -0.01941,0.01786 -0.03112,0.02564c-0.47071,0.36652 2.05417,3.38865 2.35378,3.75353z" fill="#000000" stroke="none" stroke-width="0.95"></path><g stroke="none" stroke-width="0.95"><path d="M241.163,134.38073c0.59217,-0.25988 0.90882,-0.17814 0.95165,0.24358c0.03342,0.19837 0.05054,0.39838 0.04824,0.59987c-0.02023,0.39527 -0.07158,0.78121 -0.20624,1.15707c-0.15718,0.43729 -0.34547,0.86213 -0.52829,1.28771c-0.02023,-0.76016 -0.11442,-1.52269 -0.27782,-2.27515c0.00311,-0.00696 0.01794,-0.00778 0.01638,-0.01712c-0.04595,-0.30575 -0.04357,-0.64426 -0.02023,-0.98892c0.00311,-0.00393 0.01401,-0.00238 0.0163,-0.00704z" fill="#a86c35"></path><path d="M237.97904,144.78468c-0.38594,0.39683 -0.7835,0.77965 -1.20212,1.12668c-0.90103,0.7423 -1.89159,1.55308 -3.04784,1.83704c-2.0269,-0.05209 -4.44604,-1.06132 -6.21231,-1.9857c-2.21208,-1.15314 -4.10367,-2.79877 -4.93542,-5.21168c-0.01556,-0.04431 -0.09108,-0.07388 -0.16962,-0.09182c-0.00549,-0.02097 -0.01401,-0.04513 -0.01867,-0.06536c0.06225,-0.07781 0.12368,-0.15636 0.18052,-0.24039c0.0412,-0.0584 -0.31902,-0.21009 -0.38905,-0.10508c-0.47701,0.70495 -1.09326,1.05903 -1.95228,0.39454c-0.30813,-0.2358 -0.62477,-0.46768 -0.8917,-0.75008c-0.44507,-0.47153 -0.88154,-1.02324 -1.04338,-1.66979c-0.20697,-0.82634 0.09182,-3.21124 1.19515,-3.42362c0.01474,-0.00311 0.02957,-0.00622 0.04513,-0.0086c0.25595,-0.03497 0.55318,0.04284 0.8971,0.28323c0.08018,0.05447 0.47308,0.09182 0.30657,-0.02334c-0.07232,-0.0498 -0.14006,-0.0801 -0.20927,-0.12056c-0.71274,-7.78406 0.67383,-14.52081 12.22388,-13.74272c11.18041,0.75393 8.73178,10.54786 8.53726,11.26444c-0.00156,0.00238 -0.0086,0.00082 -0.01016,0.00393c-0.41239,0.7781 -0.59676,1.8635 -0.5205,2.77624c-0.03424,0.00696 -0.05529,0.02179 -0.04906,0.04824c0.5875,2.4759 0.53377,5.3587 -0.9415,7.52418c-0.35948,0.52517 -0.76098,1.03405 -1.18655,1.52351c-0.20542,0.21475 -0.40698,0.43336 -0.60618,0.65671z" fill="#a86c35"></path><g fill="#000000"><path d="M242.36438,134.29825c0.64582,1.47609 -0.42558,2.97855 -0.89243,4.33948c-0.00704,0.02097 -0.03579,0.02719 -0.06462,0.03268c-0.10345,1.51802 -0.53451,2.99411 -1.42621,4.30131c-0.78121,1.14921 -1.79666,2.16695 -2.83775,3.07814c-0.37734,0.32991 -0.78743,0.66367 -1.22161,0.96246c0.00704,0.00238 0.01171,0.00622 0.01794,0.0086c-0.14006,0.05914 -0.26537,0.13383 -0.3766,0.22409c-0.49102,0.3019 -1.01079,0.54778 -1.5539,0.67612c-0.00074,0 -0.00156,0 -0.00156,0c-0.0163,0.00467 -0.04046,0.00704 -0.07314,0.00622c-2.13665,-0.04202 -4.5417,-1.06443 -6.4364,-1.98726c-0.08166,-0.03964 -0.15873,-0.08559 -0.23965,-0.12679c0.00082,0.00311 0.00156,0.00622 0.00238,0.00934c-0.10582,-0.07396 -0.22409,-0.1331 -0.35252,-0.18134c0.00622,-0.00156 0.01016,-0.00385 0.01638,-0.00467c-2.08145,-1.13209 -3.86869,-2.78247 -4.6888,-5.05213c-0.36497,0.38905 -0.82011,0.62403 -1.4045,0.39372c-1.05198,-0.41321 -1.98726,-1.30646 -2.58172,-2.2487c-1.00759,-1.59198 -0.08166,-4.797 1.83868,-4.1986c0.06921,0.02179 0.13613,0.03579 0.20771,0.06765c-0.11516,-0.82011 -1.16166,-9.02435 2.69458,-11.63949c2.22453,-1.50795 4.36978,-2.25025 6.76165,-2.39653c1.85105,-0.11286 3.85313,0.13301 6.15318,0.66294c0.15251,0.03579 0.30264,0.06765 0.45826,0.105c5.51981,1.33759 6.28701,7.93117 5.31988,10.99293c0,0 -0.0086,0.00778 -0.02179,0.01867c0.00156,0.00622 0.01474,0.01401 0.01163,0.01949c-0.23417,0.44196 -0.39683,0.99359 -0.4816,1.55382c0.01786,-0.00778 0.04046,-0.00778 0.05914,-0.01401c0.41002,-0.14079 0.92356,-0.03964 1.11341,0.39683zM239.77177,142.60364c1.47527,-2.1654 1.529,-5.04828 0.9415,-7.52336c-0.00622,-0.02646 0.01401,-0.04128 0.04906,-0.04824c-0.07625,-0.91275 0.10811,-1.99815 0.5205,-2.77624c0.00156,-0.00311 0.0086,-0.00156 0.01016,-0.00393c0.19452,-0.71658 2.64397,-10.51125 -8.53726,-11.26444c-11.55005,-0.7781 -12.93661,5.95865 -12.22388,13.74272c0.07003,0.04046 0.13768,0.07077 0.20927,0.12056c0.16578,0.11516 -0.22638,0.07707 -0.30657,0.02334c-0.34392,-0.23965 -0.64115,-0.3182 -0.8971,-0.28323c-0.01556,0.00238 -0.03039,0.00622 -0.04513,0.0086c-1.10334,0.21238 -1.40213,2.59728 -1.19515,3.42362c0.16184,0.64656 0.59831,1.19827 1.04338,1.66979c0.26693,0.28241 0.58357,0.51428 0.8917,0.75008c0.85828,0.66367 1.47453,0.31124 1.95073,-0.39298c0,-0.00074 -0.00082,-0.00074 -0.00082,-0.00156c0.31206,-0.82707 -1.07533,-0.51117 -1.51647,-0.56563c-0.6871,-0.08174 -1.29246,-0.40232 -1.57257,-1.05903c-0.03497,-0.08166 0.33925,-0.04431 0.38749,0.0638c0.50109,1.16796 1.57102,0.6622 2.51325,0.73067c0.47079,0.03342 0.77187,0.42173 0.5789,0.93445c-0.05676,0.08403 -0.11827,0.16266 -0.18052,0.24047c-0.01319,0.0163 -0.0249,0.03424 -0.03809,0.05054c0.01941,0.00238 0.03735,0.01016 0.05676,0.01482c0.07863,0.01786 0.15406,0.04742 0.16962,0.09182c0.83256,2.4121 2.72333,4.05854 4.9355,5.21168c1.76628,0.92511 4.18615,1.93353 6.21231,1.9857c1.15625,-0.28405 2.14672,-1.094 3.04776,-1.83712c0.42017,-0.34703 0.81782,-0.72985 1.20294,-1.12668c0.20779,-0.21394 0.41083,-0.43106 0.60618,-0.65671c0.42484,-0.48864 0.82707,-0.99752 1.18655,-1.52351zM241.95666,136.38125c0.13465,-0.37586 0.18601,-0.76098 0.20542,-1.15781c0.00238,-0.20075 -0.01401,-0.40076 -0.04824,-0.59995c-0.04202,-0.42091 -0.35866,-0.50265 -0.95083,-0.24277c-0.00156,0.00467 -0.01245,0.00311 -0.0163,0.00704c-0.02416,0.34466 -0.02646,0.68317 0.02023,0.98892c0.00156,0.00934 -0.01245,0.01016 -0.01638,0.01712c0.1634,0.75246 0.25759,1.51499 0.27782,2.27515c0.18363,-0.42558 0.37111,-0.85042 0.52829,-1.28771z"></path><path d="M218.57957,136.52286c0.03972,-0.76409 0.89096,-0.89874 1.50795,-0.74468c1.02324,0.25988 1.43874,1.28934 2.1577,1.96473c0.09337,0.0887 -0.28249,0.04898 -0.35637,-0.01949c-0.49102,-0.46137 -0.84034,-1.04338 -1.31342,-1.51884c-0.51436,-0.5151 -1.56553,-0.38594 -1.60525,0.4241c-0.00467,0.08403 -0.39601,0.01401 -0.3906,-0.10582z"></path></g></g><g fill="#000000" stroke="none" stroke-width="0.95"><path d="M231.24466,140.76037c-0.10197,0.06298 -0.43885,-0.09493 -0.36964,-0.14161c0.33696,-0.21164 0.71585,-0.23114 1.08704,-0.35326c0.08092,-0.02727 0.34547,0.07699 0.3431,0.13613c0.55794,0.09804 1.04658,0.33073 1.64178,0.32058c0.68866,-0.01245 1.3461,-0.55867 1.46675,-1.22783c0.01786,-0.09722 0.41002,-0.00622 0.3906,0.10353c-0.11827,0.65745 -0.73608,1.19589 -1.40057,1.27296c-0.75631,0.0887 -1.3547,-0.20075 -2.07678,-0.31517c-0.07158,-0.01089 -0.13924,-0.05291 -0.17741,-0.09182c-0.30968,0.0833 -0.62788,0.11909 -0.90488,0.2965z"></path><path d="M232.19779,139.08591c-0.09255,0.03653 -0.44818,-0.11131 -0.31746,-0.16184c1.12283,-0.43966 2.27908,-0.59758 3.43844,-0.21787c0.26455,0.08715 0.0163,0.15947 -0.14088,0.10811c-0.99826,-0.32754 -2.03001,-0.10115 -2.9801,0.2716z"></path></g><g><path d="M230.16311,135.62494c-0.04669,0.00385 -0.08174,0.00852 -0.12687,0.0303c-0.09182,0.46374 -1.27214,0.82716 -1.64489,0.92831c-0.72207,0.19682 -1.62696,0.10115 -2.36303,-0.06462c-0.54704,-0.12056 -1.03487,-0.34547 -1.12439,-0.96951c-0.05602,-0.38512 0.15333,-0.7283 0.36726,-1.02397c0.69562,-0.95861 1.7562,-1.66586 2.93964,-1.10719c0.47079,0.21942 0.89637,0.47849 1.13913,0.91578c0.26611,0.47234 0.72445,0.81233 0.84346,1.371" fill="#ffffff" stroke="none" stroke-width="0.95"></path><path d="M229.94213,135.90735v0c-0.38594,-1.09318 -1.05125,-2.69606 -2.46738,-2.56534c-0.66294,0.06069 -1.26363,0.50339 -1.73433,0.93756c-0.7509,0.68628 -1.07459,1.66979 0.32836,2.09152c1.15625,0.34703 2.86724,0.05062 3.91144,-0.52132c0.0973,-0.05209 0.4599,0.09419 0.31361,0.17511c-1.27919,0.70029 -3.10771,0.86131 -4.5005,0.44351c-0.50502,-0.15095 -0.88474,-0.46923 -1.07222,-0.96017c-0.19223,-0.49798 0.14939,-0.84346 0.46293,-1.18352c0.62641,-0.67612 1.61303,-1.32039 2.57787,-1.17722c1.4457,0.21549 2.12494,1.56315 2.56927,2.81744c0.04202,0.11049 -0.34547,0.05914 -0.38905,-0.05758z" fill="#000000" stroke="none" stroke-width="0.95"></path><path d="M227.22887,134.09127c0.2358,0 0.449,0.09575 0.6038,0.25055c0.15488,0.15488 0.25055,0.36808 0.25055,0.6038c0,0.2358 -0.09566,0.449 -0.25055,0.6038c-0.1548,0.15488 -0.368,0.25055 -0.6038,0.25055c-0.23572,0 -0.44892,-0.09566 -0.6038,-0.25055c-0.1548,-0.1548 -0.25055,-0.368 -0.25055,-0.6038c0,-0.23572 0.09575,-0.44892 0.25055,-0.6038c0.15488,-0.1548 0.36808,-0.25055 0.6038,-0.25055z" fill="#42210b" stroke="#010101" stroke-width="0.23693"></path></g><path d="M224.56238,132.55687c-0.04284,0.10664 -0.4264,-0.0163 -0.39142,-0.10426c0.74853,-1.89151 3.01745,-2.02616 4.74638,-1.64178c0.23425,0.05291 0.19141,0.19141 -0.03809,0.14088c-1.61221,-0.35719 -3.6337,-0.11827 -4.31687,1.60517z" fill="#000000" stroke="none" stroke-width="0.95"></path><g><path d="M239.80289,134.14812c0,0.00852 0,0.0163 0,0.02646c0,0.50732 -0.33376,0.85124 -0.81856,1.0854c-0.62559,0.30583 -0.97647,0.42795 -1.67209,0.46145c-0.69562,0.03497 -1.33988,0.05209 -1.99348,-0.14317c-0.30501,-0.08952 -0.32058,-0.11983 -0.29101,-0.4264c0.02564,-0.2607 0.11901,-0.39765 0.23343,-0.63263c0.10893,-0.22327 0.12523,-0.49176 0.26529,-0.68784c0.12294,-0.17741 0.08092,-0.44196 0.22958,-0.59987c0.37267,-0.39994 0.8808,-0.52059 1.44259,-0.53533c0.49642,-0.01245 1.08622,0.05291 1.49239,0.31591c0.28863,0.18519 1.18737,0.71274 1.16714,1.16092" fill="#ffffff" stroke="none" stroke-width="0.95"></path><path d="M234.82235,135.48333v0c0.20853,-1.23177 0.63959,-2.72022 2.0495,-2.96766c0.81856,-0.14554 1.68298,0.26685 2.34051,0.70414c0.2684,0.17896 0.52673,0.39609 0.72985,0.64582c0.39757,0.48946 -0.29183,1.28312 -0.68317,1.47838c-1.24806,0.62485 -2.99411,0.71044 -4.3122,0.25915c-0.25988,-0.08952 -0.01794,-0.18912 0.14628,-0.13154c1.18893,0.40387 2.93809,0.27078 4.00875,-0.40379c1.02004,-0.64115 0.32369,-1.48305 -0.36497,-1.91567c-0.63255,-0.39765 -1.37878,-0.61314 -2.09152,-0.30501c-0.98892,0.43106 -1.27296,1.80125 -1.4317,2.73963c-0.01867,0.11442 -0.41239,0.02179 -0.39134,-0.10345z" fill="#000000" stroke="none" stroke-width="0.95"></path><path d="M236.86325,133.29762c0.47234,0.01712 0.83961,0.41477 0.82249,0.88629c-0.01712,0.47308 -0.4155,0.84034 -0.88703,0.82396c-0.47234,-0.01867 -0.84116,-0.41706 -0.82093,-0.88858c0.01638,-0.47153 0.41321,-0.84034 0.88547,-0.82167z" fill="#42210b" stroke="#010101" stroke-width="0.23693"></path></g><path d="M235.62534,130.72917c-0.09493,0.03424 -0.45056,-0.1136 -0.31984,-0.16266c1.7064,-0.64189 4.03987,-0.71274 5.06778,1.07688c0.03809,0.06618 -0.32836,0.0389 -0.38749,-0.0638c-0.90963,-1.5842 -2.87428,-1.41146 -4.36045,-0.85042z" fill="#000000" stroke="none" stroke-width="0.95"></path><g stroke="none" stroke-width="0.95"><path d="M229.84016,142.38659c0,0 1.34537,0.92438 6.50021,-0.277c0,0 -0.87532,0.56719 -1.0053,1.28074c-0.00622,0.0303 -0.03579,0.05987 -0.06143,0.09026c0,0.01867 -0.00156,0.04275 -0.00156,0.05914c0,0.4318 -0.02727,0.78039 -0.30813,1.13676c-0.24588,0.3105 -0.88629,0.48086 -1.27845,0.53222c-0.63181,0.08715 -1.25429,-0.06847 -1.80281,-0.34859c-0.46612,-0.23965 -0.96099,-0.42484 -1.28853,-0.86287c-0.09886,-0.13621 -0.16962,-0.28093 -0.24432,-0.42173c-0.41788,-0.25988 -0.64582,-0.64041 -0.50969,-1.18893z" fill="#700f10"></path><path d="M229.89234,142.52042c1.83393,0.63255 3.98303,0.2435 5.87462,-0.18363c-0.01638,0.01474 -0.02957,0.03268 -0.04513,0.04824c-0.00467,0.00074 -0.01089,0 -0.01401,0.00229c-1.51106,1.15862 -4.12702,1.00767 -5.8023,0.24277c-0.00696,-0.03653 -0.00934,-0.07314 -0.01319,-0.10967z" fill="#ffffff"></path><path d="M236.20187,141.77501c0.31435,-0.03506 0.60847,0.14317 0.54549,0.48553c-0.00622,0.03653 -0.03424,0.0552 -0.06929,0.06298c-0.04431,0.10664 -0.27078,0.04357 -0.28478,-0.06225c-0.00229,-0.01556 -0.01319,-0.03342 -0.01867,-0.05054c-0.6061,0.37889 -0.85435,0.88154 -0.99203,1.57405c-0.06307,0.32524 0.03653,0.75631 -0.25988,0.97262c-0.67154,0.4902 -1.51729,0.57661 -2.32732,0.53844c-1.28615,-0.06069 -2.99255,-1.36707 -3.18085,-2.7194c-0.00541,0.00934 -0.01245,0.01712 -0.01712,0.02719c-0.00074,0.00311 -0.00229,0.00622 -0.00229,0.00934c-0.00156,0.02416 -0.01712,0.03424 -0.03268,0.04513c-0.00311,0.0086 -0.01171,0.01327 -0.01401,0.02179c-0.03972,0.13154 -0.31673,0.05529 -0.29494,-0.07937c0,-0.00074 0.00082,-0.00074 0.00082,-0.00156c-0.00156,0 -0.00311,-0.00074 -0.00393,-0.00074c0.00778,-0.02883 0.0249,-0.05373 0.03735,-0.08092c-0.06847,-0.25677 0.17667,-0.41321 0.42017,-0.40305c0.09026,-0.01556 0.18445,-0.01556 0.27856,0.0163c0.04906,0.01867 0.11205,0.0498 0.12294,0.11131c0.00778,0.0552 -0.04898,0.08633 -0.09722,0.09182c-0.01245,0.00074 -0.02334,0.00467 -0.03579,0.00622c1.90551,0.66916 4.24684,0.12056 6.1594,-0.32058c-0.02334,-0.01712 -0.04595,-0.03661 -0.0498,-0.06774c-0.00393,-0.0303 0.01474,-0.04742 0.03424,-0.0638c-0.00311,-0.00778 -0.01245,-0.01163 -0.01327,-0.02097c-0.01007,-0.05447 0.04669,-0.08485 0.09493,-0.09182zM234.73905,144.70687c0.15644,-0.08715 0.2381,-0.27315 0.2879,-0.48398c-0.17429,-0.20779 -0.33687,-0.43033 -0.52517,-0.6233c-0.16807,-0.17347 -0.39994,-0.28945 -0.60306,-0.41468c-1.03487,0.18363 -2.17007,0.09566 -3.16062,-0.19223c-0.09804,-0.02801 -0.19837,-0.05209 -0.2933,-0.08477c-0.18519,-0.06307 -0.35719,-0.13621 -0.52681,-0.21246c0.14628,0.6233 0.6785,1.14151 1.1189,1.57102c0.69717,0.67539 1.49239,0.87458 2.44478,0.81307c0.44278,-0.02875 0.87073,-0.15718 1.2574,-0.37267zM235.50551,142.62002c0.00934,-0.01171 0.02097,-0.02105 0.0303,-0.03268c-0.0412,0.02564 -0.08166,0.05054 -0.12368,0.0747c-0.42328,0.24506 -0.90652,0.40461 -1.41384,0.50421c0.01171,0.00311 0.0249,0.00622 0.02957,0.00934c0.21787,0.13694 0.46301,0.263 0.64975,0.4427c0.1385,0.13694 0.26144,0.29183 0.38356,0.44663c0.03661,-0.22409 0.0498,-0.45441 0.08092,-0.61076c0.0638,-0.31984 0.18756,-0.59602 0.36341,-0.83412zM235.72256,142.38503c0.01556,-0.01556 0.02801,-0.0335 0.04513,-0.04906c-1.89151,0.42722 -4.04143,0.81626 -5.87462,0.18445c0.00393,0.03653 0.00622,0.07388 0.01327,0.10967c1.6752,0.76491 4.29115,0.91586 5.80222,-0.24277c0.00311,-0.00229 0.00934,-0.00156 0.01401,-0.00229z" fill="#000000"></path></g><g stroke="none" stroke-width="0.95"><path d="M242.10221,131.0264c0.00156,0.73452 0.04669,1.62384 -0.41632,2.23698c-0.18126,0.2381 -0.37734,0.45596 -0.54778,0.6925l-0.07543,0.07863c0.03964,-0.1222 0.16184,-0.78358 0.27233,-1.62704c0.10656,0.08485 0.33376,0.07625 0.34932,-0.08477c0.19223,-2.76928 0.06692,-6.5057 -2.64004,-8.1148c-0.72518,-0.43336 -1.53285,-0.66523 -2.36541,-0.77498c-1.29401,-0.16962 -2.60039,-0.35399 -3.90137,-0.4178c-2.39965,-0.11753 -5.01798,-0.11131 -7.25963,0.8582c-1.46675,0.63493 -3.24933,1.72508 -3.94887,3.2291c-0.6925,1.48231 -1.11653,3.59324 -0.49176,5.17433c0.37815,0.95943 0.84346,1.92583 1.28074,2.8611c0.15333,0.33614 0.40543,0.64738 0.53689,0.98892c0.15177,0.40076 -0.23965,0.68399 -0.57579,0.89792c-0.39994,-0.84034 -0.81774,-1.59583 -1.4457,-2.30939c-0.03964,-0.04587 -0.105,-0.0661 -0.16962,-0.06921c-0.01089,-0.01867 -0.02334,-0.03735 -0.04513,-0.05684c-0.51584,-0.47226 -0.93134,-1.03094 -1.25429,-1.65186c0.00393,-0.01171 0.01712,-0.01482 0.01794,-0.02883c0.00385,-0.11123 -0.03112,-0.18748 -0.1136,-0.26218c-0.12065,-0.10582 -0.16029,-0.30894 -0.20075,-0.45678c-0.07003,-0.26455 -0.0887,-0.51354 -0.24358,-0.73452c-0.07781,-0.3517 -0.12679,-0.70725 -0.15406,-1.06517c0.01089,-0.02261 0.00704,-0.04906 -0.00778,-0.07863c-0.00074,-0.02023 -0.00467,-0.03964 -0.00541,-0.05914c-0.00467,-0.0638 -0.05684,-0.10345 -0.11827,-0.13072c-0.15251,-0.32991 0.12679,-0.66679 0.19526,-1.0193c0.01016,-0.04824 -0.00696,-0.091 -0.03809,-0.1245c0.04742,-0.42246 0.12368,-0.83879 0.2272,-1.25118c0.0249,-0.00778 0.04742,-0.02023 0.06536,-0.0389c0.2186,-0.23498 0.13768,-0.5314 0.18363,-0.82011c0.05209,-0.32369 0.33843,-0.51821 0.40535,-0.83723c0.00622,-0.02719 -0.01163,-0.04742 -0.02023,-0.07003c0.1969,-0.41468 0.41477,-0.81618 0.66376,-1.20294c0.00934,-0.01401 0.01089,-0.02801 0.01401,-0.04202c0.06454,-0.05758 0.11983,-0.12368 0.13072,-0.21164c0.01712,-0.11205 -0.00704,-0.23261 0.01556,-0.3431c0.06454,-0.32991 0.52132,-0.53222 0.79439,-0.67154c0.02179,-0.01089 0.03506,-0.02408 0.04824,-0.03735c0,-0.00074 0.00082,-0.00074 0.00082,-0.00074v0c0.00541,-0.00549 0.01089,-0.01016 0.01474,-0.01482c0.36726,-0.40461 0.77187,-0.76876 1.20449,-1.10252c0.11516,0.03653 0.25603,0.01245 0.25522,-0.11753c-0.00467,-0.9057 1.24266,-0.88932 1.87365,-1.06984c0.07707,-0.02261 0.09648,-0.06462 0.08559,-0.10975c0.46997,-0.20542 0.94698,-0.38594 1.43563,-0.53689c0.08944,0.03817 0.20697,0.04128 0.26766,-0.02719c0.45908,-0.51199 1.00219,-0.62403 1.64874,-0.42255c0.00778,0.00311 0.01171,-0.00156 0.01949,0c0.00622,-0.00074 0.01089,0.00393 0.01712,0.00311c0.01089,-0.00156 0.02179,-0.00229 0.03268,-0.00385c0.03268,0 0.06454,0.00156 0.08788,-0.01171c0.58128,-0.08322 1.16329,-0.14391 1.75071,-0.1797c0.02023,-0.00082 0.02105,-0.01245 0.03661,-0.01638c0.02252,0.01016 0.0412,0.02727 0.07003,0.02883c0.40928,0.02564 0.80611,0.0163 1.21227,-0.04439c0.47308,-0.07003 1.02471,-0.16881 1.47527,0.05062c0.00934,0.00156 0.01401,0.00934 0.02408,0.01007c0.00311,0 0.00549,0.00082 0.0086,0.00082c0.05758,0.03112 0.11278,0.0303 0.16102,0.01556c0.36341,0.02875 0.72674,0.06069 1.0886,0.10271c0.05447,0.00622 0.08559,-0.0086 0.1136,-0.02572c0.07699,0.0389 0.17347,0.05291 0.23883,0.01016c0.52214,-0.33769 1.26985,0.17896 1.80133,0.29641c0.01245,0.00238 0.01786,-0.00385 0.02957,-0.00311c0.00852,0.00238 0.01319,0.01016 0.02334,0.01089c0.63878,0.06774 1.75071,0.10738 2.05884,0.7867c0.04742,0.10582 0.22016,0.14079 0.31902,0.10033c0.63878,0.14317 1.04805,0.712 1.36707,1.24806c0.00467,0.00778 0.01327,0.01401 0.02023,0.02179c0.00156,0.0249 0.01016,0.05135 0.03735,0.0833c0.37037,0.43418 0.79759,0.86213 0.91193,1.44259c0.01089,0.05365 0.05373,0.091 0.10508,0.11827c0.57423,0.59446 1.24258,1.45971 0.88154,2.31406c-0.04202,0.02801 -0.06225,0.07232 -0.03186,0.13768c0.34777,0.75557 0.42328,1.6838 0.19526,2.48368c-0.00467,0.01556 0.00934,0.02572 0.01016,0.04046c-0.04439,0.02801 -0.06774,0.07314 -0.03817,0.14161c0.22024,0.50814 0.27004,1.16796 0.01016,1.67217c-0.02727,0.05291 -0.01401,0.10033 0.01401,0.14161z" fill="#301113"></path><path d="M242.45931,129.17453c0.23498,0.5563 0.26848,1.22161 0.02572,1.78028c0.00311,0.01163 0.0163,0.01786 0.0163,0.0303c-0.00074,0.70422 0.01327,1.45348 -0.26062,2.11724c-0.21557,0.52206 -0.72134,0.85353 -0.95706,1.36634c-0.08248,0.18052 -0.47153,0.07003 -0.3906,-0.10664c0.06847,-0.14702 0.1548,-0.27856 0.24662,-0.4069c0.17044,-0.23654 0.36652,-0.45441 0.54778,-0.6925c0.46301,-0.61314 0.41788,-1.50254 0.41632,-2.23706c-0.02883,-0.0412 -0.04128,-0.0887 -0.01401,-0.14161c0.25988,-0.50421 0.20927,-1.16403 -0.01016,-1.67209c-0.02957,-0.06847 -0.00622,-0.1136 0.03817,-0.14161c-0.00082,-0.01401 -0.01482,-0.0249 -0.01016,-0.04046c0.22802,-0.79988 0.15251,-1.72737 -0.19526,-2.48368c-0.03039,-0.06618 -0.01016,-0.10975 0.03186,-0.13776c0.3603,-0.85353 -0.30886,-1.71877 -0.8831,-2.31324c-0.05217,-0.02727 -0.09493,-0.06536 -0.10508,-0.11671c-0.11516,-0.58128 -0.54155,-1.00841 -0.91193,-1.44259c-0.02719,-0.03112 -0.03579,-0.0584 -0.03735,-0.0833c-0.00622,-0.00696 -0.01474,-0.01319 -0.02023,-0.02179c-0.31902,-0.53689 -0.7283,-1.1049 -1.36707,-1.24806c-0.09886,0.04046 -0.27078,0.00549 -0.31902,-0.10033c-0.30813,-0.67932 -1.4208,-0.71896 -2.05884,-0.7867c-0.00934,-0.00156 -0.01401,-0.00934 -0.02334,-0.01089c-0.01171,-0.00074 -0.01712,0.00549 -0.02957,0.00311c-0.53066,-0.11827 -1.27845,-0.63493 -1.80051,-0.29723c-0.06536,0.04284 -0.16184,0.02801 -0.23892,-0.01007c-0.02719,0.01712 -0.05914,0.03186 -0.1136,0.02564c-0.36177,-0.04202 -0.72518,-0.07388 -1.08851,-0.10271c-0.04824,0.01401 -0.10353,0.01556 -0.16111,-0.01556c-0.00311,0 -0.00541,-0.00074 -0.00852,-0.00074c-0.00934,-0.00082 -0.01482,-0.0086 -0.02416,-0.01016c-0.4513,-0.21942 -1.00219,-0.12056 -1.47527,-0.05054c-0.4069,0.05987 -0.80373,0.06921 -1.21301,0.04357c-0.02883,-0.00156 -0.04669,-0.01867 -0.07003,-0.02883c-0.01482,0.00393 -0.01638,0.01556 -0.03661,0.01638c-0.58742,0.03497 -1.16944,0.09566 -1.75071,0.1797c-0.02252,0.01327 -0.05447,0.01089 -0.08715,0.01089c-0.01089,0.00156 -0.02179,0.00238 -0.03268,0.00393c-0.00622,0.00074 -0.01089,-0.00311 -0.01712,-0.00311c-0.00778,-0.00156 -0.01163,0.00229 -0.01941,0c-0.64664,-0.20157 -1.18975,-0.08952 -1.64882,0.42246c-0.06069,0.06847 -0.17814,0.06536 -0.26766,0.02727c-0.48864,0.15013 -0.96558,0.33065 -1.43554,0.53689c0.01089,0.04513 -0.0086,0.08788 -0.08559,0.10967c-0.63026,0.18052 -1.87832,0.16422 -1.87365,1.06992c0.00074,0.1299 -0.14006,0.15324 -0.25522,0.11745c-0.43262,0.33384 -0.83723,0.69799 -1.20449,1.1026c-0.00393,0.00541 -0.01016,0.01007 -0.01482,0.01474v0c0,0.00082 -0.00074,0.00082 -0.00074,0.00082c-0.01327,0.01319 -0.02646,0.02646 -0.04824,0.03735c-0.27315,0.1385 -0.72985,0.34154 -0.79448,0.67146c-0.02334,0.10975 0.00082,0.23032 -0.01556,0.34318c-0.01089,0.08788 -0.0661,0.15406 -0.13072,0.21164c-0.00311,0.01401 -0.00467,0.02719 -0.01401,0.04202c-0.24899,0.38667 -0.46759,0.78817 -0.66367,1.20294c0.00852,0.02252 0.02646,0.04275 0.02023,0.07003c-0.06692,0.31902 -0.35407,0.51354 -0.40543,0.83723c-0.04513,0.28863 0.03506,0.58513 -0.18363,0.82011c-0.01786,0.01867 -0.04046,0.0303 -0.06536,0.0389c-0.10345,0.41239 -0.1797,0.82863 -0.2272,1.25118c0.03112,0.03424 0.04824,0.07625 0.03817,0.1245c-0.06847,0.35326 -0.34785,0.69013 -0.19534,1.0193c0.06069,0.02719 0.1136,0.06692 0.11827,0.13072c0.00082,0.02023 0.00467,0.03964 0.00549,0.05914c0.01474,0.0303 0.01867,0.05676 0.00778,0.07855c0.02646,0.35792 0.07625,0.71355 0.15406,1.06525c0.1548,0.22016 0.17347,0.46997 0.2435,0.73452c0.04046,0.14858 0.08018,0.35088 0.20075,0.4567c0.0833,0.0747 0.11827,0.15095 0.1136,0.26226c-0.00074,0.01319 -0.01401,0.01712 -0.01786,0.02875c0.32287,0.62092 0.73837,1.17959 1.25429,1.65194c0.02179,0.01941 0.03424,0.03809 0.04513,0.05676c0.06454,0.00393 0.12916,0.02334 0.16962,0.06929c0.62788,0.71429 1.04576,1.46904 1.4457,2.30939c0.33614,-0.21402 0.72748,-0.49642 0.57579,-0.89792c-0.13154,-0.34236 -0.38364,-0.65286 -0.53689,-0.989c-0.43729,-0.93527 -0.90259,-1.9024 -1.28074,-2.86102c-0.62485,-1.58109 -0.20075,-3.6921 0.49176,-5.17433c0.69947,-1.50328 2.48212,-2.59417 3.94879,-3.2291c2.24173,-0.97033 4.85998,-0.97573 7.25963,-0.85828c1.30098,0.0638 2.60744,0.24825 3.90137,0.41788c0.83256,0.10967 1.64022,0.34154 2.36541,0.77498c2.70777,1.60984 2.83227,5.34551 2.64012,8.11471c-0.01482,0.16029 -0.24277,0.16889 -0.34941,0.08485c-0.03424,-0.02801 -0.05676,-0.06536 -0.05365,-0.11131c0.19297,-2.74668 0.09804,-6.44025 -2.64167,-7.96925c-0.67694,-0.37734 -1.45037,-0.53844 -2.21208,-0.62403c-1.43792,-0.16184 -2.86732,-0.36259 -4.31302,-0.41395c-2.51169,-0.091 -5.14706,0.09108 -7.3779,1.34692c-1.8363,1.03487 -2.97855,2.42373 -3.39012,4.48723c-0.17822,0.89252 -0.18363,1.82541 -0.00467,2.71711c0.18052,0.90341 0.77572,1.77954 1.13053,2.62767c0.22491,0.53066 0.75557,1.19515 0.85746,1.7585c0.0389,0.22016 -0.03424,0.40617 -0.16029,0.56719c-0.0163,0.02105 -0.03579,0.04046 -0.05365,0.06069c-0.20075,0.22409 -0.49569,0.3992 -0.71896,0.54934c-0.10975,0.07158 -0.28478,0.02801 -0.34081,-0.091c-0.29338,-0.63337 -0.5984,-1.21932 -0.97966,-1.77406c-0.02801,-0.04046 -0.05209,-0.08248 -0.08092,-0.12294c-0.1385,-0.19379 -0.28863,-0.38364 -0.45203,-0.57038c-0.00238,-0.00229 -0.00238,-0.00467 -0.00467,-0.00696c-0.04906,-0.00156 -0.0996,-0.01712 -0.13932,-0.05447c-0.57735,-0.52526 -1.04265,-1.14069 -1.3959,-1.83712c-0.02719,-0.05291 -0.02023,-0.09182 0.00622,-0.11983c-0.03186,-0.07158 -0.11123,-0.14939 -0.14317,-0.20615c-0.05291,-0.09804 -0.08788,-0.20386 -0.11516,-0.31206c-0.07003,-0.263 -0.08092,-0.58898 -0.26766,-0.79833c-0.04824,-0.05291 -0.04824,-0.09722 -0.0249,-0.13072c-0.07388,-0.34621 -0.12294,-0.69324 -0.15013,-1.04576c-0.13776,-0.17659 -0.20312,-0.35948 -0.172,-0.59365c0.03268,-0.21942 0.15177,-0.41943 0.21713,-0.63181c-0.01245,-0.02416 -0.03194,-0.04439 -0.02957,-0.07314c0.0498,-0.5291 0.14628,-1.04887 0.28396,-1.56242c0.01638,-0.06462 0.07396,-0.08641 0.13776,-0.09182c0.00467,-0.01171 0.01474,-0.02105 0.01867,-0.03268c0.00467,-0.01089 0.01007,-0.02105 0.01319,-0.03268c0.05758,-0.1969 0.02646,-0.43655 0.05758,-0.63419c0.03661,-0.22794 0.21475,-0.38667 0.32139,-0.58046c-0.02416,-0.03112 -0.03424,-0.06847 -0.01556,-0.10967c0.19993,-0.43885 0.42795,-0.85902 0.68079,-1.26985c-0.0389,-0.04906 -0.03964,-0.10582 0.0335,-0.14866c0.04898,-0.02801 0.07314,-0.06847 0.09804,-0.10893c0.02875,-0.04742 0.0498,-0.10033 0.05987,-0.15791c0.02727,-0.15177 0.01949,-0.32524 0.09886,-0.46768c0.15169,-0.27307 0.54,-0.45359 0.82085,-0.59365c0.43811,-0.47931 0.91348,-0.91815 1.4403,-1.30098c0.00074,-0.00082 0.00311,-0.00082 0.00385,-0.00156c0.02727,-0.12138 0.07003,-0.22802 0.13228,-0.31828c0.03194,-0.04669 0.06774,-0.08944 0.10738,-0.12916c0.34081,-0.33532 0.93609,-0.43573 1.44726,-0.5454c0.01171,-0.00934 0.02105,-0.01949 0.03817,-0.02801c0.51977,-0.24981 1.05739,-0.4513 1.60443,-0.62952c0.14628,-0.04824 0.28945,-0.10345 0.43803,-0.14628c0.01867,-0.00467 0.0389,-0.00541 0.0584,-0.00467c0.0249,-0.02252 0.04898,-0.04742 0.07388,-0.06847c0.4513,-0.37815 0.98122,-0.49331 1.56323,-0.37971c0.06536,0.01245 0.13146,0.03112 0.19764,0.0498c0.18281,-0.02719 0.36644,-0.04898 0.55007,-0.07077c0.41083,-0.04906 0.82322,-0.09026 1.23643,-0.1136c0.04046,-0.00238 0.07855,0.01401 0.11516,0.03186c0.02719,-0.01163 0.04898,-0.02801 0.09337,-0.02564c0.89243,0.05676 1.94991,-0.33999 2.80655,0.02875c0.38831,0.02727 0.77654,0.06307 1.16485,0.10738c0.04046,0.00467 0.07003,0.02646 0.0996,0.04669c0.68939,-0.42631 1.45193,0.09182 2.14672,0.24825c0.76491,0.0801 1.87603,0.17814 2.33044,0.88777c0.01712,0 0.02719,-0.00934 0.04513,-0.00622c0.81774,0.14006 1.33677,0.82945 1.73433,1.50017c0.00622,0.01089 0.00549,0.01949 0.00934,0.02883c0.00082,0.00074 0.00156,0.00074 0.00238,0.00156c0.39134,0.45826 0.79521,0.9057 0.9469,1.49706c0.01089,0.00696 0.02261,0.01245 0.03194,0.02179c0.63804,0.65204 1.40057,1.65808 0.97491,2.61284c-0.00311,0.00852 -0.01401,0.00852 -0.01867,0.01556c0.35014,0.79128 0.4241,1.75071 0.18986,2.58172c-0.00622,0.02097 -0.02646,0.0249 -0.0389,0.0389z" fill="#000000"></path></g><path d="M220.29842,183.7159c0.22327,-0.32058 0.46915,-0.69955 0.6201,-1.0551c0.13539,-0.31517 0.14628,-0.96951 0.60929,-0.90415c0.40928,0.05676 0.87065,0.23187 1.05043,0.60847c0.11123,0.22638 0.10115,0.28863 0.35014,0.3431c0.23032,0.04906 0.37349,0.09804 0.59209,0.2218c0.91119,0.51117 1.61066,1.2574 2.38253,1.94753c0.3603,0.32295 0.77965,0.66376 0.41943,1.16796c-0.24743,0.34547 -0.7618,0.42091 -1.15158,0.45285c0.0163,0.29412 -0.33614,0.62166 -0.45367,0.87843c-0.07003,0.14939 0.21475,0.14554 0.23032,0.277c0.01638,0.17118 0.0747,0.20157 -0.00696,0.41083c-0.11205,0.29494 -0.2381,0.63804 -0.41862,0.90497c-0.09026,0.13228 -0.20386,0.25366 -0.33302,0.35555c-0.11286,0.08952 -0.37275,0.15799 -0.41943,0.28478c0.29805,0.21009 0.8808,0.27545 0.80848,0.81471c-0.06069,0.46915 -0.46612,0.79833 -0.64582,1.20367c-0.2023,0.45367 -0.47546,0.66531 -0.84501,1.00923c-0.16422,0.15636 -0.44122,0.6925 -0.65516,0.75786c-0.19452,0.05987 -0.38282,-0.04513 -0.56105,-0.08641c-0.59602,-0.14546 -1.10023,-0.5205 -0.6699,-1.15936c-0.44196,0.34392 -1.03487,0.83412 -1.50639,1.14069c-0.50036,0.32762 -0.73534,0.21942 -1.24028,0.01401c-0.46219,-0.18748 -1.10416,-0.33065 -1.39828,-0.76171c-0.16569,-0.24047 -0.09411,-0.29879 0.11598,-0.43966c0.23032,-0.15324 0.40223,-0.35866 0.6147,-0.53607c0.42402,-0.34703 0.74075,-0.98122 0.96091,-1.47527c0.23114,-0.51354 0.33851,-0.87073 0.5626,-1.37805c0.18363,-0.41002 0.37578,-0.76409 0.46293,-1.20916c0.10042,-0.5205 0.09575,-1.0691 0.09575,-1.60443c0,-0.43885 -0.04202,-0.85435 -0.04202,-1.29786c0,-0.09182 -0.02883,-0.23261 0,-0.3182c0.04669,-0.13694 0.0661,-0.10115 0.17274,-0.19608c0.12761,-0.11671 0.21705,-0.24121 0.32058,-0.37119" fill="#a86c35" stroke="none" stroke-width="0.95"></path><path d="M223.14543,182.81642v0c-1.0714,0.37971 -2.05884,0.93527 -3.09682,1.38657c-0.11123,0.04898 -0.34081,-0.11049 -0.17347,-0.18363c1.04109,-0.45056 2.0246,-1.00686 3.096,-1.38501c0.11286,-0.04202 0.34547,0.12212 0.17429,0.18207zM221.38538,184.81842v0c0.32451,-0.04742 0.77269,0.15177 1.08622,0.22647c0.89948,0.21394 1.79822,0.4404 2.68369,0.70184c0.04669,0.0163 0.11205,0.04824 0.12212,0.10582c0.10738,0.60225 -0.01401,1.199 -0.46997,1.62466c-0.0887,0.08248 -0.36644,-0.03424 -0.27078,-0.12376c0.3906,-0.36177 0.50732,-0.82789 0.47464,-1.35077c-0.01556,-0.26144 -1.26518,-0.44581 -1.47527,-0.49872c-0.37267,-0.09419 -0.7423,-0.18756 -1.11497,-0.27782c-0.25137,-0.06143 -0.67072,-0.24743 -0.92905,-0.21082c-0.13228,0.01867 -0.30428,-0.16807 -0.10664,-0.1969zM220.94735,186.38321v0c1.29164,0.51117 2.64708,0.86909 4.02349,1.06443c0.05062,0.00696 0.16496,0.04202 0.1634,0.11278c-0.01401,0.99907 -0.50027,2.05032 -1.60206,2.12346c-0.13072,0.00934 -0.30813,-0.18134 -0.1082,-0.19608c0.65827,-0.04357 1.02086,-0.48324 1.25666,-1.0551c0.07543,-0.17896 0.10656,-0.37193 0.13694,-0.56023c0.06454,-0.38594 -0.37349,-0.3105 -0.61314,-0.35792c-1.15551,-0.2272 -2.28686,-0.54467 -3.38316,-0.97729c-0.18519,-0.0747 -0.01638,-0.20935 0.12605,-0.15406zM221.06636,188.86222v0c1.22472,0.15095 2.35067,0.65589 3.50765,1.05198c0.06069,0.02023 0.13072,0.05602 0.12294,0.1299c-0.0801,0.76958 -0.56097,1.38501 -1.00915,1.98496c-0.36882,0.48938 -0.63493,1.16166 -1.23488,1.3982c-0.39994,0.15799 -0.95083,-0.05209 -1.28771,-0.26685c-0.5377,-0.33925 -0.25677,-0.84968 0.00467,-1.2574c0.05602,-0.08797 0.32058,-0.01171 0.2793,0.10189c-0.02408,0.0747 -0.03653,0.08559 -0.09566,0.13465c-0.09108,0.07388 -0.35252,-0.0584 -0.22958,-0.15873c0.01245,-0.01712 0.01949,-0.03661 0.03194,-0.05447c0.09411,0.03424 0.18674,0.06765 0.28011,0.10271c-0.45367,0.70651 0.51428,1.68765 1.22702,0.94305c0.20542,-0.21246 0.35407,-0.4988 0.5151,-0.74468c0.35563,-0.53451 0.7672,-1.00137 1.05354,-1.58338c0.34859,-0.70733 -0.22254,-0.72756 -0.78121,-0.93298c-0.76565,-0.28634 -1.5367,-0.55089 -2.3537,-0.65278c-0.15562,-0.01867 -0.23269,-0.21942 -0.03039,-0.19608zM221.54567,191.95355v0c-0.88703,0.54778 -1.2574,1.35782 -2.35607,1.55152c-0.85902,0.14866 -1.67135,-0.58202 -2.31324,-1.01849c-0.16651,-0.11205 0.07937,-0.19141 0.1883,-0.11598c0.88777,0.5984 1.6091,1.20687 2.74979,0.70422c0.58668,-0.25915 0.94846,-0.93994 1.5009,-1.28074c0.10042,-0.06069 0.36652,0.07699 0.23032,0.15947zM223.11898,182.64753v0c1.14462,0.53689 2.13042,1.55545 3.04858,2.40587c0.37275,0.34236 0.43811,0.5291 0.17118,0.95943c-0.22638,0.36644 -0.71274,0.53533 -1.11497,0.5898c-0.13228,0.01712 -0.30501,-0.16807 -0.10664,-0.19534c0.32524,-0.04742 1.48387,-0.51428 0.97418,-1.11423c-0.30108,-0.34777 -0.68939,-0.6201 -1.04109,-0.91037c-0.67768,-0.56023 -1.24651,-1.20056 -2.05646,-1.58109c-0.18134,-0.08633 -0.01556,-0.22098 0.12523,-0.15406zM222.13939,184.51578v0c0.31435,0.20149 0.66679,0.3906 0.91815,0.67539c0.11827,0.13694 -0.1634,0.16258 -0.24277,0.07314c-0.23498,-0.26537 -0.56957,-0.44278 -0.86606,-0.63181c-0.04742,-0.03112 -0.07937,-0.10115 -0.01867,-0.13776c0.06307,-0.03809 0.14939,-0.01474 0.20935,0.02105zM219.84713,183.91738v0c0.62714,-0.47226 1.16788,-1.40442 1.24651,-2.18022c0.00622,-0.0389 0.0638,-0.05832 0.09337,-0.05914c0.8668,-0.02334 1.7001,0.25366 1.63474,1.25896c-0.01007,0.11909 -0.30419,0.05217 -0.2933,-0.0801c0.03964,-0.59291 -0.277,-0.90259 -0.85124,-0.97811c-0.27004,-0.03424 -0.29338,0.04357 -0.34941,0.27004c-0.04742,0.17585 -0.12294,0.34392 -0.19993,0.50961c-0.24047,0.5237 -0.58595,1.06837 -1.05198,1.41695c-0.09337,0.07158 -0.35792,-0.06151 -0.22876,-0.15799z" fill="#000000" stroke="none" stroke-width="0.95"></path><path d="M264.59145,165.37308c-0.18674,0.37815 -1.14691,0.93756 -1.56938,1.05977c-0.6536,0.18904 -1.7227,0.17429 -2.32421,-0.09337c-0.50183,-0.22409 -0.92511,-0.58595 -1.19745,-0.81856c-0.50658,-0.43655 -0.64738,-0.53533 -0.9501,-1.08933c-0.15873,-0.29256 -0.3929,-0.76876 -0.31435,-1.13839c0.05758,-0.26685 0.40772,-0.45596 0.30813,-0.7835c-0.06069,-0.19919 -0.23572,-0.15718 -0.31509,-0.30501c-0.05995,-0.10975 -0.04046,-0.30968 -0.06847,-0.4404c-0.06307,-0.29805 -0.11205,-0.52681 -0.1136,-0.86213c-0.00622,-0.65909 -0.08092,-1.35544 0.18519,-1.96162c0.27545,-0.62788 0.32287,-1.21145 0.46997,-1.84409c0.07388,-0.31435 0.22483,-0.61232 0.28323,-0.94068c0.06143,-0.33073 0.01712,-0.68006 0.04824,-1.02086c0.02719,-0.32213 0.09182,-0.63886 0.07003,-0.97966c-0.01949,-0.29953 -0.25522,-0.68235 -0.15799,-0.9804c0.17118,-0.52984 1.43563,-0.29019 1.64104,0.15718c0.09337,0.20386 0.13228,0.74542 0.16414,0.9804c0.04513,0.33384 0.00622,0.67539 -0.11827,0.97262c-0.26144,0.62174 -0.49872,1.19827 -0.39216,1.92894c0.04824,0.32836 0.1331,0.65049 0.51903,0.56023c0.11123,-0.02646 0.23032,-0.19223 0.34154,-0.24432c0.14088,-0.06774 0.18052,-0.44433 0.33458,-0.5486c0.24277,-0.16414 0.46841,-0.04742 0.56727,-0.31042c0.13613,-0.36415 0.20853,-0.64197 0.38438,-0.99367c0.15324,-0.30657 0.14628,-0.65589 0.29019,-0.96869c0.14784,-0.32058 0.21557,-0.51354 0.26611,-0.86213c0.1136,-0.75475 0.66687,-1.35077 1.06837,-1.94991c0.45285,-0.67309 0.72985,-1.3407 1.36322,-1.86432c0.50265,-0.4155 0.7672,-1.27763 1.5702,-0.85361c0.8473,0.44663 0.7197,1.07377 0.31353,1.67684c-0.62714,0.93912 -0.63878,1.12668 -1.02004,1.79273c-0.17896,0.31746 -0.51821,0.51821 -0.74623,0.81151c-0.33065,0.42484 -0.76794,1.31269 -0.7446,1.95695c0.19764,-0.39527 0.71274,-1.10571 1.02086,-1.42391c0.93527,-0.96328 1.58027,-2.39342 2.5397,-3.16611c0.23417,-0.1883 0.46293,-0.34547 0.67539,-0.5454c0.30034,-0.28167 0.18592,-0.37275 0.65671,-0.26693c0.83412,0.18674 0.86835,0.61396 0.79906,1.39902c0.34318,-0.07232 0.53222,-0.22483 0.89325,-0.07388c0.49798,0.21009 0.70422,0.86524 0.46301,1.36322c-0.17511,0.35555 -0.57194,0.52829 -0.85361,0.7921c-0.32058,0.3019 -0.51666,0.70651 -0.81544,1.02086c-0.2046,0.21705 -0.47931,0.43729 -0.66523,0.67694c-0.2856,0.37037 -0.554,0.817 -0.67465,1.24725c-0.11745,0.40772 -0.29641,0.51592 -0.56719,0.82478c-0.20853,0.23736 -0.04357,0.53926 0.14235,0.8559c0.05217,0.0086 0.09575,0.00393 0.14939,0c0.14628,-0.00934 0.35326,-0.30346 0.46997,-0.38356c0.17356,-0.12065 0.37586,-0.21557 0.55794,-0.31279c0.36333,-0.19452 0.71896,-0.38364 1.05821,-0.61781c0.58898,-0.40617 1.11268,-1.11194 1.87283,-1.10883c0.39609,0.00156 0.49569,0.14784 0.47857,0.55015c-0.01401,0.36104 -0.19846,0.5151 -0.47857,0.77498c-0.31198,0.28552 -0.69947,0.49642 -1.05117,0.75082c-0.33147,0.24277 -0.59995,0.59373 -0.90808,0.8645c-0.63878,0.5649 -1.28926,1.05117 -1.79896,1.72966c-0.53533,0.71511 -0.80766,1.8449 -1.23873,2.62456c-0.17814,0.32836 -0.53533,0.87614 -0.69717,1.21538c-0.1883,0.39757 -0.24277,0.07699 -0.58357,0.38356c-0.4816,0.42877 -1.185,0.69562 -1.76546,0.83182" fill="#a86c35" stroke="none" stroke-width="0.95"></path><path d="M262.2502,156.17132v0c-0.40698,0.75164 -0.73223,1.64489 -1.62311,1.90551c-0.11049,0.03268 -0.29568,-0.00229 -0.3517,-0.11434c-0.40232,-0.79833 -0.05995,-1.77717 0.12761,-2.59032c0.11049,-0.47931 0.20771,-0.96402 0.16496,-1.45659c-0.08174,-0.93756 -1.75071,-1.48149 -1.52589,-0.24817c0.2965,1.63318 -0.02097,3.40183 -0.5563,4.95647c-0.57579,1.67135 -0.27938,3.85853 1.03405,5.11749c0.16111,0.15251 -0.2272,0.12605 -0.30813,0.0475c-1.27141,-1.21694 -1.59894,-3.11787 -1.25585,-4.79389c0.24825,-1.21923 0.66531,-2.32184 0.77113,-3.58153c0.07543,-0.9057 -0.22098,-1.80674 -0.00934,-2.68369c0.00934,-0.04431 0.08166,-0.04824 0.11516,-0.04824c0.95083,0.03579 2.11871,0.29568 2.13739,1.46282c0.01867,1.22628 -0.89481,2.70392 -0.30813,3.87491c-0.11671,-0.0389 -0.23498,-0.07699 -0.35088,-0.11516c0.85435,-0.2521 1.15781,-1.11964 1.54759,-1.8363c0.06618,-0.12056 0.44122,0.01171 0.39142,0.10353zM261.85878,156.0678v0c0.82634,-2.56927 2.01215,-5.08481 4.05232,-6.91178c0.09419,-0.08403 0.45678,0.06454 0.36497,0.14628c-2.02772,1.81919 -3.20502,4.31605 -4.02668,6.86976c-0.03735,0.1222 -0.4264,0.00934 -0.3906,-0.10426zM265.89554,149.23456v0c0.66138,-0.60298 2.03238,-0.12916 1.68929,0.87073c-0.04357,0.12212 -0.43106,0.00852 -0.39216,-0.10508c0.09566,-0.27618 0.09566,-0.60536 -0.17822,-0.77883c-0.24195,-0.15177 -0.56563,-0.01327 -0.75238,0.15947c-0.09419,0.0833 -0.45596,-0.06454 -0.36652,-0.14628zM263.94956,156.11448v0c0.40379,-0.85435 0.80373,-1.70558 1.25118,-2.53733c0.29723,-0.55015 0.61076,-1.09326 0.91889,-1.63711c0.36652,-0.64426 0.86369,-1.22398 1.07377,-1.93828c0.03661,-0.12138 0.42566,-0.01319 0.39216,0.10426c-0.18207,0.61707 -0.55007,1.06525 -0.88703,1.60599c-0.36104,0.5789 -0.67768,1.19286 -1.00759,1.79118c-0.48946,0.88629 -0.9166,1.80133 -1.34848,2.71793c-0.05676,0.11983 -0.43958,-0.00704 -0.3929,-0.10664zM264.12386,156.12849v0c1.60288,-2.14754 2.61284,-4.84286 4.9432,-6.34614c0.10975,-0.06921 0.45441,0.08797 0.3657,0.14628c-2.33347,1.5041 -3.33958,4.19475 -4.94402,6.34541c-0.07158,0.09722 -0.44818,-0.03268 -0.36489,-0.14554zM269.45381,149.80495v0c0.61158,0.09255 1.48149,0.60765 1.0465,1.32276c-0.07388,0.11901 -0.44196,-0.02023 -0.3929,-0.10582c0.29797,-0.48791 -0.07707,-0.94772 -0.59373,-1.02479c-0.07003,-0.01007 -0.19919,-0.04357 -0.22483,-0.12368c-0.0249,-0.08174 0.12605,-0.0747 0.16496,-0.06847zM266.0193,156.93459v0c0.5065,-0.87147 1.01464,-1.69936 1.58109,-2.53733c0.35326,-0.52681 0.62559,-1.08704 1.00997,-1.59125c0.48782,-0.64033 1.0854,-1.1741 1.51491,-1.8612c0.0747,-0.11745 0.44278,0.02261 0.39142,0.10508c-0.65049,1.03872 -1.57413,1.83393 -2.18571,2.90696c-0.60069,1.05272 -1.31261,2.03394 -1.92034,3.08199c-0.06921,0.12065 -0.4404,-0.01786 -0.39134,-0.10426zM265.66522,157.43806v0c1.6037,-2.14836 2.61284,-4.84286 4.94639,-6.3477c0.10811,-0.06929 0.45441,0.08788 0.36489,0.14628c-2.33429,1.50484 -3.33958,4.19623 -4.94402,6.3477c-0.07232,0.09493 -0.44818,-0.03424 -0.36726,-0.14628zM270.99673,151.1137v0c0.61158,0.09255 1.48076,0.6061 1.04576,1.32276c-0.07232,0.11901 -0.44196,-0.01949 -0.39134,-0.10508c0.29723,-0.48938 -0.07937,-0.94846 -0.59446,-1.02709c-0.0724,-0.00934 -0.20075,-0.04202 -0.22491,-0.12294c-0.02646,-0.08092 0.1245,-0.0747 0.16496,-0.06765zM267.87428,158.19355v0c0.03112,-0.9967 0.82945,-1.93123 1.37567,-2.71244c0.31124,-0.44974 0.56563,-0.92978 0.90103,-1.36634c0.48782,-0.64033 1.08311,-1.17337 1.51262,-1.8612c0.07699,-0.11671 0.44351,0.02179 0.3906,0.10582c-0.64893,1.03642 -1.53834,1.88381 -2.20283,2.91868c-0.58586,0.91193 -1.5507,1.87906 -1.5865,3.01975c-0.00393,0.10582 -0.39609,0.03268 -0.3906,-0.10426zM268.0353,158.24106v0c0.63574,-0.75631 1.57724,-1.11038 2.36312,-1.67995c0.64271,-0.46604 1.27993,-0.96713 2.08914,-1.07606c0.1082,-0.01556 0.45752,0.16569 0.24277,0.19452c-0.91422,0.12138 -1.61999,0.79439 -2.34985,1.29942c-0.68006,0.47226 -1.43554,0.76016 -1.97947,1.40991c-0.07937,0.09255 -0.45048,-0.04284 -0.3657,-0.14784zM272.48289,155.51306v0c0.31591,0.01712 0.65442,0.1299 0.75942,0.4567c0.10271,0.31746 -0.09337,0.68087 -0.32598,0.88474c-0.09493,0.08248 -0.45678,-0.06692 -0.36497,-0.14628c0.15955,-0.1385 0.25988,-0.30894 0.30739,-0.51436c0.04046,-0.17274 0.00696,-0.46759 -0.21787,-0.48086c-0.08641,-0.00541 -0.20157,-0.02801 -0.25833,-0.10271c-0.05758,-0.07003 0.04587,-0.09878 0.10033,-0.09722zM269.03593,159.5327v0c1.16559,-0.94928 2.33273,-1.897 3.51781,-2.8253c0.10033,-0.07937 0.4567,0.07396 0.36489,0.14628c-1.18426,0.92831 -2.3514,1.87603 -3.51699,2.8253c-0.09878,0.08092 -0.45752,-0.07085 -0.3657,-0.14628zM269.41335,159.65948v0c-0.62559,1.28001 -1.2411,2.57238 -1.9857,3.78932c-0.39298,0.63648 -0.87695,1.35077 -1.55775,1.71263c-1.42236,0.75475 -3.18863,-0.10582 -4.52622,-0.65516c-0.25595,-0.10582 -0.01786,-0.20542 0.1471,-0.13694c1.3375,0.55089 3.04546,1.40991 4.36667,0.40535c1.53825,-1.16788 2.35058,-3.55352 3.16374,-5.22176c0.06143,-0.12138 0.4404,0.00852 0.39216,0.10656zM262.39182,156.62262v0c1.31654,0.26996 2.56771,0.64426 3.79784,1.18344c0.76565,0.3354 1.61688,0.78743 1.92894,1.60992c0.04202,0.11123 -0.34392,0.06225 -0.38905,-0.05447c-0.63181,-1.66127 -3.79399,-2.24329 -5.27704,-2.54748c-0.17356,-0.03506 -0.33147,-0.24514 -0.06069,-0.19141zM260.84963,158.45892v0c0.76171,0.73526 1.39902,1.29631 1.46356,2.41676c0.04669,0.86524 -0.15562,1.89773 -0.88154,2.44478c-0.10271,0.07699 -0.45678,-0.07707 -0.3657,-0.14628c0.61314,-0.46145 0.7781,-1.20998 0.84657,-1.93672c0.1159,-1.24258 -0.52992,-1.92034 -1.37182,-2.73341c-0.15947,-0.15333 0.22802,-0.12294 0.30894,-0.04513z" fill="#000000" stroke="none" stroke-width="0.95"></path></g></g></svg>