<svg version="1.1" xmlns="http://www.w3.org/2000/svg" xmlns:xlink="http://www.w3.org/1999/xlink" width="37.03901" height="35.67591" viewBox="0,0,37.03901,35.67591"><g transform="translate(-221.55005,-162.40005)"><g data-paper-data="{&quot;isPaintingLayer&quot;:true}" fill-rule="nonzero" stroke-linecap="butt" stroke-linejoin="miter" stroke-miterlimit="10" stroke-dasharray="" stroke-dashoffset="0" style="mix-blend-mode: normal"><path d="M240.0695,196.9843v0c-9.5003,0 -17.4278,-6.5645 -17.4278,-16.064c0,-9.5003 7.9283,-17.4286 17.4278,-17.4286c9.4996,0 17.4286,7.9297 17.4279,17.4293c0,9.4981 -7.9269,16.0633 -17.4279,16.0633z" fill="#faac18" stroke="#04ff00" stroke-width="2.18331"></path><g fill="#231f20" stroke="none" stroke-width="0.72777"><path d="M231.9139,190.3769c0.222,0.0174 0.23,1.0305 -0.556,1.0545c-0.7801,0.024 -0.9141,-0.9803 -0.6346,-1.0043c0.1383,-0.0124 0.0786,0.3588 0.5939,0.3588c0.5152,0 0.4861,-0.4178 0.5967,-0.409z"></path><path d="M238.482,192.1068c0.2773,0.0211 0.289,1.2874 -0.6972,1.3187c-0.9752,0.0313 -1.1426,-1.2263 -0.7932,-1.2561c0.1739,-0.016 0.0982,0.449 0.7423,0.449c0.6441,0 0.6077,-0.5225 0.7481,-0.5116z"></path><path d="M245.3049,190.2459c0.278,0.0196 0.2889,1.2852 -0.6965,1.3187c-0.9752,0.0313 -1.1426,-1.2256 -0.7933,-1.2561c0.1747,-0.0168 0.0983,0.449 0.7424,0.449c0.644,0 0.6076,-0.5218 0.7474,-0.5116z"></path><path d="M244.0204,193.5623c0.2772,0.0211 0.2882,1.2874 -0.6958,1.3187c-0.9766,0.0313 -1.1433,-1.2263 -0.7947,-1.2561c0.1739,-0.016 0.1004,0.449 0.743,0.449c0.6427,0 0.6077,-0.5225 0.7475,-0.5116z"></path><path d="M240.7185,186.3472c0.2212,0.0168 0.2307,1.0291 -0.5575,1.056c-0.7787,0.0233 -0.9141,-0.9817 -0.6346,-1.0058c0.1383,-0.0123 0.0786,0.3588 0.5939,0.3588c0.5152,0 0.4861,-0.4177 0.5982,-0.409z"></path><path d="M228.1645,184.4863c0.2212,0.016 0.2307,1.0291 -0.5575,1.0553c-0.7787,0.024 -0.9141,-0.981 -0.6346,-1.0043c0.1383,-0.0139 0.0786,0.358 0.5938,0.358c0.5153,0 0.4862,-0.417 0.5983,-0.409z"></path><path d="M235.1256,187.2802c0.2219,0.0146 0.2307,1.0284 -0.556,1.0546c-0.7802,0.0247 -0.9141,-0.9803 -0.6347,-1.0044c0.1383,-0.0131 0.0786,0.3588 0.5939,0.3588c0.5153,0 0.4862,-0.4184 0.5968,-0.409z"></path><path d="M229.3748,180.7056c0.1935,0.0152 0.2015,0.9017 -0.4884,0.9228c-0.6834,0.0204 -0.8013,-0.8581 -0.5567,-0.8792c0.1208,-0.0094 0.0698,0.3144 0.5196,0.3144c0.4512,0 0.4257,-0.3653 0.5255,-0.358z"></path><path d="M236.4108,180.6415c0.2213,0.0153 0.2307,1.0291 -0.5575,1.0546c-0.7779,0.0247 -0.914,-0.9803 -0.6346,-1.0044c0.1383,-0.0131 0.0786,0.3588 0.5939,0.3588c0.5153,0 0.4861,-0.4177 0.5982,-0.409z"></path><path d="M233.1235,174.9788c0.195,0.0138 0.2023,0.9009 -0.4876,0.9213c-0.6827,0.0211 -0.7998,-0.858 -0.5553,-0.8791c0.1215,-0.0095 0.0691,0.3144 0.5196,0.3144c0.4505,0 0.4258,-0.3639 0.5233,-0.3566z"></path><path d="M250.7741,184.4863c0.2219,0.016 0.2307,1.0291 -0.5561,1.0553c-0.7794,0.0247 -0.9133,-0.981 -0.6338,-1.0051c0.1375,-0.0131 0.0778,0.3588 0.5931,0.3588c0.5152,0 0.4861,-0.417 0.5968,-0.409z"></path><path d="M249.3214,171.5342c0.1601,0.0117 0.166,0.7409 -0.4017,0.7584c-0.5618,0.0189 -0.6557,-0.7052 -0.4563,-0.7227c0.0997,-0.0087 0.056,0.2583 0.4272,0.2583c0.3712,0 0.3522,-0.2998 0.4308,-0.294z"></path><path d="M254.7062,182.6058c0.2307,0.0167 0.2394,1.0661 -0.5793,1.0916c-0.8064,0.0255 -0.9439,-1.0159 -0.6557,-1.0392c0.1448,-0.0117 0.0822,0.3711 0.6157,0.3711c0.5334,0 0.5036,-0.4315 0.6193,-0.4235z"></path><path d="M254.6858,186.3472c0.222,0.0168 0.2307,1.0291 -0.556,1.056c-0.7794,0.0233 -0.9134,-0.9817 -0.6339,-1.0058c0.1376,-0.0123 0.0779,0.3588 0.5931,0.3588c0.5153,0 0.4862,-0.4177 0.5968,-0.409z"></path><path d="M231.7458,169.6726c0.1601,0.0109 0.1667,0.7401 -0.4017,0.7576c-0.5626,0.0189 -0.6572,-0.7052 -0.4563,-0.7219c0.099,-0.0088 0.0546,0.2583 0.4272,0.2583c0.3711,0 0.35,-0.2998 0.4308,-0.294z"></path><path d="M254.5002,178.5863c0.1536,0.0116 0.1587,0.711 -0.3813,0.7278c-0.5393,0.0182 -0.6324,-0.6754 -0.4396,-0.6921c0.0939,-0.0088 0.0546,0.2474 0.4097,0.2474c0.3545,0 0.3355,-0.2889 0.4112,-0.2831z"></path><path d="M242.4178,169.6726c0.1601,0.0109 0.1667,0.7401 -0.4017,0.7576c-0.5626,0.0189 -0.6572,-0.7052 -0.4563,-0.7219c0.099,-0.0088 0.0546,0.2583 0.4272,0.2583c0.3711,0 0.35,-0.2998 0.4308,-0.294z"></path><path d="M243.7795,165.9399c0.1594,0.0116 0.1659,0.7401 -0.4032,0.7576c-0.5618,0.0189 -0.6557,-0.7052 -0.4563,-0.722c0.1004,-0.0087 0.056,0.2577 0.4272,0.2577c0.3726,0 0.3515,-0.2992 0.4323,-0.2933z"></path><path d="M250.1118,189.4475c0.2212,0.0168 0.2307,1.0284 -0.5575,1.0546c-0.7794,0.024 -0.9141,-0.9811 -0.6339,-1.0036c0.1376,-0.0139 0.0779,0.358 0.5932,0.358c0.5152,0 0.4861,-0.4192 0.5982,-0.409z"></path><path d="M226.1107,175.9096c0.1943,0.0145 0.2031,0.9009 -0.4876,0.9221c-0.6826,0.0211 -0.7998,-0.8588 -0.5553,-0.8792c0.1216,-0.0102 0.0692,0.3144 0.5196,0.3144c0.4505,0 0.4258,-0.3646 0.5233,-0.3573z"></path><path d="M244.6586,175.6971c0.1936,0.0138 0.2016,0.9002 -0.4883,0.922c-0.6841,0.0211 -0.8013,-0.8587 -0.5568,-0.8791c0.1209,-0.0102 0.0706,0.3144 0.5197,0.3144c0.4505,0 0.4257,-0.3646 0.5254,-0.3573z"></path><path d="M252.659,173.0815c0.1528,0.0109 0.1594,0.7103 -0.3821,0.7277c-0.5407,0.0175 -0.6332,-0.6761 -0.4396,-0.6928c0.0946,-0.0087 0.0539,0.2482 0.409,0.2482c0.3559,0 0.3355,-0.289 0.4127,-0.2831z"></path><path d="M246.4417,185.9208c0.2212,0.0152 0.2299,1.029 -0.5575,1.0545c-0.7795,0.0247 -0.9141,-0.9803 -0.6339,-1.0043c0.1375,-0.0124 0.0779,0.3588 0.5931,0.3588c0.5153,0 0.4862,-0.4185 0.5983,-0.409z"></path><path d="M246.0181,180.6415c0.2212,0.0153 0.2307,1.0291 -0.5575,1.0546c-0.7794,0.0247 -0.9133,-0.9803 -0.6346,-1.0044c0.1383,-0.0131 0.0786,0.3588 0.5939,0.3588c0.516,0 0.4861,-0.4177 0.5982,-0.409z"></path><path d="M249.9262,177.6562c0.1543,0.0109 0.1594,0.7096 -0.3813,0.7278c-0.5393,0.0182 -0.6325,-0.6761 -0.4396,-0.6929c0.0939,-0.0087 0.0546,0.2475 0.4097,0.2475c0.3559,0 0.3355,-0.2882 0.4112,-0.2824z"></path><path d="M241.3014,182.624c0.222,0.0174 0.2315,1.029 -0.556,1.0545c-0.7802,0.0255 -0.9155,-0.9803 -0.6346,-1.0036c0.1368,-0.0131 0.0771,0.3581 0.5924,0.3581c0.5153,0 0.4861,-0.4185 0.5982,-0.409z"></path><path d="M238.9049,175.6971c0.1936,0.0138 0.2023,0.9002 -0.4876,0.922c-0.6841,0.0211 -0.7998,-0.8587 -0.5553,-0.8791c0.1215,-0.0102 0.0691,0.3144 0.5196,0.3144c0.4505,0 0.4258,-0.3646 0.5233,-0.3573z"></path></g><path d="M237.8076,168.4885v0c-1.8456,0.1776 -2.0516,-1.9788 -0.2045,-2.1564c1.8471,-0.1761 2.0523,1.9803 0.2045,2.1564" fill="#231f20" stroke="none" stroke-width="0.72777"></path></g></g></svg>