<svg version="1.1" xmlns="http://www.w3.org/2000/svg" xmlns:xlink="http://www.w3.org/1999/xlink" width="716.6447" height="541.05423" viewBox="0,0,716.6447,541.05423"><defs><linearGradient x1="-117.81297" y1="179.66339" x2="596.83174" y2="179.66339" gradientUnits="userSpaceOnUse" id="color-1"><stop offset="0" stop-color="#00ff6b"></stop><stop offset="1" stop-color="#00ffe8"></stop></linearGradient><linearGradient x1="419.25094" y1="334.36445" x2="478.89085" y2="334.36445" gradientUnits="userSpaceOnUse" id="color-2"><stop offset="0" stop-color="#00ff6b"></stop><stop offset="1" stop-color="#00ffe8"></stop></linearGradient><linearGradient x1="454.88485" y1="344.86707" x2="478.14066" y2="344.86707" gradientUnits="userSpaceOnUse" id="color-3"><stop offset="0" stop-color="#00ff6b"></stop><stop offset="1" stop-color="#00ffe8"></stop></linearGradient></defs><g transform="translate(118.81297,90.86373)"><g data-paper-data="{&quot;isPaintingLayer&quot;:true}" fill-rule="nonzero" stroke-width="2" stroke-linejoin="miter" stroke-miterlimit="10" stroke-dasharray="" stroke-dashoffset="0" style="mix-blend-mode: normal"><path d="M-117.81297,449.1905v-539.05423h714.6447v539.05423z" fill="#ffffff" stroke="url(#color-1)" stroke-linecap="butt"></path><path d="M478.9194,359.0174l-477.8849,0.46255l-0.69782,-322.84757l100.51115,-0.46168l0.26969,32.59016l-61.81346,0.92336l0.34669,98.03382l26.75161,-0.92336l0.1972,-62.06646l73.61238,-0.55429l0.11694,61.92909l-37.70504,0.23192l0.05276,-30.78912" fill="none" stroke="#000000" stroke-linecap="round"></path><path d="M262.03498,100.06564l-0.21283,32.84791l-82.86209,0.89597v-30.5687l36.75308,-0.23193l0.03899,-38.22107l47.02068,0.61048l-0.00018,-34.22967l-83.34816,-0.23192v33.95285l-38.52175,0.52192l-0.23539,-64.14027" fill="none" stroke="#000000" stroke-linecap="round"></path><path d="M385.42374,69.01474l-0.8086,97.20379h-82.47664l-162.12471,-0.19905" fill="none" stroke="#000000" stroke-linecap="round"></path><path d="M442.48703,35.68245l-58.56572,-0.08612l0.30516,-34.59404" fill="none" stroke="#000000" stroke-linecap="round"></path><path d="M424.69933,105.43761l18.62998,0.14583l-0.14583,62.16071l-19.75579,-0.46168v-96.22274h56.60162" fill="none" stroke="#000000" stroke-linecap="round"></path><path d="M125.2183,281.96377l91.55611,0.09698v-76.99745l80.05086,0.20835v114.88616l181.48107,0.53925" fill="none" stroke="#000000" stroke-linecap="round"></path><path d="M299.38043,66.48611l48.84796,0.31585l-0.80859,66.51954l-48.16876,0.46169z" fill="none" stroke="#000000" stroke-linecap="round"></path><path d="M299.24283,33.96545l46.58262,-0.14582" fill="none" stroke="#000000" stroke-linecap="round"></path><path d="M339.33385,279.2095l42.04692,0.12664v-38.81254l-43.66411,-0.80859v-36.38675l107.83921,0.73786" fill="none" stroke="#000000" stroke-linecap="round"></path><path d="M256.04862,237.6302v42.04692" fill="none" stroke="#000000" stroke-linecap="round"></path><path d="M177.93081,282.20397l-0.31585,-78.53474" fill="none" stroke="#000000" stroke-linecap="round"></path><path d="M137.95538,203.17032v40.12005l-66.15416,-0.46168" fill="none" stroke="#000000" stroke-linecap="round"></path><path d="M38.49231,319.71781l44.89219,0.22775l-0.3751,-37.03406l-44.88154,0.3751l-0.75019,-77.62508l60.4403,-0.0828" fill="none" stroke="#000000" stroke-linecap="round"></path><path d="M83.38449,320.088l104.781,0.45271l-0.0388,39.99585" fill="none" stroke="#000000" stroke-linecap="round"></path><path d="M228.25727,320.52227l69.78828,-0.29912" fill="none" stroke="#000000" stroke-linecap="round"></path><path d="M0.50524,1.32356l478.09781,-0.16338l0.29877,319.32809" fill="none" stroke="#000000" stroke-linecap="round"></path><path d="M419.42864,319.2548l0.36893,-78.82988h26.44678l-0.09845,48.30606l-26.16945,-0.74402" fill="none" stroke="#000000" stroke-linecap="round"></path><path d="M454.88485,329.30068l24.00601,10.12754h-59.63991" fill="none" stroke="url(#color-2)" stroke-linecap="round"></path><path d="M478.14066,339.80331l-23.25581,10.12753" fill="none" stroke="url(#color-3)" stroke-linecap="round"></path><path d="M66.44405,105.0458l-0.46168,-35.5494" fill="none" stroke="#000000" stroke-linecap="round"></path><path d="M478.2095,323.40904v32.69352" fill="none" stroke="#ff0000" stroke-linecap="round"></path></g></g></svg>