<svg version="1.1" xmlns="http://www.w3.org/2000/svg" xmlns:xlink="http://www.w3.org/1999/xlink" width="51.87518" height="162.51114" viewBox="0,0,51.87518,162.51114"><g transform="translate(-201.54981,-115.21625)"><g data-paper-data="{&quot;isPaintingLayer&quot;:true}" fill-rule="nonzero" stroke="none" stroke-width="0.95" stroke-linecap="butt" stroke-linejoin="miter" stroke-miterlimit="10" stroke-dasharray="" stroke-dashoffset="0" style="mix-blend-mode: normal"><path d="M228.76939,122.94504c0.44212,0.14333 1.21591,0.44449 1.53478,0.7682c0.42279,0.42923 0.89627,0.87212 1.30855,1.32949c0.55561,0.6152 0.74726,1.25778 1.07656,1.99377c0.29718,0.66191 0.84474,1.50096 0.98324,2.20389c0.27056,1.36407 -0.26251,2.99794 0.44364,4.23479c0.34303,0.59986 0.72794,0.98561 1.03477,1.61607c0.20851,0.43084 0.26251,0.86889 0.42432,1.31178c0.15138,0.41143 0.11197,0.74887 0.1168,1.20057c0.00882,0.87373 -0.09587,1.59437 -0.41228,2.40046c-0.35515,0.90424 -0.52663,1.70304 -1.06936,2.53489c-0.36643,0.56282 -0.36558,1.29804 -0.58384,1.9285c-0.13206,0.37685 -0.34702,0.73438 -0.59749,1.0235c-0.12562,0.14333 -0.16986,0.44848 -0.26573,0.62402c-0.07891,0.1474 -0.20936,0.1385 -0.29709,0.25691c-0.49365,0.67157 -1.83196,0.71742 -2.56473,0.78023c-0.55316,0.04755 -1.01299,-0.11595 -1.57098,-0.13045c-0.39779,-0.01127 -0.69818,-0.07891 -1.04927,-0.16342c-0.14732,0.50645 -0.35346,1.2755 -0.21979,1.82789c0.13689,0.56604 0.77701,0.75209 1.16353,1.10716c0.28912,0.26573 0.44856,0.42194 0.37126,0.81414c-0.03467,0.18037 -0.1007,0.554 -0.16673,0.72149c-0.21818,0.54595 -1.02503,0.84787 -1.52834,1.03232c-1.94868,0.71259 -3.58492,-0.29234 -5.34915,-1.11123c-1.62743,-0.75455 -2.98506,-1.93503 -3.74758,-3.58738c-0.19894,-0.42593 -0.15138,-0.39457 0.01848,-0.84067c0.11519,-0.30031 0.23759,-0.62563 0.34303,-0.94611c0.27217,-0.83346 0.28505,-1.5686 0.24403,-2.43021c-0.04111,-0.86644 0.02492,-1.8384 -0.34303,-2.60897c-0.3382,-0.70217 -0.4155,-1.25778 -0.63699,-2.03403c-0.36312,0.26166 -0.54273,0.59503 -1.06614,0.55078c-0.39457,-0.03306 -0.92679,-0.40262 -1.24566,-0.65148c-0.40423,-0.31642 -0.72632,-0.64097 -1.09834,-1.01138c-0.45178,-0.45254 -0.7626,-0.54832 -0.85118,-1.19336c-0.08934,-0.63614 -0.25123,-1.50096 -0.07891,-2.12176c0.09748,-0.33905 0.21826,-0.63215 0.29073,-0.98968c0.09417,-0.45254 0.23106,-0.50247 0.68284,-0.63936c0.68284,-0.20614 1.45824,-0.06925 1.97843,0.39618c0.28989,0.25691 0.40745,0.69979 0.67801,0.97595c0.31726,0.32371 0.40262,0.58867 0.95908,0.49687c-0.02255,-0.39541 0.1224,-0.7932 0.04992,-1.19658c-0.06366,-0.35032 -0.277,-0.71268 -0.38575,-1.05571c-0.16825,-0.52018 -0.5234,-0.7448 -0.80685,-1.19336c-0.22386,-0.35269 -0.43881,-0.50645 -0.61681,-0.86322c-0.22301,-0.44364 -0.24072,-0.97993 -0.39618,-1.46469c-0.12155,-0.37524 -0.05069,-0.68767 0.05315,-1.06537c0.23115,-0.83262 0.91636,-1.38577 1.62743,-1.99453c0.1852,-0.26819 0.48391,-0.35354 0.76413,-0.56774c1.35848,-1.04113 2.78375,-1.67083 4.49484,-1.9285c1.46392,-0.22064 3.2057,-0.24564 4.63334,0.29065c0.16028,-0.28344 0.24479,-0.95416 0.52018,-1.0057c0.23513,-0.04509 0.97358,0.31642 1.19175,0.37202" fill="#a16235"/><path d="M218.07668,183.06335c-0.18359,0.19165 -0.18843,0.5846 -0.26734,0.84228c-0.11756,0.37922 -0.1224,0.68038 -0.38651,1.01697c-0.17961,0.2303 -0.455,0.41152 -0.5774,0.68852c-0.08451,0.19648 -0.03941,0.43644 -0.13367,0.6369c-0.1441,0.30523 -0.50323,0.50815 -0.52179,0.85601c-0.01449,0.23674 0.16028,0.56689 -0.20775,0.64495c-0.21818,0.04755 -0.36634,-0.17876 -0.49679,-0.31964c-0.49848,-0.53468 -1.46799,-1.12979 -2.05582,-1.58149c-0.73031,-0.5629 -1.0669,-0.80286 -1.76186,-1.30771c-0.27217,-0.19809 -0.52985,-0.42356 -0.80524,-0.61359c-0.31887,-0.21987 -0.65301,-0.38974 -0.97349,-0.60317c-0.04992,-0.14816 -0.18682,-0.2987 -0.24081,-0.46458c-0.09256,-0.27624 -0.06442,-0.60554 -0.03297,-0.89381c0.02416,-0.25208 0.14977,-0.34388 0.24717,-0.56689c0.1007,-0.21987 0.11197,-0.47348 0.21826,-0.69895c0.25039,-0.53629 0.31803,-1.02994 0.78668,-1.45909c0.48153,-0.4389 0.94213,-0.78032 1.53156,-1.06537c0.55561,-0.2681 1.0919,-0.44364 1.65481,-0.10705c0.25768,0.15376 0.45899,0.46704 0.64012,0.70539c0.20453,0.26971 0.40906,0.52502 0.58545,0.81329c0.33981,0.55722 0.77057,0.93001 1.16836,1.45265c0.22148,0.28904 0.48475,0.61758 0.73921,0.87771c0.30201,0.30836 0.7014,0.76574 0.84635,1.16598c-0.00805,-0.03467 -0.03221,-0.04509 -0.04916,-0.06205" fill="#a16235"/><path d="M241.79899,174.79839c-0.01534,0.12401 0.01687,0.23911 0.02814,0.35668c0.0395,0.36965 0.18444,0.58782 0.30201,0.92365c0.04992,0.14333 0.02814,0.32854 0.07891,0.47585c0.05637,0.15944 0.17071,0.27141 0.24157,0.41872c0.26412,0.54197 0.22708,1.16437 0.05713,1.72643c-0.16181,0.54358 -0.50484,1.04359 -0.72794,1.57911c-0.13443,0.31726 -0.17469,0.48552 -0.41949,0.7448c-0.1619,0.17232 -0.27539,0.37846 -0.43084,0.55807c-0.11918,0.14011 -0.277,0.28666 -0.4372,0.37117c-0.33583,0.17554 -0.35592,-0.00966 -0.4695,-0.33252c-0.18843,-0.54273 -0.42754,-1.15395 -0.6981,-1.67006c-0.34142,-0.64741 -0.6152,-1.32542 -0.88822,-2.01716c-0.13045,-0.32693 -0.29387,-0.65623 -0.35829,-0.9896c-0.04594,-0.23759 -0.28429,-0.56935 -0.23437,-0.79964c0.60554,-0.03136 1.18209,0.025 1.75466,-0.1908c0.35269,-0.13291 0.64495,-0.33015 0.95739,-0.52908c0.32294,-0.20453 0.8455,-0.63529 1.21591,-0.68522" fill="#a16235"/><path d="M230.4765,123.71163c-0.53061,-0.25284 -1.05079,-0.56121 -1.75542,-0.88008c-0.39618,-0.18122 -0.96866,-0.43407 -1.24244,-0.03221c-0.1619,0.23996 -0.31726,0.42356 -0.41957,0.68606c-0.56604,-0.08298 -1.19497,-0.20216 -1.76423,-0.277c-0.6152,-0.08137 -1.61531,-0.07815 -2.18465,-0.01534c-1.68134,0.18359 -3.00998,0.74726 -4.49001,1.60242c-0.65784,0.37931 -1.20625,0.66835 -1.71431,1.21193c-0.43568,0.46619 -0.92924,0.8616 -1.1998,1.4446c-0.48077,1.03952 0.01449,2.27882 0.64978,3.20883c0.64826,0.94696 1.59759,1.82069 1.34636,3.07364c-0.02653,0.13926 -0.0829,0.80846 -0.16181,0.88898c-0.20131,0.20292 -0.51374,-0.11434 -0.65546,-0.27539c-0.33015,-0.37609 -0.50654,-0.90594 -0.91399,-1.23608c-0.19326,-0.15698 -0.54595,-0.38567 -0.77701,-0.4678c-0.27785,-0.09748 -0.46704,0.10307 -0.69174,-0.03704c-0.41466,-0.25768 -1.083,-1.26668 -1.24566,-1.6749c-0.24801,-0.61444 -0.31243,-1.15471 -0.47272,-1.80534c-0.15138,-0.61122 -0.27378,-1.1765 -0.34303,-1.82069c-0.07408,-0.71183 -0.09739,-1.25371 0,-1.99538c0.04272,-0.31887 0.10714,-0.8205 0.1852,-1.13293c0.08374,-0.33176 0.15545,-0.60232 0.25607,-0.91399c0.21826,-0.67394 0.56774,-1.49774 0.96874,-2.0759c0.36473,-0.52502 0.83016,-1.15954 1.27228,-1.61048c0.27378,-0.28022 0.50484,-0.45415 0.81329,-0.69327c0.2464,-0.19165 0.53951,-0.39702 0.79074,-0.58138c0.49679,-0.36558 1.05562,-0.77388 1.71753,-1.02104c1.45587,-0.54112 2.94717,-0.7537 4.49001,-0.5234c0.62249,0.09341 1.2755,0.29794 1.86815,0.57011c0.33337,0.15054 0.50815,0.33252 0.77066,0.56528c0.31481,0.27776 0.66191,0.25522 1.00655,0.47102c-0.01772,-0.02009 0.27132,0.10714 0.25522,0.08459c-0.0161,-0.01373 0.69979,0.01848 0.21826,0.08129c0.66191,0.06044 0.85432,0.3004 1.414,0.61766c0.58782,0.33498 1.14183,0.7142 1.538,1.28355c0.32532,0.46619 0.40906,0.9896 0.5757,1.52512c0.09748,0.31565 0.11273,0.4767 0.08459,0.81651c-0.0161,0.1763 0.00559,0.33252 -0.04594,0.50645c-0.03619,0.12002 -0.2375,0.39058 -0.10866,0.31167M216.22624,115.81868c-0.81736,0.30116 -1.66684,0.60876 -2.43911,1.04283c-0.79558,0.4461 -1.7989,1.06291 -2.40927,1.75059c-0.97349,1.09834 -1.49528,2.03564 -2.03318,3.382c-0.30684,0.76659 -0.54434,1.44621 -0.54434,2.29171c0,0.71666 0.05315,1.38094 0.12401,2.08794c0.14333,1.46316 0.52824,2.71687 1.28516,4.00288c0.17792,0.30116 0.29065,0.73353 0.48636,1.02265c0.26734,0.39694 0.61037,0.64173 0.92924,1.00816c0.46221,0.53146 1.54445,0.91229 1.4752,1.59836c-0.07086,0.68047 -0.13045,1.4229 -0.01288,2.08557c0.05154,0.29234 0.18037,0.6386 0.33176,0.88737c0.13689,0.22309 0.5379,0.46144 0.48636,0.69895c0.55155,0.47272 1.0452,0.84067 1.6604,1.19743c0.75531,0.43805 1.1909,0.33252 1.98165,-0.14418c-0.11028,0.82863 0.5162,1.99055 0.6764,2.74425c0.1474,0.69089 0.33015,1.55335 0.22309,2.27484c-0.09426,0.6369 -0.3994,1.52588 -1.10241,1.71838c-1.26583,0.34702 -1.04274,-2.72493 -1.21269,-3.61637c-0.42915,0.40584 -0.80922,0.87449 -1.16031,1.36246c-0.36482,0.50976 -0.82456,1.30932 -1.59361,1.261c-0.64978,-0.03941 -0.41228,-0.61435 -0.48874,-1.12649c-0.10714,-0.71827 0.00882,-1.36246 0.28743,-2.03081c-0.32854,0.30116 -0.66352,0.61919 -0.95739,0.94696c-0.24081,0.2681 -0.24886,0.58376 -0.49687,0.83499c-0.5991,0.60232 -1.64591,0.27785 -1.92935,-0.45899c-0.27378,-0.70861 -0.16181,-1.52105 -0.09739,-2.21118c0.07323,-0.78023 0.30921,-1.60802 0.10061,-2.36257c-0.277,0.15944 -0.48636,0.72073 -0.68445,0.97917c-0.2158,0.28268 -0.31803,0.32048 -0.64656,0.49925c-0.57096,0.31082 -0.75048,0.46704 -1.22481,0.06925c-0.80202,-0.67157 -0.79074,-3.30792 -0.3132,-4.26132c-0.23437,0.44932 -1.00977,1.15556 -1.51308,1.23846c-0.62402,0.10307 -1.16192,-0.54994 -1.32703,-1.08385c-0.19326,-0.62724 -0.01365,-1.28194 0.07815,-1.88824c0.09502,-0.63215 0,-1.3005 0.06035,-1.94546c-0.53307,0.47424 -1.01621,2.57837 -2.10489,2.00742c-0.52502,-0.27539 -0.4606,-1.19497 -0.35269,-1.68134c0.14011,-0.64097 0.17639,-1.04842 0.153,-1.69744c-0.07968,-2.09201 1.06215,-3.87158 1.99538,-5.72278c0.70302,-1.39552 1.39874,-3.02371 2.41894,-4.22191c0.52908,-0.62402 1.32627,-1.07012 1.96156,-1.58708c0.72794,-0.59672 1.4696,-1.06376 2.33121,-1.45833c0.8761,-0.3994 1.81984,-0.78829 2.75391,-1.02426c0.47348,-0.11994 1.0975,-0.35185 1.57344,-0.43881c0.40423,-0.07569 0.87449,0.11511 1.23117,-0.02823" fill="#371e10"/><path d="M224.60631,269.14407c0.19165,0.00161 0.36965,-0.04831 0.42118,0.15138c0.06925,0.26251 -0.31811,0.48475 -0.47509,0.61037c-0.21343,0.16995 -0.29718,0.40101 -0.49043,0.58782c-0.62885,0.61681 -1.39221,0.79719 -2.25221,0.96391c-1.05647,0.20292 -2.07268,0.43483 -3.04465,0.88898c-0.75209,0.35269 -1.47435,0.76337 -2.23051,1.11038c-0.79235,0.35998 -1.72558,0.66275 -2.58236,0.81329c-1.06376,0.18682 -2.03242,0.1079 -3.09534,0.03628c-1.08148,-0.07086 -2.46242,-0.20292 -3.53338,-0.3938c-0.94052,-0.16986 -1.05893,-0.42356 -1.76186,-0.74963c-0.58867,-0.27217 -1.42129,-0.58545 -1.45748,-1.33831c-0.01373,-0.24242 -0.02255,-0.20775 0.00161,-0.44051c0.03458,-0.30192 0.38007,-0.75608 0.62724,-0.9896c0.24962,-0.23598 0.6386,-0.29556 0.93331,-0.45899c0.21657,-0.11595 0.40821,-0.23276 0.64741,-0.35837c0.69089,-0.36312 1.47359,-0.5145 2.02674,-1.07419c0.49764,-0.50645 0.81329,-1.06851 1.36729,-1.49291c0.28107,-0.21174 0.61927,-0.29387 0.90594,-0.48713c0.26412,-0.17639 0.37278,-0.37287 0.70132,-0.4155c0.60876,-0.08052 1.15234,0.11672 1.71762,0.30192c0.69327,0.22708 1.41078,0.46789 2.07268,0.75531c0.73192,0.31811 1.43493,0.69979 2.19745,0.92763c0.8149,0.24081 1.60887,0.51535 2.41732,0.75938c1.64514,0.49035 3.3297,0.02009 4.99977,0.26251c-0.02899,0.00161 -0.0556,0.00161 -0.08374,0.00161" fill="#4e3a78"/><path d="M244.68895,265.22578c0.17478,0.15062 0.11519,0.26573 0.32693,0.3632c0.31006,0.14172 0.50976,0.42678 0.83024,0.55239c0.6369,0.24394 1.20947,0.67479 1.85442,0.92034c1.4535,0.554 3.4682,0.76582 4.74607,1.06936c0.55078,0.13045 0.90755,0.64182 -0.44449,1.53639c-0.41627,0.27302 -0.58138,0.52663 -0.9985,0.8238c-0.4984,0.3543 -1.13132,0.50323 -1.69261,0.74565c-0.48314,0.20529 -1.25049,0.19326 -1.74254,0.35668c-0.67801,0.22148 -1.40917,0.12723 -2.11693,0.16028c-0.77066,0.0378 -1.69346,0.04425 -2.46886,-0.0862c-0.59427,-0.10146 -1.32381,-0.21741 -1.92935,-0.28505c-0.57011,-0.06196 -0.63453,-0.16105 -1.20947,-0.2464c-0.28183,-0.04102 -0.65546,-0.20453 -0.93086,-0.28828c-0.33659,-0.10383 -0.74489,-0.15138 -1.04842,-0.30192c-0.25123,-0.12324 -0.6241,-0.18037 -0.88415,-0.2553c-0.66191,-0.19241 -1.58717,-0.41872 -2.27077,-0.53307c-1.35763,-0.22708 -2.08879,0.02339 -3.17425,0.34871c-2.08235,0.62164 -2.7145,-0.21343 -3.00354,-0.25369c0,-0.16181 0.25123,-1.26906 0.37278,-1.3834c0.18843,-0.17393 1.66523,-0.62809 1.86332,-0.78829c0.3382,-0.27378 1.29889,-0.47509 1.74016,-0.55239c0.376,-0.06281 1.17319,0.13121 1.54928,0.16588c0.44364,0.04187 1.17963,0.12079 1.61692,0.19648c1.15632,0.19648 2.66127,0.39618 3.80793,0.60554c1.03477,0.18758 1.42366,0.0467 2.77409,-0.29879c0.44525,-0.11112 0.64012,-0.82456 0.85754,-1.23201c0.1079,-0.20131 0.3632,-0.55799 0.50569,-0.75447c0.10146,-0.14011 0.41957,-0.02094 0.54197,-0.13206c0.08213,-0.07086 -0.00483,-0.16512 0.08213,-0.07086" fill="#4e3a78"/><path d="M224.9051,269.78911c-0.03306,0.24479 0.11112,0.50806 0.19326,0.72955c0.10544,0.28666 0.03297,0.48475 0.00483,0.7754c-0.01127,0.12808 0.0217,0.26895 -0.00322,0.39541c-0.02984,0.15138 -0.13528,0.28022 -0.19487,0.41949c-0.1007,0.23598 -0.16834,0.43161 -0.35354,0.62088c-0.25446,0.25768 -0.76735,0.34863 -1.13378,0.44932c-0.82533,0.22623 -1.513,0.54112 -2.27399,0.90263c-1.07419,0.51137 -1.89468,1.31178 -2.8747,1.9519c-0.19004,0.12485 -0.32854,0.29395 -0.52502,0.41152c-0.19004,0.11273 -0.40906,0.1908 -0.60232,0.29633c-0.49603,0.27132 -1.04918,0.42033 -1.59352,0.58698c-0.58943,0.18122 -1.12894,0.3165 -1.74737,0.3382c-0.94374,0.03306 -1.88587,-0.09256 -2.82639,-0.08773c-1.64591,0.00483 -3.28215,-0.23437 -4.8878,-0.48882c-0.45093,-0.07086 -0.90594,-0.15537 -1.35687,-0.26251c-0.42356,-0.10383 -0.63851,-0.25683 -0.92357,-0.57731c-0.58062,-0.65148 -0.85355,-1.34314 -0.79964,-2.25068c0.02339,-0.40584 0.26497,-0.74404 0.38253,-1.11199c0.10222,-0.32294 0.26895,-0.91238 0.56282,-1.1008c0.08536,0.13045 0.05399,0.27378 0.16512,0.41228c0.09502,0.11756 0.21902,0.1852 0.30031,0.3165c0.09426,0.16266 0.08052,0.23267 0.24886,0.35108c0.12562,0.08612 0.2609,0.14655 0.39618,0.20936c0.62003,0.29548 1.15632,0.66191 1.85925,0.79719c0.51942,0.09739 1.07902,0.01127 1.57589,0.14494c0.61435,0.16342 1.20303,0.2609 1.83187,0.3382c1.44544,0.17147 2.9359,0.17308 4.33625,-0.27378c1.11123,-0.35515 2.31425,-0.4767 3.27088,-1.18938c0.53629,-0.39779 1.06046,-0.71827 1.72558,-0.86805c0.35515,-0.08129 0.70463,-0.16664 1.05808,-0.25446c0.23437,-0.05798 0.94052,-0.08934 1.02994,-0.277c0.67318,-0.19487 1.47198,-0.37761 2.04929,-0.78913c0.18198,-0.13045 0.3221,-0.33015 0.48721,-0.48314c0.1852,-0.17147 0.3849,-0.28582 0.59749,-0.40262" fill="#bfb3d8"/><path d="M253.12064,268.47496c0.38329,-0.06205 0.00882,0.75209 -0.01695,0.9228c-0.05637,0.38084 -0.04992,0.77218 -0.04992,1.16353c0,0.45576 -0.08374,0.79719 -0.24233,1.22481c-0.14333,0.38567 -0.45254,0.61359 -0.63699,0.96705c-0.1997,0.38414 -0.52018,0.62648 -0.94535,0.78837c-0.64173,0.24394 -1.31974,0.55316 -2.00258,0.64656c-1.55013,0.21665 -3.3442,0.14901 -4.82261,-0.38567c-0.86483,-0.31328 -1.85603,-0.68284 -2.7668,-0.82219c-0.72548,-0.11189 -1.52673,-0.06925 -2.24984,-0.00483c-1.04681,0.09426 -2.10167,0.2247 -3.1573,0.2247c-1.0613,0 -2.13151,0.02255 -3.18798,0.10705c-0.90831,0.0701 -1.78441,-0.04187 -2.67898,-0.18359c-0.35354,-0.05391 -0.68852,-0.12723 -1.03638,-0.20131c-0.16664,-0.03458 -0.69166,-0.03458 -0.83177,-0.15622c-0.14333,-0.12562 -0.04755,-0.37117 -0.07086,-0.54188c-0.0395,-0.26497 -0.04916,-0.48153 -0.04755,-0.75853c0.00407,-0.42194 0.03467,-0.90432 0.21987,-1.28355c0.17071,-0.35269 0.75608,0.01204 1.05808,0.08374c0.5596,0.13367 1.18285,-0.11756 1.71753,-0.25929c1.02028,-0.26895 2.23534,-0.63376 3.28461,-0.36965c0.86966,0.21826 1.72482,0.58545 2.61058,0.7932c0.44042,0.10468 0.88415,0.18436 1.3061,0.33015c0.36956,0.12562 0.9228,0.18359 1.22956,0.42915c0.10231,-0.04026 0.43084,0.06603 0.59104,0.09341c0.18927,0.03467 0.37685,0.04509 0.57011,0.06764c1.03799,0.12401 2.04293,0.32854 3.08245,0.42762c0.91958,0.08536 2.07107,0.12155 2.96972,-0.06925c0.7376,-0.15706 1.5147,-0.19004 2.23051,-0.39779c0.57257,-0.16673 1.15632,-0.5162 1.68541,-0.7932c0.4155,-0.21818 0.85593,-0.50001 1.22074,-0.80524c0.18359,-0.15054 0.29955,-0.34057 0.45254,-0.52256c0.1224,-0.15062 0.47348,-0.66191 0.60715,-0.67564" fill="#bfb3d8"/><path d="M241.53809,193.90347c0.11189,1.03554 0.44288,1.94868 0.67801,3.04456c0.23428,1.0919 0.47424,2.14515 0.59266,3.25562c0.18436,1.71431 0.39296,3.67426 0.30353,5.40959c-0.10061,1.97122 -0.15138,3.9271 -0.36795,5.88061c-0.21987,1.97851 -0.84957,3.89574 -1.21913,5.86781c-0.43084,2.28688 -0.92441,4.53264 -1.28923,6.82757c-0.16266,1.01867 -0.26895,2.04615 -0.38084,3.06957c-0.10392,0.94374 -0.13528,1.78042 -0.52502,2.67983c-0.56935,1.31016 -1.74982,1.88748 -2.89004,2.6138c-0.87449,0.55485 -1.68456,1.30694 -2.52599,1.92935c-1.33754,0.98968 -2.82079,1.592 -4.40787,2.09684c-1.79568,0.57418 -3.69121,0.84957 -5.52156,1.28516c-1.89146,0.45339 -3.76207,0.77066 -5.69464,0.98807c-2.05734,0.22623 -4.1051,0.58376 -6.18101,0.57892c-0.74082,-0.00161 -1.42366,-0.23911 -2.07107,-0.29387c-0.03458,-0.84152 -0.00483,-1.7522 -0.00644,-2.56388c0.03628,-0.40906 -0.09417,-0.79074 -0.15537,-1.18777c-0.12401,-0.78591 -0.58782,-1.2521 -0.58782,-2.17491c0,-0.88415 0.37685,-1.87782 0.37685,-2.79341c0,-0.40745 0,-0.89619 0,-1.34314c0,0.00644 0,0.01373 0,0.01695c0,-1.27473 0.51934,-2.60092 0.81812,-3.84183c0.20851,-0.85516 -0.0467,-1.91079 0.18198,-2.78206c0.20775,-0.80524 0.5991,-1.49698 0.73277,-2.30866c0.14494,-0.88898 0.56367,-2.99303 0.56367,-3.89252c0,-1.99614 0.33498,-1.84154 0.8366,-3.93516c0.23759,-0.97841 0.32854,-2.00826 0.42762,-2.9915c0.08697,-0.89619 0.27056,-1.77068 0.38889,-2.67822c0.05798,-0.43398 0.21826,-0.89297 0.36965,-1.31169c0.16825,-0.46704 0.19809,-0.85118 0.31404,-1.31339c0.10544,-0.42915 0.30353,-0.74243 0.34464,-1.20786c0.04102,-0.46382 0.12401,-0.82295 0.2609,-1.25778c0.30836,-0.98637 0.57087,-1.94546 0.7988,-2.9431c0.22623,-0.98968 0.16986,-2.26594 0.57892,-3.18713c0.47348,-1.06452 0.39779,-2.28366 1.06452,-3.32004c0.52264,-0.81244 1.0146,-1.05486 1.78042,-0.53146c0.27539,-0.08213 1.52834,0.71988 1.87298,0.87695c0.64173,0.29226 0.91229,0.50806 1.50334,0.69895c1.42366,0.46136 3.52618,1.54123 4.96993,1.73931c0.00161,0.00398 -0.08451,-0.05238 -0.09256,-0.05798c0.36795,0.05476 2.39071,0.35753 2.78367,0.35753c1.94384,0 2.67263,0.153 4.66072,-0.10392c1.34314,-0.17393 2.61541,-0.36236 3.91829,-0.65868c0.5162,-0.11595 2.25467,-0.98239 2.63881,-0.5902M208.80432,236.90878c0.05077,-0.23428 0.4389,-1.261 0.22064,-1.32703c0.29718,-0.35829 0.0612,-0.59427 0.11756,-1.0758c0.153,-1.30686 4.2831,-0.13689 5.7422,-0.63368c2.05573,-0.69657 4.22343,-0.9373 6.35731,-1.28194c2.20474,-0.35676 4.40143,-0.78515 6.56591,-1.34797c2.47691,-0.64343 5.0046,-1.38747 7.23189,-2.67983c1.42442,-0.82863 2.60736,-1.94384 3.91185,-2.9359c0.27378,-0.20699 0.99044,-1.06054 1.40272,-0.7843c0.24801,0.16664 -0.0395,1.76991 -0.04433,1.92935c-0.06603,1.88748 -0.12884,3.60425 0.13367,5.46112c0.26497,1.86976 -0.37439,3.80072 -0.04264,5.6721c0.0773,0.44364 -0.20453,1.04918 0.03941,1.41722c0.3165,0.4767 0.33744,0.75124 0.30845,1.33831c-0.02017,0.38889 0.31642,0.52018 0.3382,0.86805c0.02653,0.45254 0.45254,0.68199 0.7988,0.93001c0.48475,0.34871 0.53222,0.41635 0.56206,1.01138c0.02255,0.48238 -0.37609,1.09758 -0.49365,1.58793c-0.16105,0.66835 -0.59986,1.32788 -0.64012,2.02844c-0.02416,0.4606 0.01526,0.91797 0.12401,1.35924c0.2375,0.9534 1.02587,2.15643 1.49452,2.99303c0.58698,1.04766 0.44042,1.76915 0.36151,2.90615c-0.0217,0.32532 -0.13282,0.66835 -0.15698,0.99527c-0.01695,0.20131 0.10222,0.52095 0.099,0.64012c-0.00966,0.36482 0.5991,0.39618 0.81575,0.89144c0.24801,0.5685 0.90026,1.26982 1.13132,1.56055c0.53951,0.68767 0.62325,1.25532 1.20786,1.52588c0.57977,1.22803 0.66996,0.34303 0.91077,1.45028c0.10222,0.46704 -0.08137,0.39457 -0.29794,0.81168c-0.20699,0.38567 -0.11841,1.1225 -0.38651,1.46875c-0.2158,0.27861 -0.88178,1.84077 -0.98968,2.19745c-0.13121,0.43729 -0.7593,-1.06851 -1.50978,-0.37761c-0.31489,0.28989 -0.21097,0.46865 -0.49043,0.79312c-0.30514,0.35269 -0.43076,0.80846 -0.80524,1.07741c-0.33091,0.23674 -0.3994,0.34066 -0.80846,0.47433c-0.40101,0.1296 -1.30449,0.37922 -1.691,0.34303c-1.08546,-0.10392 -1.84798,-0.29234 -2.92946,-0.34303c-1.44214,-0.06925 -2.89564,-0.7376 -4.37566,-0.66835c-0.7231,0.03297 -0.96222,0.00805 -1.52351,0.25123c-0.45975,0.19326 -1.88909,0.46382 -2.26026,0.79074c-0.3221,0.28828 -0.71988,-0.08137 -1.09758,0.13689c-0.18198,0.10383 -0.44932,-0.3004 -0.59588,-0.14816c-0.04992,0.05154 -0.60232,0.3382 -0.59266,0.33337c-0.47831,0.26166 -0.58943,0.3293 -1.10555,0.48475c-0.38651,0.11756 -0.21021,0.20936 -0.59588,0.18436c-0.42194,-0.02416 -0.68445,-0.03297 -1.12013,-0.10061c-0.99527,-0.15622 -2.15321,0.31887 -3.14687,0.08697c-1.40272,-0.32616 -2.57914,-0.3004 -3.5511,-0.94535c-0.51128,-0.33659 -1.84637,-0.65868 -2.40766,-0.88898c-0.72226,-0.29395 -1.73364,-0.66996 -2.45513,-0.96391c-1.03638,-0.41872 -1.58878,-0.46865 -2.12668,0.11756c-0.554,0.60393 -0.47992,0.86322 -1.43892,1.38984c-0.69174,0.38329 -0.67318,0.95425 -1.38103,0.98561c-0.51128,0.52747 -0.32769,-0.3543 -0.98154,-1.19735c-0.80685,-1.04122 -1.33186,-3.18315 -0.20131,-4.02136c0.0612,-0.71344 -1.18853,-1.94147 -0.74811,-2.36579c0.37363,-0.35837 -0.89865,-0.9985 -0.27861,-1.01299c-0.49603,-1.06614 -1.20303,-4.0423 -0.81727,-4.7815c0.64173,-1.22803 0.85109,-1.40756 2.13871,-2.72094c0.76896,-0.78668 0.85355,-0.41872 0.85355,-1.60887c0,-1.00333 -0.10629,-1.95029 -0.10629,-2.93912c0,-0.97993 0.11833,-1.91884 0.63851,-2.74425c0.51137,-0.81651 0.44373,-1.8351 0.48882,-2.79172c0.05315,-1.16921 -0.57257,-2.7306 0,-3.74037c0.22945,-0.40745 0.21419,-0.89381 0,-1.28355" fill="#a17456"/><path d="M220.52214,196.94566c0.49043,0 0.9156,-0.0161 1.34314,0.17308c0.64826,0.28666 0.45178,0.35998 0.28751,0.87373c-0.2859,0.90746 -0.19004,1.8045 -0.58384,2.68788c-0.67962,1.52427 -1.35441,3.19434 -2.85453,4.1413c-1.01943,0.64419 -1.95029,1.0847 -3.15331,1.21354c-0.52018,0.05552 -1.46392,0.18436 -1.63226,-0.27946c-0.15698,-0.43237 0.23759,-1.41078 0.52502,-1.69583c1.39628,0.71666 3.19442,-1.03308 4.07213,-2.10888c0.53468,-0.6547 0.74404,-1.42366 1.10394,-2.14515c0.38253,-0.76743 0.30201,-1.55335 0.60876,-2.33197c0.08942,-0.22631 0.11756,-0.44771 0.39779,-0.46382" fill="#4e3a78"/><path d="M242.87962,201.39778c0.10705,0.50332 0.04348,1.08792 0.04348,1.61048c0,0.3004 -0.02577,0.61605 0,0.91475c0.02255,0.23598 0.12884,0.49442 0.08129,0.73277c-0.77701,-0.01687 -1.44858,-1.47198 -1.72397,-2.08311c-0.18843,-0.41872 -0.36482,-0.64987 -0.65385,-1.00095c-0.29073,-0.35024 -0.22631,-0.74082 -0.31489,-1.17319c-0.13367,-0.65224 -0.08213,-1.37458 -0.18275,-2.04369c-0.07247,-0.47111 -0.12485,-0.64826 0.40982,-0.77303c0.28751,-0.06764 0.84474,-0.15706 0.99205,0.07569c0.12002,0.19487 0.01127,0.80439 0.07408,1.04681c0.08213,0.31964 0.18037,0.66267 0.30523,0.95823c0.14816,0.34863 0.2375,0.46704 0.27217,0.86805c0.02009,0.23911 0.35668,1.23524 0.60876,0.9139" fill="#4e3a78"/><path d="M203.79896,174.71303c0.04272,-0.38414 -0.20614,-0.74082 -0.33337,-1.10241c-0.18037,-0.49925 -0.14977,-0.87686 -0.09739,-1.39544c0.05154,-0.53307 -0.06205,-0.76421 -0.15783,-1.22718c-0.18198,-0.88415 0.06281,-1.89714 0.1997,-2.73383c0.1385,-0.84465 0.39372,-1.61768 0.64173,-2.44309c0.277,-0.92679 0.28912,-1.7216 0.11519,-2.675c-0.17478,-0.95578 -0.55968,-1.67651 -0.40745,-2.69433c0.13604,-0.91314 0.38974,-1.8045 0.65546,-2.67822c0.27378,-0.91153 0.46865,-1.67167 0.97349,-2.50751c0.5001,-0.82617 1.1531,-1.44782 1.82789,-2.12261c1.40196,-1.39628 2.78214,-3.01396 4.643,-3.83776c1.79407,-0.79473 3.60908,-2.29171 5.66006,-2.22c0.18436,0.27454 0.28183,0.80439 0.44848,1.09351c0.22792,0.39694 0.7159,0.70217 0.99044,1.0524c0.62088,0.78837 0.92204,0.91314 1.58556,1.31415c0.7754,0.46789 1.74415,0.91314 2.55905,1.29084c0.93086,0.43237 2.09201,0.90831 3.14204,0.69166c0.69327,-0.14333 2.02276,-0.88093 2.30374,-1.60641c0.32048,-0.8294 -0.70937,-1.54928 -1.40272,-1.6387c-0.29065,-1.3906 0.98807,-0.45738 1.32305,-0.33498c0.70132,0.25768 1.53317,0.54917 2.14676,0.76981c1.05401,0.38007 1.72075,0.83906 2.59126,1.48571c0.73599,0.54434 1.62175,0.94772 2.29891,1.56055c0.71751,0.64741 0.9985,1.37696 1.28516,2.21839c0.34625,1.01545 0.66996,1.94791 0.9373,2.95683c0.55646,2.10091 1.24168,4.05603 2.56871,5.8106c0.60478,0.7988 1.00655,1.46231 1.01299,2.44877c0.00966,1.06046 -1.07334,1.89951 -0.03941,2.74501c0.35346,0.29073 0.70132,0.50171 0.79235,0.99044c0.08697,0.45983 -0.00644,0.79642 -0.02984,1.22964c-0.02255,0.4767 0.25123,1.11445 0.64343,1.3439c0.54027,0.3165 0.73031,-0.02492 0.34947,0.65063c-0.5073,0.89542 -1.43095,1.81179 -2.30222,2.32231c-0.78506,0.45983 -1.99775,0.68369 -2.88674,0.8077c0.0612,0.56528 0.41872,1.08224 0.62724,1.62734c0.22064,0.57011 0.52103,1.01706 0.63614,1.592c3.39488,6.44267 1.89316,6.99023 1.85044,6.96285l0.92441,1.51707c-0.32854,0.90187 -1.31652,2.70721 0.04992,5.00299c0.55561,0.93408 -6.46445,2.08879 -7.27613,2.08235c-1.48647,-0.01127 -1.92689,0.14893 -3.42141,0.14893c-0.85516,0 -3.42226,-0.29794 -4.19936,-0.50891c-1.4518,-0.39457 -4.77184,-1.84883 -5.5803,-2.03157c-1.49291,-0.33905 -2.83842,-2.423 -4.16147,-0.73845c-0.18275,0.23276 -1.41561,-2.4197 -1.33508,-2.90928c0.1168,-0.69089 1.16361,-4.19775 2.1911,-5.35161c0.23589,-0.36482 0.49518,-0.7537 0.44364,-1.1765c-0.08773,-0.71742 -0.66674,-1.65879 -1.1909,-2.13625c-0.7771,-0.70624 -0.61842,-1.40196 -0.15138,-2.18787c0.95179,-1.59674 0.14011,-3.7202 -0.65309,-5.17124c-0.51773,-0.9445 -1.09911,-1.96393 -1.90112,-2.68144c-0.71344,-0.63775 -1.28838,-1.77313 -2.0848,-2.27476c-0.03297,0.84787 0.07891,2.0042 0.07891,2.88835c0,0.50976 0.02823,0.79558 0.26412,1.2304c0.16105,0.29633 0.50976,1.11928 0.54756,1.45028c0.04272,0.38168 -0.48475,0.38567 -0.36795,0.62809c0.0523,0.1079 0.77218,0.20131 0.91712,0.29065c0.87932,0.5468 1.61048,1.14022 1.25219,2.31671c-0.10392,0.3454 -0.38253,0.87525 -0.65868,1.11521c-0.45254,0.39219 -0.60715,0.00322 -1.11369,-0.05874c-0.93408,-0.11434 -2.03479,0.68606 -2.49946,1.39628c-0.50323,0.77142 -1.35602,1.51944 -1.40917,2.45674c-0.0467,0.83024 0.34303,1.7683 1.01138,2.23212c-0.28421,0.25369 -0.81888,0.46789 -1.1998,0.57494c-0.55316,0.15461 -1.26982,0.21902 -1.80128,0.16673c-1.20226,-0.11841 -1.75059,-0.4389 -2.43267,-1.45426c-0.35592,-0.52908 -0.61274,-0.83262 -0.65462,-1.46392c-0.02984,-0.45983 0,-0.93331 0,-1.39467c0,-0.72717 -0.01051,-0.60961 -0.49848,-0.96145c-0.40584,-0.29311 -0.42517,-0.60232 -0.57248,-1.04605c-0.26573,-0.80846 -0.41474,-1.71431 -0.14333,-2.56625c0.11434,-0.35914 0.4372,-0.77625 0.47424,-1.13216z" fill="#4e3a78"/><path d="M225.46469,117.50807c0.14494,0.09587 0.72794,0.69657 0.63215,0.81812c-0.20936,-0.11672 -0.28912,-0.42033 -0.52985,-0.53061c-0.15706,-0.0701 -0.14901,-0.03467 -0.29395,-0.13613c-0.28666,-0.20207 -0.45899,-0.39694 -0.7754,-0.5234c-0.50815,-0.20368 -1.06775,-0.33252 -1.58717,-0.40906c-0.64334,-0.09502 -1.42603,-0.12316 -2.03963,-0.04831c-1.34153,0.1619 -2.68144,0.60715 -3.91753,1.3995c-0.63292,0.40584 -1.16921,0.83584 -1.691,1.35763c-0.53951,0.54112 -1.04198,1.22879 -1.4357,1.85527c-0.34142,0.54197 -0.64182,1.34153 -0.89305,1.83272c-0.15859,0.3076 -0.1385,0.56129 -0.23428,0.88093c-0.10231,0.34303 -0.15223,0.63775 -0.22148,0.99527c-0.27539,1.43739 0.13528,2.77163 0.33176,4.1969c0.05238,0.38575 0.06603,0.86644 0.31404,1.18692c0.11112,0.14418 0.11112,0.37846 0.18605,0.54519c0.07408,0.16664 0.29065,0.27217 0.35829,0.45093c0.11358,0.3076 0.35914,0.77862 0.6152,0.99044c0.2392,0.20131 0.0395,-0.1079 0.21258,0.23352c-0.31481,0.09256 -0.64173,0.17469 -0.87932,0.4372c-0.14011,0.15867 -0.20614,0.69734 -0.42356,0.74489c-0.14893,0.03221 -0.36634,-0.29633 -0.49679,-0.39457c-0.28429,-0.21343 -0.54036,-0.45822 -0.85516,-0.66513c-0.4767,-0.31489 -0.81168,-0.96951 -1.11928,-1.45833c-0.34464,-0.54671 -0.66597,-1.14022 -0.93653,-1.72965c-0.27293,-0.59342 -0.39618,-1.23117 -0.61596,-1.8512c-0.22792,-0.6458 -0.1997,-1.09597 -0.28828,-1.77237c-0.08137,-0.59664 -0.17876,-1.12971 -0.01695,-1.73126c0.15622,-0.57248 0.14333,-1.15064 0.31726,-1.73126c0.09663,-0.31887 0.26895,-0.60469 0.36719,-0.92924c0.1007,-0.33896 0.05959,-0.36956 0.27463,-0.68606c0.36795,-0.54349 0.554,-1.15149 1.00494,-1.66201c0.27539,-0.31243 0.54112,-0.60393 0.87771,-0.85754c0.27056,-0.20453 0.51052,-0.41796 0.75692,-0.64182c0.44771,-0.40499 1.04113,-0.68767 1.60403,-0.96061c1.24405,-0.60639 2.54938,-0.96552 3.87396,-1.21269c0.84635,-0.15783 1.93181,-0.22631 2.78858,-0.13291c0.34786,0.03865 0.63292,0.10629 0.9896,0.15138c0.36397,0.0467 0.88576,0.1385 1.22235,0.30116c0.67801,0.32938 1.3778,0.5846 1.98173,1.1153c0.43559,0.38406 0.97349,0.72955 1.14344,1.35517" fill="#bd5da4"/><path d="M224.71506,132.97025c0.51213,0.06366 0.68038,1.49054 0.1852,1.75949c-0.40423,0.21979 -0.94857,0.06925 -1.46875,-0.06849c-1.69185,-0.44686 0.37761,-1.69176 1.11038,-1.81899M231.82853,131.80673c-0.29073,0.02492 -0.57257,0.86644 -0.50171,1.16353c0.5468,0.23191 1.11691,0.56774 1.39874,-0.1385c0.11833,-0.30031 0.08052,-0.93967 -0.15223,-1.1225c-0.2826,-0.22064 -0.17308,-0.28666 -0.5846,-0.24801" fill="#371e10"/><path d="M232.47433,131.28248c0.49035,-0.21335 1.30686,0.31006 1.16836,0.86567c-0.099,0.39855 -0.76574,0.7593 -1.14505,0.95578c0.03467,-0.15783 0.26412,-0.29226 0.32048,-0.46865c0.05315,-0.16749 -0.01687,-0.33498 -0.04747,-0.48713c-0.03628,-0.18444 -0.06281,-0.30362 -0.19809,-0.43805c-0.09103,-0.08942 -0.32294,-0.18766 -0.28429,-0.33015c0.08942,-0.03628 0.20055,-0.06764 0.27946,-0.09748M224.54189,132.84226c0.26251,-0.2086 0.7537,-0.21182 1.07097,-0.22547c0.33981,-0.01534 0.65385,0.05476 0.97841,0.08934c0.53468,0.05798 1.38899,0.41796 1.04757,1.12818c-0.2609,0.54273 -0.84465,0.68522 -1.38577,0.79235c-0.53951,0.11028 -1.08707,0.29311 -1.63387,0.20368c-0.06442,-0.21097 0.26734,-0.31803 0.38651,-0.45254c0.14172,-0.15622 0.21741,-0.38406 0.19326,-0.59749c-0.01848,-0.16266 -0.11918,-0.45814 -0.21258,-0.59749c-0.09417,-0.14172 -0.31481,-0.20453 -0.40906,-0.34218" fill="#f5f6f6"/><path d="M225.07979,269.76817c-0.98476,1.34475 -2.41571,1.7683 -3.98508,2.08472c-1.93901,0.38651 -3.48829,1.41722 -5.30008,2.15643c-2.2684,0.92602 -4.69776,0.63054 -7.04744,0.1997c-1.414,-0.2609 -4.43364,-0.68284 -4.86449,-2.4286c-0.27378,-1.10716 1.19658,-1.93901 1.97851,-2.31985c0.74404,-0.36075 1.51944,-0.6297 2.21279,-1.09029c0.96061,-0.63699 1.64184,-1.4913 2.66856,-2.05743c0.14655,-0.08213 0.53468,0.12079 0.33659,0.23276c-1.3995,0.77379 -2.37952,2.02437 -3.84989,2.69272c-1.02748,0.46543 -2.94878,1.0613 -2.92861,2.46725c0.02653,1.75703 4.14214,2.19101 5.32339,2.36579c2.52285,0.376 4.54239,0.33659 6.92505,-0.7771c1.38103,-0.64334 2.51963,-1.35441 4.02458,-1.6604c1.59361,-0.32125 3.09211,-0.66106 4.10994,-2.04929c0.10231,-0.13613 0.5162,0.02009 0.39618,0.18359zM224.54994,272.93835c-1.65311,0.31328 -3.14687,0.95501 -4.51094,1.94062c-1.0524,0.76099 -1.8134,1.68295 -3.03575,2.20313c-2.2361,0.94857 -5.01824,0.63215 -7.36632,0.41389c-1.37213,-0.13045 -2.7434,-0.30997 -4.10994,-0.48475c-0.6369,-0.08213 -1.40027,-0.20936 -1.92613,-0.61359c-1.63302,-1.25778 -0.57087,-4.0745 0.40906,-5.39908c0.08137,-0.11358 0.49687,0.03297 0.40101,0.16342c-1.10555,1.49215 -2.16931,4.8266 0.34871,5.49817c1.03147,0.277 2.16448,0.3004 3.22256,0.42923c1.19896,0.14816 2.39554,0.26573 3.6034,0.32048c2.47691,0.11189 5.06902,0.02653 6.97497,-1.76593c1.62336,-1.52266 3.53101,-2.51472 5.72287,-2.92861c0.12638,-0.02255 0.50569,0.17715 0.26649,0.22301zM224.64581,272.75883c0.01288,0.01687 0.02331,0.03619 0.03619,0.04831c-0.12401,-0.03145 -0.24878,-0.06603 -0.37117,-0.09909c0.30031,-0.12401 0.45576,-0.8978 0.52824,-1.16514c0.20936,-0.78913 0.06281,-1.58395 -0.26573,-2.31349c-0.08942,-0.1997 0.34303,-0.15698 0.40423,-0.01687c0.33015,0.73599 0.45899,1.45824 0.33176,2.25865c-0.05637,0.36159 -0.25607,1.28999 -0.65868,1.45833c-0.11756,0.05154 -0.29718,0.01288 -0.37126,-0.09748c-0.01288,-0.01526 -0.02492,-0.03619 -0.0378,-0.05315c-0.11756,-0.17393 0.31964,-0.1441 0.40423,-0.02009z" fill="#010101"/><path d="M253.41375,268.45801c0.06925,2.29094 -0.10553,4.74853 -2.74349,5.32101c-0.15138,0.03306 -0.51052,-0.19809 -0.25844,-0.25123c2.53328,-0.55078 2.63389,-2.96328 2.56947,-5.11648c-0.00644,-0.19487 0.42762,-0.11028 0.43246,0.0467zM228.80889,269.98313c-0.33337,0.98002 -0.35269,1.74254 -0.12163,2.75154c-0.11672,-0.04026 -0.23428,-0.08137 -0.35269,-0.12079c0.58782,-0.02178 1.22396,0.27539 1.80373,0.37922c1.137,0.20614 2.30137,0.21826 3.45286,0.19004c2.02598,-0.05154 4.03585,-0.35185 6.06183,-0.41949c1.44943,-0.0467 2.88436,0.25683 4.26217,0.6836c2.32875,0.72073 4.50204,0.98722 6.82198,0.06442c0.11756,-0.04747 0.43483,0.13206 0.40745,0.14418c-1.4229,0.56528 -2.92547,0.73353 -4.44652,0.61919c-0.61037,-0.04509 -1.23125,-0.18359 -1.81501,-0.36795c-1.50257,-0.48238 -2.94319,-0.91475 -4.5351,-0.97358c-2.15083,-0.0773 -4.32413,0.33337 -6.4725,0.41872c-0.93408,0.03865 -1.86578,0 -2.79579,-0.09019c-0.78193,-0.07807 -1.70151,-0.50645 -2.46166,-0.47831c-0.06764,0.00322 -0.33337,-0.03297 -0.35269,-0.1224c-0.22945,-0.99765 -0.21979,-1.81018 0.11358,-2.79011c0.0306,-0.09426 0.45492,0.03619 0.43,0.11189zM232.88823,269.5338c1.42764,-0.33981 2.90208,0.21741 4.25725,0.62486c1.9463,0.58867 3.89252,1.13861 5.92257,1.34636c1.75864,0.17876 3.54627,0.15062 5.27668,-0.2158c0.85033,-0.18114 1.66125,-0.49357 2.41732,-0.91712c0.35193,-0.19648 2.30222,-1.53962 2.03166,-2.09769c-0.1007,-0.21097 0.33498,-0.18359 0.40745,-0.03136c0.22708,0.47348 -0.44771,0.96306 -0.73277,1.28516c-0.51857,0.57731 -1.19099,1.00172 -1.87782,1.34958c-1.54284,0.78023 -3.35623,0.98154 -5.06096,1.01621c-1.71999,0.03458 -3.44879,-0.16512 -5.12292,-0.54756c-1.12326,-0.25446 -2.22161,-0.61842 -3.33208,-0.92441c-1.25939,-0.35032 -2.60575,-0.93569 -3.93194,-0.62088c-0.16351,0.03789 -0.50976,-0.2069 -0.25446,-0.26734zM233.20227,269.79555c-1.42612,0.09578 -3.1606,1.07419 -4.51255,0.2214c-0.24725,-0.15376 0.1224,-0.25039 0.27539,-0.15376c1.11038,0.6981 2.8747,-0.25852 4.07688,-0.33981c0.18283,-0.01212 0.45339,0.25284 0.16028,0.27217zM253.152,268.37833c-2.77807,-0.75531 -6.1037,-0.97035 -8.41635,-2.85461c-0.18758,-0.153 0.24318,-0.14494 0.34388,-0.0612c2.20389,1.79492 5.46994,1.99301 8.12646,2.7145c0.25683,0.07086 0.20292,0.27217 -0.05399,0.20131zM229.23245,268.3501c-0.52179,0.59266 -0.56451,1.17327 -0.48721,1.92859c0.0161,0.15622 -0.41711,0.06764 -0.42915,-0.05798c-0.08052,-0.79235 -0.02984,-1.41001 0.51612,-2.03005c0.08697,-0.10222 0.49764,0.04992 0.40025,0.15944z" fill="#010101"/><path d="M220.44967,196.84335c0.65148,0.02984 1.26744,0.15867 1.90121,0.31489c0.02814,0.0072 0.15698,0.03865 0.15138,0.08612c-0.29879,2.40283 -1.22396,5.13182 -2.80223,7.00642c-1.34958,1.59997 -3.77335,1.90841 -5.72041,1.65794c-0.07654,-0.01127 -0.3543,-0.14494 -0.14579,-0.11672c2.51641,0.31887 4.88135,-0.4244 6.24865,-2.63152c0.60876,-0.97841 1.04766,-2.06141 1.42612,-3.14526c0.18682,-0.53951 0.33337,-1.0919 0.46543,-1.64675c0.04586,-0.2069 0.08773,-0.41304 0.1224,-0.6208c0.14333,-0.7771 -0.92763,-0.76099 -1.43417,-0.78354c-0.0612,-0.00398 -0.36473,-0.12884 -0.21258,-0.12079zM220.64217,196.87158c-0.17156,2.2506 -1.24736,4.66148 -2.98421,6.13185c-0.66835,0.56451 -2.57354,2.09769 -3.41023,1.00977c-0.12401,-0.16181 0.18444,-0.19326 0.26734,-0.08374c0.75938,0.98968 3.19764,-1.33831 3.66468,-1.82704c1.2521,-1.30932 2.00504,-3.53983 2.14032,-5.31779c0.00882,-0.13689 0.33413,-0.0612 0.3221,0.08697zM241.72084,197.33539c0.07976,1.47681 0.36075,2.9359 1.12979,4.22182c0.08451,0.14257 -0.24403,0.12485 -0.30599,0.02094c-0.77625,-1.30203 -1.06698,-2.77807 -1.14912,-4.27581c-0.00805,-0.15138 0.31811,-0.09256 0.32532,0.03306zM241.59607,197.45618c-0.5991,0.03458 -1.49452,-0.01449 -1.39306,0.79151c0.05476,0.4244 0.13206,0.84711 0.21258,1.26744c0.16749,0.88093 0.42194,1.74254 0.7537,2.57515c0.31803,0.80524 0.85754,1.44943 1.33424,2.1605c0.17232,0.25522 -0.0523,0.08697 -0.00483,0.08536c0.14418,-0.00161 0.29234,0.04908 0.42762,0.08934c0.18758,0.05399 0.15622,0.178 -0.03306,0.12163c-0.7988,-0.23598 -0.92196,-0.60554 -1.46392,-1.38823c-1.07978,-1.56301 -1.40756,-3.7041 -1.61607,-5.54894c-0.00322,-0.02492 0.00483,-0.03704 0.02814,-0.04348c0.52179,-0.12723 1.01223,-0.22784 1.55013,-0.25844c0.07891,-0.00322 0.37439,0.13926 0.20453,0.14816z" fill="#010101"/><path d="M238.2946,203.10327c-3.33453,0.84711 -6.05302,2.7145 -8.32379,5.26872c-0.05476,0.05959 -0.35668,-0.05154 -0.30353,-0.11358c2.27882,-2.56464 5.01901,-4.43279 8.3632,-5.28397c0.07569,-0.02009 0.36236,0.10468 0.26412,0.12884zM217.91317,191.51751c-0.41872,1.00011 -0.64978,2.01555 -0.92602,3.05829c-0.42271,1.59598 -0.98315,3.15814 -1.414,4.75574c-0.85999,3.19442 -1.48401,6.44835 -1.94707,9.72244c-0.01848,0.13689 -0.4517,0.0395 -0.43076,-0.11672c0.44364,-3.14043 1.04757,-6.25348 1.83993,-9.32305c0.42118,-1.62743 0.90594,-3.23545 1.42612,-4.83143c0.36956,-1.13055 0.55638,-2.27484 1.01943,-3.38039c0.0612,-0.14494 0.48552,-0.01212 0.43237,0.11511zM241.60251,193.54671c0.59342,1.50741 0.77701,3.07279 1.00816,4.6664c0.28505,1.94868 0.48314,3.90863 0.58698,5.87256c0.1941,3.75241 -0.10468,7.51931 -1.03308,11.16306c-0.04509,0.17554 -0.4767,0.0612 -0.43084,-0.1168c0.89059,-3.50118 1.17327,-7.07236 1.04842,-10.67585c-0.06442,-1.82306 -0.252,-3.63968 -0.48636,-5.44663c-0.2375,-1.82865 -0.41949,-3.70486 -1.10072,-5.43375c-0.08374,-0.21419 0.34786,-0.18275 0.40745,-0.02899zM213.56005,209.01618c-0.05959,2.10328 -0.76574,4.19444 -1.09106,6.26636c-0.41152,2.59448 -0.88178,5.16073 -1.42129,7.73105c-0.53629,2.54057 -0.88093,5.11004 -1.19413,7.68604c-0.16673,1.37933 -0.34786,2.75875 -0.49687,4.14053c-0.15698,1.43654 -0.55477,2.85292 -0.59266,4.29997c-0.00644,0.21012 -0.43881,0.13045 -0.43559,-0.04111c0.02975,-1.08783 0.26971,-2.13464 0.45254,-3.20324c0.22945,-1.33831 0.31803,-2.71119 0.48636,-4.06077c0.32447,-2.59694 0.62809,-5.19463 1.11521,-7.77055c0.48721,-2.57193 1.05808,-5.11809 1.46714,-7.70537c0.19165,-1.2143 0.36159,-2.43097 0.62249,-3.63162c0.26895,-1.236 0.61842,-2.47852 0.65385,-3.75241c0.00398,-0.21012 0.43881,-0.12884 0.43398,0.04111zM242.20966,215.24626c-0.11197,1.1676 -0.64021,2.32392 -0.87449,3.48431c-0.28666,1.40595 -0.5001,2.82961 -0.6458,4.25564c-0.3076,3.02854 -0.35515,6.07955 -0.27624,9.12013c0.04272,1.62819 0.05476,3.26045 0.15138,4.88703c0.1007,1.68371 0.20775,3.70164 1.16437,5.1503c0.1168,0.17953 -0.31964,0.15138 -0.40423,0.01933c-0.88093,-1.33271 -1.02104,-3.09372 -1.1531,-4.64385c-0.15376,-1.81501 -0.13689,-3.6429 -0.19165,-5.46274c-0.08612,-2.77324 -0.0217,-5.55131 0.1997,-8.31972c0.11519,-1.43892 0.31404,-2.86343 0.56451,-4.28463c0.1224,-0.69496 0.2681,-1.38984 0.4211,-2.07751c0.17156,-0.76743 0.5379,-1.45587 0.61283,-2.24585c0.0161,-0.15859 0.44848,-0.0612 0.43161,0.11756zM240.97841,241.88922c0.67801,0.21818 1.50986,0.4767 1.64031,1.27304c0.07162,0.43729 -0.14333,0.95586 -0.26174,1.36568c-0.25683,0.89305 -0.51696,1.79246 -0.73997,2.69517c-0.23437,0.94213 -0.07891,1.34314 0.48874,2.08718c0.52018,0.6836 0.88093,1.40917 1.13861,2.22966c0.4461,1.41968 0.38414,2.98506 -0.01687,4.40304c-0.02416,0.0918 -0.45339,-0.02577 -0.42839,-0.11756c0.37761,-1.34314 0.40584,-2.69509 0.10222,-4.05755c-0.13926,-0.62003 -0.39457,-1.20464 -0.69327,-1.76186c-0.29633,-0.55002 -0.89704,-0.92924 -1.1765,-1.44222c-0.21818,-0.40584 0.14257,-1.41239 0.24403,-1.82382c0.17147,-0.69412 0.38567,-1.38425 0.57655,-2.07429c0.37439,-1.35763 0.63453,-2.15482 -1.02189,-2.6895c-0.29226,-0.0918 -0.01204,-0.1385 0.14816,-0.08697zM231.37599,234.23378c-0.15384,1.39713 -0.2609,2.80062 -0.43246,4.19775c-0.18114,1.46469 -0.59749,2.86665 -0.88975,4.30879c-0.49687,2.43589 -0.5162,4.9651 -0.77871,7.42836c-0.0161,0.14893 -0.33981,0.07001 -0.3221,-0.08536c0.26251,-2.47132 0.3221,-4.97637 0.7771,-7.42913c0.25123,-1.35763 0.65546,-2.67178 0.85516,-4.04068c0.21419,-1.48088 0.30514,-2.97862 0.46865,-4.46509c0.01526,-0.14893 0.33896,-0.07001 0.3221,0.08536zM234.8063,204.62034c-0.40423,2.19754 -0.54434,4.42559 -0.96874,6.62711c-0.46382,2.39724 -0.82211,4.81134 -1.28033,7.20934c-1.0057,5.25897 -1.23846,10.43182 -1.18209,15.77699c0.00161,0.08858 -0.32048,0.03221 -0.3221,-0.08536c-0.05476,-5.19777 0.13367,-10.26195 1.10563,-15.3792c0.46136,-2.42784 0.8294,-4.86771 1.29643,-7.29546c0.44364,-2.30544 0.60554,-4.64224 1.02825,-6.942c0.01856,-0.099 0.34388,-0.02009 0.32294,0.08858zM229.25576,206.7043c1.77398,-0.34303 3.13161,-1.74415 4.87169,-2.2144c0.09909,-0.02492 0.38092,0.12324 0.1997,0.17317c-1.74254,0.47026 -3.09127,1.86815 -4.87169,2.2144c-0.099,0.01687 -0.38084,-0.13689 -0.1997,-0.17317zM228.95061,258.90788c0.47509,-0.77379 1.02104,-1.49851 1.47681,-2.28764c0.24394,-0.41796 0.45009,-0.85923 0.5757,-1.32949c0.17317,-0.64419 -0.39779,-1.32135 -0.69649,-1.8351c-0.64021,-1.09512 -1.00655,-2.14999 -1.35602,-3.35623c-0.02984,-0.10392 0.29387,-0.0556 0.3221,0.04509c0.15537,0.53866 0.25123,1.07419 0.45738,1.59513c0.36312,0.92602 0.89619,1.72643 1.37933,2.58888c0.85118,1.52029 -1.09428,3.45523 -1.8351,4.66555c-0.0612,0.10061 -0.36804,-0.01212 -0.32371,-0.0862zM245.04571,265.74596c-0.29879,-0.34786 -0.18766,-0.52018 -0.75616,-0.18843c-0.34303,0.1997 -0.529,0.68852 -0.70056,1.02189c-0.38728,0.75286 -0.94128,1.17641 -1.73364,1.44214c-1.968,0.65631 -4.20012,0.04433 -6.15846,-0.34057c-1.22481,-0.24081 -2.68466,-0.55324 -3.92473,-0.24725c-0.67479,0.16673 -1.32542,0.48153 -1.98012,0.71268c-0.56604,0.1997 -2.01954,0.80202 -2.39715,-0.01695c-0.10392,-0.21902 0.33176,-0.21335 0.41067,-0.04509c0.28183,0.60961 3.32156,-0.83821 3.83938,-0.96468c1.76101,-0.43559 3.84175,0.22225 5.56818,0.554c1.24897,0.2392 2.4987,0.38651 3.76529,0.20614c1.24575,-0.1763 1.87782,-0.84626 2.42216,-1.88909c0.22225,-0.42432 0.58223,-0.81727 1.07419,-0.90907c0.58621,-0.11036 0.5774,0.13121 0.93009,0.54434c0.17554,0.20368 -0.23759,0.26488 -0.35914,0.11994zM243.27097,255.7683c0.78345,0.65707 1.39544,1.62175 2.02835,2.4197c0.78193,0.98646 1.52673,1.99945 2.24178,3.0366c0.09264,0.13528 -0.3293,0.07569 -0.39372,-0.01856c-0.57655,-0.83821 -1.17811,-1.65879 -1.79729,-2.46564c-0.7376,-0.95739 -1.48732,-2.15643 -2.41249,-2.9359c-0.18037,-0.15215 0.24962,-0.10544 0.33337,-0.03619zM247.56043,261.27291c-0.26573,0.82134 -0.50001,1.65074 -0.78668,2.46242c-0.25446,0.71666 -0.55646,1.71838 -1.22481,2.16448c-0.09739,0.06442 -0.45415,-0.11197 -0.40821,-0.14333c0.65301,-0.4389 0.94289,-1.43739 1.20057,-2.1371c0.29879,-0.81007 0.52103,-1.64192 0.78837,-2.46327c0.02814,-0.08773 0.45576,0.04026 0.43076,0.1168zM208.16657,261.8865c-0.77379,0.93086 -1.54123,1.81823 -2.22407,2.8191c-0.07086,0.10307 -0.4606,-0.06925 -0.43076,-0.11672c0.68445,-1.00172 1.44858,-1.88748 2.22407,-2.81994c0.0829,-0.1007 0.45814,0.08451 0.43076,0.11756zM205.94335,264.70483c-0.63215,1.80373 1.01299,2.60092 1.5903,4.0495c0.09264,0.23352 -0.34142,0.23352 -0.4155,0.04992c-0.27378,-0.68844 -0.89619,-1.24083 -1.29321,-1.86171c-0.46543,-0.72709 -0.5991,-1.53639 -0.31404,-2.35452c0.07171,-0.1997 0.50171,-0.07807 0.43246,0.1168zM204.85467,255.1748c-0.07247,2.81672 0.9067,5.80577 1.83187,8.43974c0.03628,0.10383 -0.3849,0.04992 -0.42593,-0.06925c-0.93247,-2.6533 -1.91087,-5.64955 -1.83679,-8.48806c0.00322,-0.09256 0.43407,-0.01933 0.43084,0.11756zM204.41738,255.20786c0.70624,-1.33593 1.90121,-2.28933 2.92225,-3.37157c0.09578,-0.10061 0.50323,0.05154 0.40262,0.1619c-1.00655,1.06614 -2.19754,2.00665 -2.89403,3.32479c-0.07247,0.13613 -0.48721,-0.00966 -0.43084,-0.11511zM207.32514,251.85883c-0.00161,-1.77873 -0.42194,-3.69121 0.18114,-5.40154c0.41711,-1.18446 0.79719,-2.23212 0.89788,-3.50194c0.10061,-1.2916 -0.02416,-2.60092 -0.07408,-3.89413c-0.00322,-0.04916 0.42432,0 0.43076,0.11595c0.09824,2.49946 0.21902,4.76777 -0.72149,7.1328c-0.71581,1.79729 -0.28344,3.77496 -0.28344,5.66481c0.00085,0.05399 -0.43076,-0.00398 -0.43076,-0.11595zM227.70326,265.76292c0.72794,-1.33271 1.86171,-2.3602 2.84495,-3.49795c0.08213,-0.09426 0.38974,0.02416 0.2987,0.13206c-0.98154,1.13776 -2.11693,2.16524 -2.84486,3.49795c-0.05798,0.10383 -0.37126,-0.00085 -0.29879,-0.13206zM230.53608,262.31243c-0.554,-1.47681 -1.25049,-2.87707 -2.05412,-4.23233c-0.08052,-0.13689 0.24556,-0.10866 0.30192,-0.01449c0.81329,1.37136 1.51631,2.79019 2.0759,4.28226c0.04272,0.11756 -0.28344,0.0773 -0.32371,-0.03543zM225.66202,269.17789c-2.46886,0.2392 -4.89585,0.17317 -7.29469,-0.4984c-1.20625,-0.33981 -2.36816,-0.86084 -3.53983,-1.30211c-0.64258,-0.23911 -1.27948,-0.4912 -1.91002,-0.75853c-0.83982,-0.35592 -1.78517,-0.8922 -2.40842,0.18444c-0.08052,0.14011 -0.49848,-0.00322 -0.39779,-0.178c1.02104,-1.76423 3.59941,0.05154 4.89424,0.54273c1.75864,0.66674 3.47541,1.37942 5.33949,1.69024c1.70312,0.28582 3.44566,0.21419 5.15674,0.04992c0.18359,-0.02017 0.45093,0.24233 0.16028,0.26971zM225.42926,268.942c0.70302,-0.02017 1.33992,-0.51857 1.75864,-1.05249c0.43246,-0.54994 0.43568,-1.49367 0.45576,-2.16202c0.00322,-0.1168 0.43568,-0.03628 0.43246,0.11595c-0.02339,0.80041 -0.07247,1.68371 -0.58384,2.33197c-0.44042,0.55884 -1.17641,0.96468 -1.8907,0.98798c-0.14571,0.00322 -0.46297,-0.21419 -0.17232,-0.2214z" fill="#010101"/><path d="M214.18331,178.03299c0.82778,0.5162 1.30288,1.66684 1.90926,2.41656c0.75048,0.92602 1.54767,1.81501 2.2756,2.75875c0.16181,0.21335 -0.24886,0.24318 -0.35515,0.10383c-0.66513,-0.8616 -1.38255,-1.6821 -2.07912,-2.51878c-0.31158,-0.37685 -0.61681,-0.7593 -0.91229,-1.15149c-0.35837,-0.47585 -0.58943,-1.11284 -1.11852,-1.44138c-0.2464,-0.15537 0.12002,-0.2681 0.28022,-0.16749zM209.96793,182.9852c0.99765,1.17404 2.65483,2.16694 3.95211,3.01803c0.84948,0.55646 1.61048,1.17005 2.37138,1.84806c0.18682,0.16749 -0.24072,0.16664 -0.34786,0.07247c-0.87932,-0.7843 -1.79,-1.4301 -2.75069,-2.10167c-1.2143,-0.84872 -2.65966,-1.68863 -3.6284,-2.82723c-0.1224,-0.14494 0.31167,-0.11595 0.40347,-0.00966z" fill="#010101"/><path d="M242.01319,174.57047c0.32854,1.05164 0.53629,2.12744 0.91153,3.16543c0.08536,0.2375 -0.3471,0.2375 -0.41474,0.05315c-0.37439,-1.0396 -0.58214,-2.11294 -0.91068,-3.1662c-0.07332,-0.23996 0.35592,-0.2392 0.41389,-0.05238zM242.93353,177.52569c0.00246,2.10972 -0.99044,3.30232 -2.40766,4.70988c-0.07323,0.07408 -0.45899,-0.08858 -0.4066,-0.14096c1.42044,-1.40917 2.38673,-2.59041 2.3835,-4.68242c0,-0.05476 0.43076,0.00161 0.43076,0.1135z" fill="#010101"/><path d="M227.15892,148.273c3.03575,0.95908 6.10455,2.33036 8.55968,4.39262c0.18682,0.15783 -0.24233,0.14571 -0.34303,0.0612c-2.37299,-1.99377 -5.33712,-3.32402 -8.27141,-4.25166c-0.252,-0.07976 -0.20131,-0.28268 0.05476,-0.20216zM232.58783,155.5226c0.82541,1.72075 2.29815,3.03651 2.94802,4.8483c0.41711,1.16039 0.25039,2.42622 0.11672,3.61959c-0.1852,1.67006 -0.37278,3.30309 -0.06281,4.97154c1.04927,5.61734 4.19453,10.59125 5.93867,15.98076c0.05552,0.17469 -0.38168,0.11918 -0.43407,-0.04433c-0.85754,-2.65483 -2.03081,-5.17768 -3.14043,-7.73266c-1.05647,-2.4286 -1.87943,-4.91517 -2.60414,-7.46134c-0.82372,-2.88682 0.29718,-5.62056 -0.04102,-8.50255c-0.25768,-2.20228 -2.20796,-3.73792 -3.12754,-5.65353c-0.09909,-0.20377 0.33574,-0.17393 0.4066,-0.02577zM241.53165,184.93473c-0.00161,0.29472 -0.00568,0.57409 -0.04992,0.86398c-0.0612,0.40025 -0.46789,0.54756 -0.11756,0.9011c0.43881,0.44686 0.75608,1.23524 0.64902,1.86408c-0.12324,0.72794 -0.75616,1.28516 -0.707,2.00987c0.05637,0.85677 0.46941,1.3995 0.82694,2.121c0.62571,1.26024 -3.15653,1.85688 -3.77089,1.98173c-2.84334,0.57892 -5.87748,0.87771 -8.77472,0.64656c-1.94707,-0.15461 -3.83293,-0.71988 -5.64633,-1.41959c-1.05808,-0.40745 -2.08718,-0.88822 -3.1122,-1.3689c-0.58223,-0.27217 -1.162,-0.54917 -1.74415,-0.82219c-0.55078,-0.25768 -0.75209,-0.25683 -1.26422,-0.10222c-0.19648,0.05959 -0.50815,-0.22386 -0.24564,-0.30362c0.44695,-0.13443 0.47509,-0.38007 0.94052,-0.21657c0.85677,0.30116 1.68617,0.78506 2.50836,1.17158c2.03318,0.95908 4.09544,1.844 6.28967,2.36901c2.98345,0.71429 6.16092,0.43644 9.16522,0.01212c1.27067,-0.17961 2.54218,-0.41872 3.76775,-0.80609c0.60554,-0.19241 1.79729,-0.5073 1.3133,-1.24405c-0.53951,-0.82134 -1.02909,-2.10091 -0.44203,-2.99388c0.42593,-0.64343 0.56045,-1.24575 0.34303,-1.99377c-0.12562,-0.4244 -0.54756,-0.66597 -0.70785,-1.03155c-0.02331,-0.05476 -0.0467,-0.16266 -0.02975,-0.22064c0.14172,-0.53222 0.36956,-0.84626 0.37117,-1.44621c0,-0.23513 0.4389,-0.17715 0.43729,0.02823zM216.40983,160.17366c-0.23598,0.97027 -0.92441,2.14354 -1.97605,2.35206c-0.15223,0.02984 -0.331,-0.17953 -0.11756,-0.22225c0.94052,-0.18597 1.56292,-1.36967 1.77068,-2.21678c0.03306,-0.14011 0.35753,-0.05476 0.32294,0.08697zM214.59,162.41705c-0.90187,0.76413 -1.11691,2.28849 -1.55894,3.35216c-0.57172,1.38501 -0.1997,2.53167 -0.08459,3.94245c0.04187,0.50332 -0.09578,1.01943 -0.11833,1.52029c-0.02094,0.52018 0.25123,0.97196 0.51696,1.39628c0.43398,0.70217 0.47187,1.32305 -0.25929,1.80297c-0.12002,0.07891 -0.40423,-0.0862 -0.24962,-0.18682c1.16997,-0.76904 -0.28989,-2.00428 -0.33498,-3.0366c-0.02017,-0.50247 0.11028,-1.01943 0.11918,-1.52105c0.01043,-0.61359 -0.18766,-1.24651 -0.27946,-1.85044c-0.16664,-1.11369 0.3632,-2.12905 0.77227,-3.12754c0.37202,-0.90992 0.43805,-1.81102 1.22634,-2.48013c0.11197,-0.0918 0.3938,0.06764 0.25047,0.18843zM210.26426,172.09194c-2.22246,-0.30031 -5.05367,0.28828 -6.08438,2.50353c-0.02416,0.05069 -0.23352,-0.02178 -0.21741,-0.05798c1.04918,-2.25551 3.94728,-2.8369 6.20593,-2.53252c0.05476,0.0089 0.23674,0.10553 0.09587,0.08697zM213.10675,174.14293c1.11606,0.13443 2.24738,0.94374 2.36257,2.12422c0.08451,0.8527 -0.15867,2.10727 -1.23608,2.01869c-0.13689,-0.01288 -0.4606,-0.24233 -0.17393,-0.21818c0.77142,0.06442 0.93331,-0.83346 0.98239,-1.41883c0.09824,-1.13539 -0.69089,-2.15566 -1.86408,-2.29815c-0.1997,-0.02339 -0.37126,-0.24403 -0.07086,-0.20775zM214.20425,178.37687c-0.27378,-1.07987 -2.29171,0.30675 -2.59287,0.56528c-0.45009,0.38567 -0.82295,0.86881 -1.14505,1.36085c-0.73921,1.13055 -1.14988,2.69187 0.30362,3.45201c0.06281,0.03221 0.12723,0.12002 0.03941,0.16512c-0.9139,0.45093 -1.5686,0.90102 -2.63313,0.88093c-1.00011,-0.01933 -1.99699,-0.44771 -2.74425,-1.09996c-0.91636,-0.80286 -1.22956,-2.26518 -1.0758,-3.41904c0.19572,-1.46477 1.43739,-2.54938 2.6283,-3.2596c0.11841,-0.07086 0.51781,0.10222 0.34464,0.20614c-2.28688,1.36407 -3.77335,4.46178 -1.35924,6.57473c0.62003,0.54197 1.51147,0.74726 2.31188,0.76337c0.70132,0.01373 1.06368,-0.30031 1.64184,-0.58621c0.48958,-0.24233 0.5073,-0.10544 0.08536,-0.3994c-0.2158,-0.14977 -0.43398,-0.40423 -0.52417,-0.64978c-0.63699,-1.70066 0.98154,-3.63323 2.24017,-4.56731c0.58698,-0.43483 2.61863,-1.0847 2.90928,0.06679c0.04026,0.15622 -0.39211,0.09019 -0.43,-0.05391zM204.7427,179.96641c-1.10555,-0.35592 -1.46553,-1.30211 -1.57742,-2.39563c-0.11918,-1.18048 -0.2247,-2.51395 0.74082,-3.34818c0.13689,-0.11918 0.51857,0.08213 0.33337,0.24242c-1.11691,0.96629 -1.07419,4.68649 0.57892,5.21955c0.25929,0.0829 0.18766,0.36634 -0.07569,0.28183zM237.65363,175.89351c1.29321,0.15215 2.43504,-0.2464 3.46973,-0.98968c0.34871,-0.25123 2.3368,-1.86171 1.52919,-2.38266c-0.35515,-0.22954 -0.8294,-0.59266 -0.81092,-1.06936c0.02178,-0.54756 0.16512,-1.04037 0.05315,-1.59598c-0.12562,-0.62648 -0.86805,-1.06215 -1.32703,-1.41807c-0.03136,-0.02416 -0.10468,-0.08129 -0.07891,-0.13282c0.38007,-0.75531 0.65309,-1.55411 0.65063,-2.40927c-0.00237,-0.97519 -0.75048,-1.82874 -1.30449,-2.56634c-0.97027,-1.2916 -1.41476,-2.94556 -1.98411,-4.43686c-0.34947,-0.91153 -0.58214,-1.86815 -0.88415,-2.79579c-0.3599,-1.10716 -0.77379,-2.82393 -1.78034,-3.55025c-0.23759,-0.17156 0.12562,-0.25446 0.27217,-0.14977c0.72632,0.5234 1.08063,1.45426 1.40434,2.25306c0.43398,1.07097 0.7593,2.18381 1.09428,3.28859c0.36482,1.20625 0.86245,2.37545 1.29643,3.55915c0.60876,1.66523 2.31425,2.87792 2.31748,4.73641c0.00161,0.65945 -0.26327,1.32941 -0.52179,1.92452c-0.14977,0.34379 0.85516,1.0057 1.06376,1.27787c0.29955,0.38974 0.28828,0.91238 0.25683,1.37535c-0.04026,0.64343 -0.07323,1.13539 0.554,1.55818c0.1007,0.06764 0.23759,0.1385 0.30362,0.24801c0.45009,0.7376 -1.09436,1.98648 -1.53156,2.32553c-1.18616,0.91958 -2.48174,1.39145 -3.99237,1.21345c-0.21665,-0.02653 -0.34786,-0.29794 -0.04992,-0.26327zM212.94087,167.77188c1.89629,2.3368 4.58096,4.88457 4.92721,8.02577c0.09587,0.85838 0.20131,1.87782 -0.51612,2.49785c-1.27067,1.09758 1.0363,2.8135 1.58386,3.74275c0.14655,0.2464 -0.24394,0.77066 -0.35269,0.96713c-0.47831,0.87525 -0.99044,1.73041 -1.42603,2.63067c-0.9373,1.93503 -1.86654,4.74692 0.41389,6.11015c0.25039,0.14977 -0.11197,0.28828 -0.28344,0.1852c-3.72105,-2.22483 -0.06925,-6.96929 1.14988,-9.59522c0.30192,-0.65224 -1.37297,-1.98165 -1.71278,-2.61702c-0.61681,-1.1531 0.58384,-1.65879 0.75616,-2.65406c0.6063,-3.49634 -2.92624,-6.74705 -4.89831,-9.17649c-0.17147,-0.21012 0.23996,-0.26251 0.35837,-0.11672zM203.91974,174.3394c-0.81083,-0.95264 -1.17641,-2.67178 -0.00483,-3.49236c0.11036,-0.07646 0.49043,0.09502 0.40423,0.15545c-1.12165,0.78591 -0.78345,2.43665 -0.00483,3.3514c0.10392,0.12316 -0.31803,0.07408 -0.39457,-0.01449zM217.71991,147.25281c1.19497,2.49056 3.72105,3.97627 6.27365,4.77506c1.21752,0.38084 2.20957,0.49281 3.34174,-0.14901c1.38416,-0.78506 1.46392,-2.04124 -0.12723,-2.68466c-0.20775,-0.08451 -0.02017,-0.21335 0.13367,-0.15138c0.77057,0.31167 1.90274,0.99451 1.30364,1.98656c-0.58537,0.96629 -1.81662,1.57903 -2.93344,1.56454c-1.52114,-0.01933 -3.23545,-0.84872 -4.53917,-1.55809c-1.58225,-0.85923 -2.97209,-2.13066 -3.75724,-3.76775c-0.07162,-0.14977 0.25369,-0.12079 0.30438,-0.01526zM217.52183,147.07243c-2.97531,0.93967 -5.98207,2.28442 -8.38736,4.30641c-0.1079,0.08858 -0.50323,-0.0773 -0.40262,-0.16105c2.42216,-2.03403 5.4507,-3.39251 8.44373,-4.33862c0.11756,-0.03704 0.50815,0.14333 0.34625,0.19326zM209.09988,151.42953c-1.2393,1.26422 -2.74103,2.27399 -3.67672,3.80801c-0.46144,0.75124 -0.5001,1.55809 -0.64902,2.39876c-0.20292,1.16921 -0.76421,2.19025 -0.7014,3.407c0.04992,0.95739 0.50654,1.88104 0.64741,2.83037c0.12401,0.83024 -0.15376,1.68778 -0.38812,2.47132c-0.50323,1.6821 -1.36967,3.58009 -0.58782,5.30813c0.04992,0.10544 -0.37117,0.0612 -0.42754,-0.06442c-0.74243,-1.64031 -0.01695,-3.45608 0.49035,-5.05774c0.32693,-1.02664 0.59266,-1.99614 0.43246,-3.08482c-0.14333,-0.95501 -0.66513,-1.86815 -0.61359,-2.85461c0.05713,-1.0613 0.47992,-2.04446 0.72065,-3.07033c0.22792,-0.97273 0.2609,-1.76915 0.80041,-2.65084c0.88093,-1.44222 2.38757,-2.41088 3.55271,-3.60102c0.08781,-0.09264 0.49365,0.06442 0.40025,0.1602z" fill="#010101"/><path d="M218.05006,137.99257c-0.84143,2.67576 -3.65654,0.50162 -4.67843,-0.9156c-1.2143,-1.6821 -0.30353,-5.8573 2.2539,-4.29353c0.1852,0.11519 -0.09103,0.19004 -0.20775,0.11841c-1.44867,-0.88661 -2.04776,0.69971 -2.27077,1.63056c-0.18766,0.78354 0.01526,1.57505 0.37278,2.27001c0.36397,0.70937 1.02028,1.23922 1.65879,1.68693c0.33015,0.2303 0.68284,0.41957 1.06291,0.554c0.91882,0.3221 1.27711,-0.4767 1.48325,-1.13937c0.04187,-0.12808 0.36482,-0.03789 0.32532,0.08858zM214.40878,136.97153c-0.04264,0.08612 0.89788,0.98637 1.97207,0.62402c0.47992,-0.11756 0.99205,-0.24556 1.32135,-0.0829c0.30523,0.22547 0.07086,0.55561 0.12401,0.53061c-0.05959,0.02094 0.21419,-0.28582 -0.10222,-0.56282c-0.34947,-0.19733 -0.88093,-0.08858 -1.36492,-0.00407c-1.04757,0.26336 -1.78839,-0.5846 -1.74737,-0.63851c-0.05959,-0.10629 -0.15859,-0.17156 -0.2214,-0.1474c-0.0612,0.025 -0.05637,0.15062 0.01848,0.28107zM217.14659,135.48506c-0.11918,0.03382 -0.71098,-0.94942 -1.71592,-1.5308c-0.53951,-0.19004 -1.1531,-0.10061 -1.46714,0.18198c-0.30921,0.30845 -0.19487,0.63614 -0.22792,0.62003c0.03145,0.01695 -0.05637,-0.31726 0.25208,-0.5902c0.30997,-0.25123 0.91068,-0.30201 1.39467,-0.09824c0.88576,0.57011 1.47198,1.61853 1.60081,1.59836c0.11511,0.10468 0.23911,0.14655 0.28022,0.09264c0.03941,-0.0556 -0.01212,-0.17715 -0.1168,-0.27378zM231.84303,138.79857c-0.28751,0.11519 -0.53146,0.32294 -0.7988,0.47755c-0.22954,0.13121 -0.55239,0.1135 -0.79719,0.04348c-0.55807,-0.16028 -0.64987,-0.76981 -0.35108,-1.20387c0.04264,-0.06281 0.25123,0.01127 0.1997,0.0862c-0.29879,0.43398 -0.16834,1.03952 0.44848,1.04113c0.43246,0.00085 0.74726,-0.3994 1.12733,-0.55239c0.06764,-0.02577 0.26412,0.07086 0.17156,0.1079zM232.16351,138.91054c0.83584,-0.05238 2.36333,-0.76176 1.3222,-1.72084c-0.35998,-0.33252 -0.86966,-0.4517 -1.23846,-0.78345c-0.31006,-0.27785 -0.45738,-0.76099 -0.59588,-1.14268c-0.01127,-0.0306 0.19326,-0.01043 0.21258,0.04187c0.24072,0.66597 0.50323,1.16683 1.16598,1.51546c0.44042,0.23115 0.8616,0.44127 1.00494,0.94942c0.24072,0.85194 -1.15878,1.18531 -1.72889,1.22074c-0.04187,0.00237 -0.2464,-0.07408 -0.14248,-0.08052zM233.63303,132.60875c-0.24878,-0.40906 -0.13528,-1.03554 -0.10705,-1.49054c0.06442,-1.02825 0.1852,-1.96554 -0.4606,-2.8658c-0.15706,-0.21826 0.25123,-0.25852 0.35668,-0.11112c0.5162,0.71742 0.6603,1.49452 0.60232,2.36977c-0.04102,0.58782 -0.30836,1.52275 0.01695,2.05904c0.1224,0.19809 -0.3165,0.18758 -0.4083,0.03865zM234.00268,132.59985c0.22301,0.98324 1.10394,1.77958 1.48325,2.7306c0.31803,0.79795 0.47831,1.68854 0.38567,2.5437c-0.25768,2.38435 -1.38094,4.38533 -2.22407,6.58363c-0.05798,0.153 -0.38084,0.06281 -0.3221,-0.08612c0.75531,-1.96961 1.76186,-3.79513 2.13549,-5.89756c0.2392,-1.33831 -0.01687,-2.53972 -0.56926,-3.7669c-0.34947,-0.77388 -1.0235,-1.27312 -1.21752,-2.12829c-0.03789,-0.16664 0.29387,-0.13045 0.32854,0.02094zM233.77958,144.08822c-0.5757,1.58869 -0.9373,2.67983 -2.72332,2.99549c-1.98326,0.34863 -4.01814,-0.06442 -5.86451,-0.78913c-1.84001,-0.72149 -3.5906,-1.94469 -5.13988,-3.15975c-1.36323,-1.06775 -2.4358,-2.43987 -2.65322,-4.19453c-0.02339,-0.17071 0.30836,-0.13045 0.32693,0.02178c0.38812,3.12509 3.72257,5.0802 6.23737,6.48217c1.78195,0.99121 3.84175,1.5831 5.8879,1.49206c0.80685,-0.03619 1.62658,-0.10061 2.34646,-0.5073c0.75531,-0.42754 0.98561,-1.66845 1.26016,-2.42538c0.05476,-0.15376 0.37685,-0.06357 0.3221,0.08459zM227.4327,147.03615c-0.14655,1.02028 -0.33498,2.13549 0.46382,2.93268c0.10875,0.1079 -0.3132,0.06688 -0.39457,-0.0161c-0.83016,-0.82533 -0.65301,-1.97038 -0.50162,-3.03253c0.0161,-0.1135 0.4517,-0.01772 0.43237,0.11595zM233.13785,128.60993c-0.74006,-2.86665 -2.28611,-5.26388 -5.33712,-5.91689c-0.26734,-0.05721 -0.19648,-0.30201 0.06603,-0.2464c3.22256,0.69005 4.91433,3.14848 5.70507,6.20915c0.04594,0.17876 -0.39135,0.1168 -0.43398,-0.04586zM231.18511,133.76744c-0.70132,-0.88814 -0.19004,-3.04702 0.6386,-3.71452c0.02492,-0.02094 0.12401,0.02009 0.10061,0.04026c-0.80846,0.6514 -1.32135,2.81672 -0.64012,3.67672c0.02738,0.03382 -0.07976,0.02094 -0.09909,-0.00246zM217.95267,140.7553c-0.00483,-0.01526 -0.01127,-0.0306 -0.0161,-0.0467c-0.06281,-0.17071 0.25929,-0.15859 0.30836,-0.03136c0.40906,1.09351 0.40101,2.36096 0.35108,3.50923c-0.04425,1.02909 -0.15376,2.33917 -0.87932,3.14204c-0.09417,0.10468 -0.40101,-0.02255 -0.29709,-0.13935c0.75769,-0.83982 0.81651,-2.245 0.8616,-3.31275c0.04264,-1.02426 0.01848,-2.19508 -0.34464,-3.16857c-0.06442,-0.17071 0.25768,-0.15944 0.30675,-0.03145c0.00483,0.01534 0.01127,0.0306 0.01695,0.04594c0.06518,0.17232 -0.25929,0.1602 -0.3076,0.03297z" fill="#010101"/><path d="M229.45384,141.94629c-0.04747,0.11756 -0.08773,0.23191 -0.06764,0.36075c0.01695,0.1224 0.03628,0.23911 0.03789,0.36312c0.00161,0.05476 -0.21419,0.01856 -0.2158,-0.05798c-0.00161,-0.13121 -0.02984,-0.25361 -0.04433,-0.38406c-0.01288,-0.11918 0.03145,-0.23276 0.07569,-0.34066c0.02577,-0.06603 0.23759,0 0.21419,0.05882zM229.45384,142.18625c1.47359,0.19326 3.12916,-0.08298 4.32413,-1.0074c0.06281,-0.04992 0.26412,0.03704 0.1997,0.08536c-1.24566,0.96468 -2.95921,1.24897 -4.4956,1.04681c-0.10714,-0.01288 -0.178,-0.1441 -0.02823,-0.12477zM233.76992,141.19258c0.19165,-0.38575 0.27861,-0.82219 -0.23911,-0.98078c-0.2859,-0.08781 -0.65385,-0.04509 -0.92763,0.0684c-0.66436,0.27624 -1.19099,0.74243 -1.77636,1.14912c-0.06442,0.04509 -0.26251,-0.04755 -0.16995,-0.11112c0.75209,-0.52179 1.48003,-1.24736 2.44792,-1.28033c0.78913,-0.02738 1.25778,0.45653 0.88254,1.21269c-0.04102,0.08213 -0.252,0.01449 -0.21741,-0.05798zM233.63142,141.35439c0.33498,0.05882 0.50332,0.46789 0.60393,0.75531c0.19326,0.55324 -0.34464,1.11691 -0.72794,1.4229c-1.05969,0.8455 -2.52523,0.65063 -3.47219,-0.23352c-0.04586,-0.04272 0.15706,-0.01772 0.19487,0.01687c1.00977,0.94298 2.36342,0.80448 3.31919,-0.06603c0.24725,-0.22225 0.41067,-0.50891 0.48475,-0.82778c0.04111,-0.17232 -0.1224,-0.94611 -0.36151,-0.98883c-0.08459,-0.0161 -0.19326,-0.10544 -0.04111,-0.07891z" fill="#010101"/><path d="M225.96233,132.72224c-0.69327,-0.05959 -1.37289,-0.16825 -2.0292,-0.41304c-0.14172,-0.05238 -0.00966,-0.1007 0.08052,-0.06764c0.5991,0.22301 1.22481,0.3221 1.85934,0.37685c0.06764,0.00559 0.23267,0.11595 0.08934,0.10383zM224.53706,132.84625c-0.44525,-0.02577 -0.86966,-0.05476 -1.26422,-0.27861c-0.12884,-0.07247 -0.01288,-0.16825 0.08942,-0.11189c0.36312,0.20368 0.74726,0.22301 1.15149,0.24801c0.11672,0.0072 0.17147,0.15138 0.02331,0.14248zM223.93313,133.03467c-0.4517,0.15138 -0.97349,0.02984 -1.38577,-0.18037c-0.12884,-0.06518 0.06603,-0.08773 0.13045,-0.05476c0.3221,0.16351 0.73277,0.25208 1.08224,0.13528c0.06357,-0.02009 0.25844,0.07171 0.17308,0.09985zM231.16341,132.86879c0.0217,-0.79795 0.4606,-1.4752 1.26499,-1.64828c0.53951,-0.11756 1.18616,0.08697 1.38586,0.63775c0.04425,0.11833 -0.28344,0.07891 -0.32371,-0.03628c-0.18682,-0.51213 -0.78676,-0.49442 -1.20548,-0.30277c-0.5596,0.2553 -0.78184,0.85762 -0.79719,1.43739c-0.00398,0.11273 -0.32769,0.04586 -0.32447,-0.08781zM231.35666,132.99602c0.98154,0.48636 1.76508,-0.15859 2.30137,-0.89941c0.01848,-0.02577 0.11511,0.01848 0.10866,0.02899c-0.33659,0.46297 -0.78668,0.8833 -1.32703,1.08546c-0.36719,0.13689 -0.81727,-0.04026 -1.1442,-0.20216c-0.06442,-0.03136 0.03619,-0.02577 0.0612,-0.01288zM227.51966,133.50578c-0.04264,-0.84872 -1.67006,-0.77303 -2.23288,-0.72955c-1.15149,0.08934 -2.08879,0.85516 -3.00676,1.47036c-0.12401,0.0829 -0.40423,-0.08697 -0.24886,-0.19088c1.1765,-0.78752 2.23941,-1.53877 3.7041,-1.54123c0.67962,-0.00076 2.06624,0.09587 2.11379,1.0146c0.00882,0.17156 -0.32048,0.12723 -0.32938,-0.02331zM227.82167,133.54604c-0.11358,1.01858 -1.65964,1.18209 -2.45682,1.28838c-1.33347,0.17554 -2.07429,-0.13689 -3.2507,-0.64741c-0.14011,-0.06044 -0.00966,-0.11112 0.08052,-0.07171c1.0613,0.45983 1.81662,0.74489 3.03575,0.61359c0.7754,-0.08374 2.26755,-0.26971 2.37622,-1.24083c0.00729,-0.05959 0.22386,-0.01373 0.21504,0.05798zM233.44944,130.80018c0.05315,0.2609 -0.16503,0.41788 -0.39779,0.45576c-0.05154,0.00882 -0.11028,-0.06366 -0.0378,-0.07569c0.1997,-0.03382 0.37117,-0.16995 0.32693,-0.38974c-0.01127,-0.04992 0.099,-0.03543 0.10866,0.00966zM233.89155,130.87587c0.15698,0.31082 -0.13367,0.49603 -0.40262,0.56689c-0.05315,0.01449 -0.1168,0.00322 -0.15223,-0.04111c-0.03136,-0.03543 -0.0217,-0.08934 0.02823,-0.10307c0.19165,-0.04992 0.44042,-0.16342 0.3221,-0.3994c-0.05721,-0.10866 0.16181,-0.10705 0.20453,-0.02331zM232.96629,130.80018c0.05315,0.2609 -0.16503,0.41949 -0.3994,0.45814c-0.05154,0.0089 -0.10866,-0.06679 -0.03619,-0.07891c0.1997,-0.03382 0.37117,-0.16749 0.32532,-0.38728c-0.0089,-0.05399 0.10146,-0.04026 0.11028,0.00805zM224.55155,132.7464c0.38651,0.23437 0.70302,0.56129 0.77871,1.02189c0.08213,0.49196 -0.31006,0.86966 -0.70463,1.07741c-0.0773,0.04102 -0.26895,-0.06527 -0.16664,-0.11841c0.90907,-0.47831 0.77057,-1.39544 -0.04755,-1.8907c-0.12562,-0.07646 0.05721,-0.14087 0.14011,-0.09019zM232.34143,131.39843c0.73845,0.36075 0.75294,1.41968 0.03628,1.81746c-0.08213,0.0467 -0.27217,-0.06603 -0.16673,-0.12324c0.58138,-0.32286 0.68369,-1.25049 0.03467,-1.56699c-0.13045,-0.06518 -0.01288,-0.18037 0.09578,-0.12723zM222.56507,134.05088c0.00483,0.06205 0.0217,0.11036 0.05315,0.16266c-0.06925,-0.0072 -0.14011,-0.01449 -0.20936,-0.02094c0.0161,-0.03941 0.02814,-0.08052 0.04102,-0.11994c0.025,-0.08213 0.21741,-0.04026 0.21741,0.03941c0,0.03382 0,0.06688 0,0.1007c-0.07408,-0.00729 -0.14655,-0.01373 -0.21818,-0.02094c0,-0.09341 0.00161,-0.18682 0.0217,-0.28022c0.0161,-0.08459 0.20936,-0.03543 0.2158,0.03941c0.00805,0.08374 0.03628,0.16105 0.0612,0.24157c-0.07247,-0.01365 -0.14494,-0.02577 -0.21741,-0.03941c0.04272,-0.19809 0.11197,-0.37609 0.22954,-0.54036c0.04992,-0.07001 0.25446,0.00322 0.1997,0.09019c-0.1385,0.21826 -0.15545,0.44288 0.00966,0.65385c0.08052,0.10392 -0.1007,0.10629 -0.15867,0.06688c-0.14655,-0.09824 -0.30997,-0.15622 -0.44203,-0.27785c-0.03628,-0.03382 -0.01856,-0.07968 0.02492,-0.09256c0.05315,-0.01534 0.11358,0.00483 0.15223,0.04187c0.11672,0.10705 0.27378,0.15698 0.40423,0.2464c-0.05154,0.02255 -0.10553,0.04509 -0.15867,0.06679c-0.20131,-0.25929 -0.20453,-0.52095 -0.02975,-0.79634c0.06603,0.02975 0.13206,0.06035 0.19809,0.09019c-0.11197,0.15376 -0.17317,0.32125 -0.21258,0.5073c-0.02017,0.09417 -0.19809,0.02653 -0.21741,-0.0395c-0.02339,-0.08213 -0.05154,-0.15783 -0.05959,-0.24157c0.07086,0.01288 0.14333,0.02577 0.2158,0.0395c-0.0161,0.08129 -0.01856,0.16181 -0.01856,0.24394c0,0.10392 -0.21741,0.06442 -0.21741,-0.02094c0,-0.03382 0,-0.06679 0,-0.10061c0.07086,0.01449 0.14333,0.02653 0.21741,0.04026c-0.01449,0.04026 -0.02331,0.08129 -0.04102,0.11994c-0.03467,0.08052 -0.17478,0.03865 -0.20936,-0.02009c-0.0395,-0.06603 -0.0612,-0.12401 -0.06764,-0.1997c-0.0089,-0.10307 0.20851,-0.06603 0.2158,0.02009z" fill="#010101"/><path d="M227.67512,130.57793c-0.97519,0.00483 -1.95351,-0.28429 -2.92547,-0.16588c-0.89941,0.10866 -1.75059,0.74565 -2.50988,1.1909c-0.20614,0.12163 -0.89949,-0.23513 -0.8149,-0.28421c0.84304,-0.49526 1.64989,-0.9985 2.61058,-1.22481c0.99044,-0.23267 2.07751,0.16028 3.0744,0.15461c0.16588,0.00085 0.97756,0.32777 0.56528,0.32938zM231.48711,130.32026c0.22462,-0.83262 1.18209,-1.23846 1.8295,-1.69024c0.13045,-0.09256 0.5234,0.09502 0.3382,0.2247c-0.60554,0.42356 -1.52673,0.80278 -1.73694,1.58064c-0.04509,0.17232 -0.47585,0.05637 -0.43076,-0.11511z" fill="#010101"/><path d="M214.58517,138.88638c-0.54434,0.96145 -2.36664,5.2638 -3.97389,4.58019c-0.9985,-0.42601 -0.99366,-2.11379 -1.03308,-3.04143c-0.06764,-1.58547 0.55722,-3.49956 1.14505,-4.96425c0.03136,-0.07891 0.34702,0.02577 0.32371,0.08697c-0.88017,2.1894 -1.42934,4.58901 -0.85999,6.91377c0.48314,1.96961 2.12498,-0.3849 2.5888,-1.07826c0.55002,-0.82456 0.9985,-1.7216 1.48486,-2.58236c0.04594,-0.08137 0.35108,0.03941 0.32455,0.08536zM217.03546,131.9259c-0.67801,-1.25456 -1.71753,-2.10167 -1.60242,-3.67918c0.11519,-1.57021 1.43739,-2.46081 2.63881,-3.28774c2.63389,-1.81179 5.54563,-2.28849 8.61359,-1.58954c0.13206,0.02975 0.09748,0.14893 -0.03297,0.11833c-3.06397,-0.69649 -5.77678,-0.12884 -8.41075,1.58149c-1.29881,0.84389 -2.62991,1.85527 -2.58558,3.535c0.0378,1.41561 0.96383,2.17338 1.58064,3.31275c0.05315,0.09426 -0.16342,0.0773 -0.20131,0.0089zM226.96566,123.52405c-0.2609,-0.04111 -0.41872,-0.04992 -0.64334,-0.20131c-0.92441,-0.62088 -2.02115,-1.0146 -3.09534,-1.29406c-1.80051,-0.46941 -3.6679,-0.03619 -5.44663,0.32294c-0.05154,0.01043 -0.2392,-0.07332 -0.17639,-0.08536c1.56623,-0.3165 3.13644,-0.64987 4.73887,-0.47594c0.63046,0.06849 1.24244,0.24886 1.83993,0.44534c0.35108,0.11595 0.69818,0.25522 1.03477,0.40262c0.47992,0.21012 1.21108,0.72471 1.70787,0.80278c0.08942,0.01288 0.19004,0.1079 0.04026,0.08298zM226.94718,123.45319c0.24394,-0.54841 0.66352,-0.98078 0.90263,-1.53241c0.60876,-1.40027 -1.35763,-1.93418 -2.27882,-2.20067c-2.02598,-0.58621 -3.67833,-0.8922 -5.78322,-0.49764c-0.07408,0.01526 -0.25607,-0.09985 -0.13045,-0.1224c1.05249,-0.19733 2.08235,-0.3382 3.1517,-0.20614c1.12013,0.13926 2.21924,0.53866 3.29826,0.85754c0.72955,0.2158 1.42773,0.50171 1.8762,1.13945c0.63054,0.89619 -0.49035,1.88341 -0.82134,2.62101c-0.03458,0.07891 -0.2464,0.01373 -0.21496,-0.05874zM230.26391,123.71646c0.8544,-1.87375 -0.45254,-3.74029 -2.13871,-4.54637c-1.74576,-0.8366 -3.42709,-1.14259 -5.35076,-1.00087c-0.21987,0.01687 -0.43729,-0.30523 -0.14655,-0.32693c2.26916,-0.16749 4.31124,0.26327 6.30985,1.3745c1.56131,0.86805 2.51794,2.94641 1.75703,4.61724c-0.09103,0.19648 -0.51942,0.07247 -0.43084,-0.11756zM217.23677,131.92429c0.66996,0.74319 0.5629,1.83594 0.55646,2.76519c0,0.02331 -0.04992,0.02331 -0.06442,0.02331c-1.17811,-0.01043 -1.21913,-1.56131 -2.1911,-1.87214c-0.12562,-0.0395 -0.10544,-0.12723 0.02178,-0.08536c0.66835,0.21258 0.95662,0.89297 1.35602,1.41315c0.11918,0.15461 0.65868,0.64987 0.66513,0.20538c0.00322,-0.23996 0.00483,-0.48153 0,-0.72149c-0.01449,-0.61927 -0.11358,-1.25939 -0.54273,-1.73372c-0.05399,-0.06035 0.15944,-0.03865 0.19885,0.00568zM216.49273,115.75511c-3.03736,0.2681 -5.94825,1.49291 -8.39779,3.28698c-2.33841,1.7127 -3.68155,4.26369 -4.71793,6.89928c-0.56604,1.43977 -0.9896,2.92301 -1.21913,4.45212c-0.09739,0.64741 -0.12401,1.30126 -0.15215,1.95436c-0.01933,0.45254 -0.13528,1.56377 0.68683,1.13539c0.9373,-0.48721 1.27957,-2.15083 1.59522,-3.05668c0.43559,-1.24252 0.99121,-2.54379 1.81662,-3.57449c0.08374,-0.10307 0.4606,0.07815 0.43237,0.11595c-1.00333,1.25541 -1.56055,2.8441 -2.08557,4.34668c-0.26734,0.76904 -0.80202,2.49624 -1.87137,2.52201c-0.5145,0.01212 -0.89704,-0.20131 -0.97027,-0.75853c-0.19648,-1.53233 0.12401,-3.19196 0.49035,-4.67436c0.80685,-3.25562 2.31832,-6.55464 4.80329,-8.86008c2.45513,-2.2756 6.00386,-3.66866 9.30855,-3.96092c0.09095,-0.01051 0.49518,0.153 0.28099,0.17232zM211.06466,135.79105c-0.5073,1.17641 -1.7828,4.84914 -3.62196,4.02136c-1.00977,-0.455 -0.90755,-2.50675 -0.85118,-3.36912c0.10231,-1.50741 0.72556,-2.84012 1.76186,-3.8893c0.09103,-0.0918 0.3994,0.03382 0.29879,0.13443c-1.62099,1.63946 -2.10167,4.04314 -1.49054,6.25916c0.50171,1.81984 2.25229,-0.5685 2.71611,-1.23524c0.3994,-0.57579 0.58782,-1.37374 0.86322,-2.00987c0.05637,-0.12646 0.37524,-0.02984 0.32371,0.08858zM205.65507,128.3748c-0.6925,1.32542 -1.0307,3.09695 -1.2916,4.55358c-0.14655,0.82778 -0.19249,1.68134 -0.04755,2.51158c0.11197,0.63529 0.62003,1.7216 1.72567,0.66513c0.24717,-0.23674 0.42356,-0.56367 0.6152,-0.84635c0.07646,-0.11595 0.3849,0.00483 0.29387,0.13935c-0.3599,0.5379 -0.87686,1.43654 -1.6604,1.37289c-0.66352,-0.0523 -1.07741,-0.46704 -1.24083,-1.12165c-0.32693,-1.32144 -0.06281,-2.72009 0.24556,-4.01975c0.26573,-1.12572 0.52663,-2.3674 1.06452,-3.39573c0.06281,-0.11994 0.37287,-0.00483 0.29556,0.14096zM216.92197,140.20773c-0.56935,1.28999 -1.23286,2.53489 -2.10489,3.64697c-0.3777,0.47907 -0.98807,0.93484 -1.61209,0.6675c-0.58223,-0.24878 -0.37609,-1.21506 -0.3777,-1.69744c-0.00644,-0.82855 0.35193,-1.61929 0.63699,-2.38028c0.0467,-0.12079 0.36634,-0.02577 0.3221,0.0862c-0.43407,1.15708 -0.67157,2.10328 -0.64665,3.32962c0.02738,1.46477 1.60166,-0.42432 1.83755,-0.75531c0.65546,-0.9228 1.16522,-1.95029 1.62014,-2.98498c0.05476,-0.11841 0.37202,-0.01933 0.32455,0.08773zM216.36711,141.48569c-0.1852,0.91873 -0.1602,1.90358 0.05476,2.81749c0.08459,0.3632 0.22792,0.7537 0.51137,1.00816c0.44203,0.39702 1.14666,-0.66589 1.32296,-0.91958c0.05476,-0.07891 0.36643,0.025 0.30201,0.12079c-0.49526,0.70946 -1.37297,1.53962 -2.09201,0.60554c-0.71268,-0.9284 -0.63699,-2.65161 -0.42279,-3.7202c0.01856,-0.09578 0.34388,-0.0161 0.32371,0.08781z" fill="#010101"/><path d="M225.82061,118.26423c-1.22472,-1.71999 -4.04068,-1.77881 -5.9346,-1.38425c-2.26831,0.47433 -4.28709,2.05904 -5.63667,3.89176c-1.18209,1.60887 -1.63701,3.65417 -1.66116,5.61971c-0.025,1.94952 0.52018,4.74768 2.0509,6.12625c0.04755,0.04187 -0.15537,0.01856 -0.19487,-0.0161c-1.73847,-1.56454 -2.14838,-4.63495 -2.05251,-6.83969c0.11672,-2.66127 1.32941,-5.00451 3.29987,-6.75756c1.63218,-1.45341 3.79666,-2.36172 5.99334,-2.28849c1.55089,0.04992 3.38446,0.32938 4.34829,1.68541c0.01534,0.0217 -0.17469,0.01449 -0.21258,-0.03704zM226.00183,118.1732c-1.78364,-2.4141 -4.70742,-2.9053 -7.52898,-2.67093c-2.96811,0.24801 -5.5191,1.35441 -7.48795,3.659c-3.63968,4.26691 -2.27721,11.12517 2.00504,14.39681c0.11595,0.08781 -0.06281,0.13774 -0.1385,0.07976c-4.89746,-3.74114 -5.6415,-11.25884 -1.09911,-15.58458c3.54627,-3.37556 11.26528,-4.20817 14.44996,0.10629c0.06688,0.08612 -0.15376,0.07807 -0.20046,0.01365z" fill="#010101"/><path d="M227.90135,132.17231c0.40423,0.79473 0.6764,1.56055 0.74243,2.45352c0.00322,0.03543 -0.01127,0.07569 -0.04747,0.08858c-1.7917,0.71268 -3.66629,1.07258 -5.57064,1.31822c-0.39618,0.05154 -0.98968,0.15461 -1.32864,-0.15461c-0.59266,-0.53951 -0.50815,-1.37213 -0.78354,-2.07836c-0.01449,-0.03382 0.01856,-0.0773 0.04755,-0.08934c2.01793,-0.91399 4.46339,-1.38501 6.6561,-1.6604c0.1852,-0.02339 0.4517,0.23513 0.1602,0.27132c-1.18446,0.14977 -2.38427,0.47594 -3.55754,0.71183c-0.64012,0.12884 -1.27067,0.29472 -1.89553,0.49043c-0.64495,0.20368 -0.93408,0.2915 -0.78184,0.96145c0.11511,0.50806 0.0612,1.36806 0.97671,1.31898c1.32542,-0.0701 2.68788,-0.38575 3.97143,-0.71988c0.47026,-0.1224 1.74254,-0.34142 1.68295,-0.92924c-0.07086,-0.69979 -0.36312,-1.33915 -0.67801,-1.95834c-0.10383,-0.19894 0.33176,-0.16673 0.40584,-0.02416zM230.7229,131.83411c0.89144,-0.86483 2.39885,-1.31254 3.61476,-1.39069c0.19004,-0.01288 0.45009,0.26412 0.15698,0.28268c-1.12572,0.07162 -2.55015,0.48713 -3.37556,1.28914c-0.12562,0.12163 -0.53307,-0.04831 -0.39618,-0.18114zM234.63076,130.6182c0.30836,0.73031 0.19326,1.5597 0.18843,2.33112c-0.00161,0.09985 -0.43407,0.02738 -0.43246,-0.11595c0.00805,-0.75769 0.11756,-1.56454 -0.18436,-2.2812c-0.04187,-0.10307 0.37761,-0.05637 0.42839,0.06603zM234.77647,132.99043c-1.09029,0.45254 -2.23288,0.67233 -3.34733,1.04198c-0.11036,0.03619 -0.34464,0 -0.38812,-0.12884c-0.22792,-0.6764 -0.4155,-1.31898 -0.41067,-2.03649c0.00161,-0.11918 0.43237,-0.04187 0.43237,0.1168c-0.00644,0.70378 0.18682,1.32296 0.40745,1.98089c-0.12884,-0.04348 -0.25768,-0.08536 -0.38651,-0.12884c1.11369,-0.3688 2.2595,-0.58943 3.34742,-1.04122c0.11756,-0.05154 0.51374,0.12562 0.3454,0.19572zM230.66814,132.91313c-0.18843,-0.58545 -1.00977,-0.1079 -1.33992,0.11189c-0.35269,0.23437 -0.69649,0.58621 -0.75048,1.02189c-0.0161,0.1296 -0.45009,0.03458 -0.43076,-0.11595c0.12562,-1.02104 2.49946,-2.3513 2.952,-0.95747c0.04264,0.13452 -0.38736,0.07493 -0.43084,-0.06035zM215.18426,132.34378c0.89458,-0.25683 1.64506,-0.02094 2.43741,0.42356c1.09029,0.61037 2.08396,0.87212 3.32487,0.96629c0.4372,0.03382 0.70454,0.554 0.11028,0.50815c-0.70937,-0.05399 -1.36484,-0.17876 -2.05734,-0.33015c-1.0613,-0.23352 -2.20313,-1.39069 -3.29503,-1.07741c-0.29073,0.08374 -1.01545,-0.34786 -0.52018,-0.49043z" fill="#010101"/></g></g></svg>